<?xml version="1.0" encoding="utf-8"?>
<!-- Generator: Adobe Illustrator 16.2.1, SVG Export Plug-In . SVG Version: 6.00 Build 0)  -->
<!DOCTYPE svg PUBLIC "-//W3C//DTD SVG 1.1//EN" "http://www.w3.org/Graphics/SVG/1.1/DTD/svg11.dtd">
<svg version="1.1" id="Layer_1" xmlns="http://www.w3.org/2000/svg" xmlns:xlink="http://www.w3.org/1999/xlink" x="0px" y="0px"
	 width="63.739px" height="135.22px" viewBox="0 0 63.739 135.22" enable-background="new 0 0 63.739 135.22" xml:space="preserve">
<g>
	<path fill="#010101" d="M17.939,5.856c-0.83,0.811-2.449,0.833-3.166,1.758C15.07,6.328,16.47,5.407,17.939,5.856z"/>
	<path fill="#010101" d="M20.93,5.679c1.475-0.067,2.392,0.423,2.462,1.759C22.985,6.437,21.22,6.795,20.93,5.679z"/>
	<path fill="#010101" d="M22.513,10.957C22.711,8.297,25.033,10.737,22.513,10.957L22.513,10.957z"/>
	<path fill="#010101" d="M21.809,23.269c0.124,0.885-0.364,1.158-1.23,1.054C19.964,23.477,21.043,22.692,21.809,23.269z"/>
	<path fill="#010101" d="M22.337,25.027c0.421,0.633,0.312,1.125-0.353,1.408C21.04,26.517,20.681,24.822,22.337,25.027z"/>
	<path fill="#010101" d="M22.16,28.37c-0.077-0.156-0.153-0.314-0.352-0.353C21.825,25.372,24.692,28.238,22.16,28.37z"/>
	<path fill="#010101" d="M24.095,29.424c0.056,0.875-0.24,1.401-1.23,1.231C22.042,29.764,23.197,28.466,24.095,29.424z"/>
	<path fill="#010101" d="M26.206,33.294c-3.303,1.035-5.771,2.907-8.091,4.926C19.815,35.792,22.957,33.007,26.206,33.294z"/>
	<path fill="#010101" d="M28.492,32.943c0.824,0.021-0.19,0.255,0,0.703c-1.731,0.905-3.404,1.872-5.628,2.287
		C24.529,34.725,27.1,34.423,28.492,32.943z"/>
	<path fill="#010101" d="M11.431,79.202c-1.009,5.428-1.273,13.856,0.353,18.997C9.264,93.07,9.589,84.658,11.431,79.202z"/>
	<path fill="#010101" d="M7.034,31.36c0.5-2.194,0.688-4.275,0.528-6.156c2.871-0.254,4.431-3.295,7.035-4.397
		c0.313-1.023-0.418-2.466,0.704-3.166c-0.393-1.318-0.502-2.299-1.408-3.342c-3.216-0.103-3.221-3.364-3.165-5.98
		c0.722,0.157,0.252,1.507,1.055,1.583c0.55-1.023-0.518-1.941-1.055-2.463c1.16-1.596,1.315-4.196,3.692-4.573
		c0.448-0.78,0.476-2.115,1.76-2.463c0.718-0.054,0.094,0.368,0.176,0.704c0.901-0.381,0.859-1.197,1.935-1.056
		c0.154,0.565-0.58,0.241-0.527,0.704c1.558-0.561,3.397-0.886,5.277-0.704c-0.301,0.522-1.468,0.174-1.936,0.527
		c0.678,0.437,2.37-0.141,2.463,0.88c-0.17,0.298-0.486,0.452-1.056,0.352c0.458,0.973,2.075-0.177,2.463,0.176
		c-0.678,1.488,0.63,1.91,1.231,2.638c0.267,1.929-0.969,3.227-0.527,4.749c0.631-0.013,0.14-1.15,0.527-1.407
		c0.778,0.458,0.518,1.529,0.175,2.463c0.041,0.253,0.525,0.062,0.528,0.352c-0.145,1.317-0.914,3.067-2.639,3.343
		c-0.776,1.217-1.734,2.253-2.813,3.166c0.474,0.464,0.713,1.163,0.703,2.11c5.676,0.117,8.354,2.412,11.609,5.276
		c0.688,0.006,0.031-0.886,0.353-0.879c0.882,0.055,0.77,1.104,1.582,1.23c0.838-6.345,1.431-13.011,1.759-20.052
		c8.017,0.324,16.243,0.427,24.978,0.704c0.326-0.026,0.107-0.596,0.351-0.704c0.676,1.474-0.074,5.047-0.175,7.388
		c-0.725-1.784,0.113-4.204,0-5.98C54.732,5.607,47.084,5.72,37.991,5.502c-0.828,10.854-1.783,19.841-2.286,29.901
		c1.877,0.091,2.812-0.81,4.046-0.527c-0.638,1.545-3.856,1.403-4.749,2.11c0.464,0.475,1.164,0.712,1.583,1.231
		c-0.298,1.178-0.902,1.209-1.056,2.287c-0.625,0.02-1.53-0.241-1.231,0.703c-0.803-0.076-1.937,0.178-2.461-0.175
		c0.349-0.406-0.046-0.196-0.177-0.528c-0.083-0.928,0.473,0.409,0.527-0.176c-0.056-1.542-2.192,0.64-3.342-0.353
		c-0.124,1.253-1,2.728,0.176,3.87c-0.02,0.45-0.589,0.35-1.055,0.352c0.014,0.984,0.044,1.949,0.527,2.462
		c0.669,0.26,0.035-0.786,0.703-0.526c2.257,1.841,5.858,4.344,7.74,6.859c1.607,2.15,2.183,4.96,4.045,7.036
		c0.244,1.777,1.634,5.639,2.814,7.387c-0.134,2.107,1.052,4.012,1.583,5.98c2.043,7.561,2.667,14.114,3.87,23.218
		c0.149,1.125,0.775,1.838,0.176,2.991c-0.801-0.968-2.5,0.135-3.869,0.176c-0.048,0.597,0.136,1.426-0.177,1.759
		c-5.871,1.297-9.608,2.423-16.886,2.286c-0.993,1.597-0.998,3.748-1.583,5.979c-1.352,5.16-4.682,12.594-3.342,16.534
		c0.963,2.831,3.716,3.803,5.453,6.156c-0.726,1.801-4.177,0.55-5.453,0.176c-1.085-1.762-1.468-2.103-3.166-3.166
		c-0.075,1.424,0.641,2.056,0.528,3.519c-1.259,0.315-1.464-1.347-1.407-1.759c-0.771-0.872-1.033-2.252-1.759-3.166
		c0.629-1.539,1.964-3.632,2.638-6.157c0.1-0.37,0.36-0.22,0.353-0.175c0.989-5.662,0.117-10.75,0.703-18.117
		c-1.316-0.492-1.958-0.226-4.221-0.352c-1.542,8.076-7.826,14.53-7.213,23.393c0.035,0.486,0.261,0.946,0.177,1.408
		c-0.156,0.862-1.88,3.411-2.814,4.221c-0.312,0.271-0.702,0.762-1.231,0.353c-0.209-0.733,0.756-1.351,1.055-2.11
		c-1.773,1.229-2.64,5.785-7.035,4.396c-0.608-2.67,1.674-4.087,2.99-5.628c5.912-6.926,5.083-17.051,6.859-25.856
		c-1.154-0.081-3.62-0.159-4.396,0.704c-0.009-0.938,0.019-1.567,0.176-1.936c-0.424-0.072-0.382,0.321-0.879,0.176
		c0.66-0.513,1.274-1.07,1.055-2.463c-1.291-0.281-2.98,0.426-4.045-0.527c-0.044-1.192,0.787-2,1.231-3.167
		c-0.492-0.767-2.289,0.9-3.167-0.174c0.302-1.123,0.924-2.941,0.353-3.87c1.43-4.527,2.304-10.885,3.342-15.83
		c2.477-11.799,7.371-20.547,14.247-28.495c0.469,0,0.938,0,1.407,0c0.094-0.68-0.314-0.859-0.177-1.584
		c-2.845,1.071-6.476,3.235-9.146,4.046c0.058-0.017-0.524-0.688-0.352,0.177c-0.14-1.759-1.566-3.797-1.056-6.332
		c-0.795,0.57-0.142-1.846-0.703-2.64c-0.548-0.148-1.262,0.729-1.759,0.528c-0.198-0.733-0.368-2.255-0.176-2.814
		c1.547,0.616,4.523-0.064,7.212,0.176c-1.88-0.609-5.418-0.407-7.563-0.176c-0.073-2.444-0.381-3.17-0.527-5.98
		C6.902,35.519,7.662,33.432,7.034,31.36z M14.949,3.57c-1.383,1.842-0.562,3.241-0.703,5.627c-0.085,1.437-0.488,2.619-0.353,3.519
		c0.364,2.397,3.816,5.042,5.981,4.749c1.958-0.265,4.107-3.413,4.221-5.98c0.09-2.018-0.338-6.187-1.759-7.387
		C19.522,3.784,17.464,4.959,14.949,3.57z M15.477,16.41c0.29,2.64,3.088,2.775,4.75,4.044c0.205-1.065,0.608-2.04,0.352-2.813
		C17.779,18.115,17.505,17.375,15.477,16.41z M20.05,21.158c-0.384-0.385-1.305-1.149-1.759-0.879
		C18.941,20.396,19.373,21.651,20.05,21.158z M14.421,21.158c-1.587,2.231-4.008,2.551-5.453,4.925
		c1.173,1.53,4.706,4.462,5.102,6.509c0.273,1.416-0.481,3.426-0.176,5.276c0.849,1.203,1.941,2.163,2.462,3.693
		c-1.558,0.189-1.323-1.339-2.462-1.934c-0.118,1.153-0.996,2.283,0,3.165c3.754-1.289,7.554-2.529,11.258-3.869
		c0.227-1.24,1.448-1.483,2.813-1.583c0.288-3.112,2.456-4.345,3.167-7.036c-1.148-1.808-4.56-4.751-2.111-7.387
		c-0.398,1.193-0.733,3.567,0.528,4.045c0.566-1.225,1.458-2.751,1.23-4.222c-1.305,0.663-0.297,2.547-1.406,3.343
		c-0.125-1.021,0.329-2.202,0.527-3.693c-1.533-2.001-4.669-1.525-7.388-2.11c0.126,1.108,0.728,2.669,0.528,3.519
		c-1.216-0.31-1.488-1.562-2.64-1.936c-0.604,1.564-0.972,3.365-2.286,4.221c-0.299-0.656,0.104-0.277,0.176-0.879
		C16.361,23.725,16.179,22.56,14.421,21.158z M18.994,24.148c-1.008-0.226-1.57-1.825-2.287-1.758
		C17.549,22.737,18.258,24.839,18.994,24.148z M19.17,23.972c-0.346-0.519-1.521-1.937-1.759-1.407
		C18.272,22.759,18.455,23.632,19.17,23.972z M29.724,27.491c0.306,0.573,0.676,1.083,1.231,1.407
		c0.648-1.464,2.007-2.215,2.463-3.871c-0.71-0.521-1.122-1.34-2.286-1.407C31.14,24.979,30.199,26.12,29.724,27.491z
		 M35.353,25.378c-0.568-0.217-0.135,0.57-0.703,0.353c0.092-0.261,0.259-0.442,0.351-0.704c-1.213,1.016-2.615,2.777-2.99,4.046
		c0.707-1.055,1.813-2.642,2.64-2.99c-0.971,1.141-1.817,2.405-2.813,3.518c-0.451,0.189-0.616-0.757-0.881-0.176
		c0.413,0.056,0.394,0.545,0.704,0.704C32.982,28.638,34.489,27.331,35.353,25.378z M35.704,26.083
		c-0.933,0.497-2.088,2.572-2.286,2.639c0.477-0.109,0.438-0.734,1.055-0.704c-0.831,0.864-1.714,2.436-2.637,2.64
		c0.621,0.191-0.623,0.863,0,1.055c1.09-1.548,3.187-3.024,3.517-4.749c-0.182,0.242-0.697,1.043-0.88,0.704
		C34.941,27.197,35.402,26.719,35.704,26.083z M8.089,29.073c2.098,0.541,4.012,2.201,4.222,4.046
		c-1.129-1.334-2.074-2.852-4.222-3.166c-0.052,0.852-0.178,0.718-0.176,1.759c1.524,1.055,3.28,1.88,5.452,2.287
		c0.253-3.308-3.003-5.66-5.101-7.739C8.35,27.341,7.952,27.939,8.089,29.073z M32.01,32.24c1.257-1.149,3.22-2.526,3.343-4.223
		C34.275,29.462,32.941,30.649,32.01,32.24z M34.473,32.063c0.415,0.055,0.327,0.611,0.88,0.527
		c-0.108-0.477,0.223-1.396-0.176-1.583C35.067,31.485,34.441,31.446,34.473,32.063z M7.737,34.702
		c1.989,0.473,3.491,1.434,5.628,1.758c0-0.703,0-1.406,0-2.109c-2.165,0.175-3.658-1.224-5.452-1.936
		C7.843,33.548,7.828,33.643,7.737,34.702z M28.845,36.988c2.669-0.146,4.161-1.467,6.332-2.11c0.401-1.319-0.235-1.637-1.231-2.286
		c-0.521,0.241-0.656,0.868-1.23,1.056c-0.718-0.163-0.728-1.033-1.583-1.056C30.505,34.193,29.312,35.228,28.845,36.988z
		 M7.737,35.406c-0.57,0.062-1.32-0.508-1.936-0.176C6.267,35.36,7.259,35.873,7.737,35.406z M34.122,36.46
		c0.983,0.245,3.495-0.615,4.748-1.23C37.248,35.6,35.39,35.736,34.122,36.46z M9.321,35.757c-0.646,0.058-0.979-0.196-1.408-0.352
		C7.789,35.982,9.705,36.053,9.321,35.757z M7.562,36.285c1.769,0.349,4.021,0.808,5.277,0.879c-2.105-0.65-4.289-1.224-6.86-1.407
		C6.017,36.664,7.05,36.185,7.562,36.285z M6.154,37.165c2.162-0.08,4.47,0.681,6.685,0.352c-2.155-0.203-4.644-0.78-6.86-1.056
		C5.966,36.766,6.018,37.007,6.154,37.165z M35,38.923c0.226-0.245,0.831-0.108,1.056-0.353c-0.175-0.651-1.278-1.294-1.759-1.056
		c0.216,0.488,0.584,0.823,0.88,1.232C34.99,38.74,34.729,38.83,35,38.923z M33.945,36.46c-2.449,0.425-4.385,0.386-6.156,1.584
		c0.091,0.671,0.578,0.945,0.703,1.583c1.631,0.48,2.442-0.347,3.87-0.528c0.387,0.258,0.823,0.466,0.703,1.231
		c-0.258,0.003-0.558-0.741-0.527,0c-0.256,0.842,0.734,0.438,1.23,0.526c0.203-1.105-0.957-2.124,0.176-2.638
		c-0.117,0.521-0.148,1.866,0.704,1.935c0.225-0.01,0.243-0.225,0.527-0.176C34.857,38.716,33.816,37.63,33.945,36.46z
		 M6.506,37.867c2.17,0.379,4.642,0.15,6.508,0.528c-2.07-0.823-4.108-0.544-6.858-1.055C6.171,37.617,6.131,37.95,6.506,37.867z
		 M13.014,38.747c-1.729-0.587-4.494-0.188-6.858-0.527C7.183,39.399,11.665,38.5,13.014,38.747z M26.382,38.571
		c0.267,0.673,0.302,1.575,0.704,2.111C27.114,39.715,26.761,39.13,26.382,38.571z M12.839,43.144
		c-0.148-0.673-0.229-1.411-0.177-2.287c-1.377,0.207-2.924,0.242-4.045,0.704c-0.006,3.433,0.714,5.118,1.406,7.916
		c5.812-1.922,10.648-5.417,16.008-8.267c-0.109-1.075-0.143-1.343-0.704-2.111c-3.34,1.241-7.186,2.713-10.554,3.87
		c-1.133,0.39-2.445,1.06-3.519,0.704C11.747,44.037,12.113,43.098,12.839,43.144z M6.682,40.331
		c2.183-0.231,4.023-0.225,5.98-0.353c-0.95-0.399-4.153-0.066-5.98-0.175c-0.176-0.001-0.208,0.143-0.351,0.175
		C6.35,40.193,6.383,40.394,6.682,40.331z M8.441,40.682c0.349,0.292,0.223-0.017,0.703,0c0.636,0.127,0.636-0.304,0-0.176
		c-0.762,0-1.524,0-2.287,0c-0.177-0.001-0.21,0.143-0.353,0.176c0,0.175,0,0.352,0,0.527C7.402,41.285,7.878,40.939,8.441,40.682z
		 M21.281,44.904c2.201-0.496,4.696-0.698,6.86-1.231c-0.46-0.444-0.262-0.76-0.353-1.76c-1.081,0.062-1.293,0.306-1.935-0.353
		C24.449,42.794,22.75,43.734,21.281,44.904z M24.095,45.08c1.196-0.152,2.465-0.233,3.344-0.704
		C26.216,44.503,24.946,44.582,24.095,45.08z M20.05,46.838c2.292-0.522,4.855-0.773,7.212-1.231c0.178-0.002,0.221-0.308,0-0.352
		C24.664,45.968,22.164,45.691,20.05,46.838z M20.401,47.366c2.328-0.545,5.145-0.602,7.212-1.407
		C25.144,46.362,22.256,46.346,20.401,47.366z M36.936,58.447c-0.674-0.032-0.063,0.145-0.176,0.528
		c1.171-0.101,1.601,0.129,2.287-0.353c-0.96-1.737-1.928-3.466-2.64-5.452c-2.541-1.973-4.466-4.562-7.211-6.332
		C33.062,49.799,34.646,54.119,36.936,58.447z M32.715,55.632c-1.635-3.134-2.435-5.233-4.223-8.442
		c-0.774-0.014-1.21,0.312-1.758,0.527c2.228,3.127,4.028,7.044,6.331,10.905c1.119,0.122,1.696-0.298,2.815-0.176
		c-0.976-4.36-3.229-8.38-6.156-10.201C30.748,50.563,32.471,53.121,32.715,55.632z M25.679,47.717
		c0.093,0.253-0.687,0.43-0.177,0.528c0.562,4.489,2.474,9.245,3.167,14.423c0.832,6.223,0.261,12.858,0.527,19.172
		c0.269,6.389,0.753,12.261,1.582,17.413c2.463,0,4.926,0,7.388,0c-2.567-16.949-5.81-33.046-11.257-48.897
		c0.134-1.261,0.257-2.308-0.879-2.639C25.913,47.717,25.795,47.717,25.679,47.717z M24.271,47.894
		c-0.578,1.935,0.439,4.182,0.88,6.331c-0.173-2.485-0.222-4.399-0.353-6.331C24.623,47.894,24.447,47.894,24.271,47.894z
		 M19.17,48.421c-2.756,3.4-5.303,7.009-8.267,10.201c-0.182,0.191-1.288,2.131-1.582,3.343c1.654-0.162,2.652-0.982,4.396-1.056
		c1.577-3.699,3.316-8.175,5.452-10.729c-1.698,3.343-3.345,6.739-4.749,10.377c1.259,0.18,3.381-1.174,4.749-0.879
		c-1.562,0.606-3.524,0.813-4.924,1.583c1.525-0.646,4.618-0.301,5.101-1.935c-1.058-0.174-3.196,1.022-4.397,0.704
		c1.361-0.705,3.975-1.05,5.101-1.408c-1.638,6.413,0.208,11.728-1.231,18.47c-0.154,0.564,0.58,0.24,0.528,0.704
		c-1.181-0.361-0.244,1.397-1.231,1.23c0-0.353,0-0.704,0-1.057c-0.97,0.069-1.221-0.188-1.936,0
		c-0.255,6.77,0.347,13.855,1.057,21.108c1.113,0,2.228,0,3.342,0c0.562-9.422,2.171-19.053,3.693-27.439
		c0.134-0.736-0.097-2.691-0.177-4.397c-0.3-6.467-2.958-12.494-1.23-18.996c-0.352,0-0.704,0-1.056,0
		c-1.663,2.677-2.607,7.008-4.222,9.147c0.482-2.866,1.728-6.477,3.167-8.972C20.227,48.421,19.697,48.421,19.17,48.421z
		 M15.829,51.235c-1.198,1.641-2.464,3.314-2.99,4.75c1.766-2.632,3.872-4.922,5.804-7.387
		C17.417,48.835,16.542,50.26,15.829,51.235z M25.327,67.594c0.747,11.152-4.331,20.64-4.046,31.484
		c2.997,0.052,5.819,0.277,8.971,0.175c-0.982-7.439-1.688-15.397-1.76-21.635c-0.049-4.287,0.459-8.81,0-13.191
		c-0.491-4.7-2.132-9.127-2.99-13.368c-0.042,2.734,0.751,7.059,0.528,10.379c-1.151-4.001-1.709-9.162-2.639-12.84
		C21.711,55.141,24.91,61.373,25.327,67.594z M34.122,74.102c2.342,7.461,3.608,17.099,4.925,24.977
		c2.169-0.273,3.643-0.594,5.276-0.879c-0.484-7.933-0.301-14.95-2.463-22.163c-2.418,0.022-3.93-0.12-5.453,0.704
		c-1.29-6.163-3.202-12.131-4.925-18.292c0.354-0.04,0.712,0.783,1.056,0.175c-1.364-2.519-3.257-5.996-5.101-8.619
		C29.446,57.908,32.745,66.777,34.122,74.102z M37.112,59.501c0.592-0.11,1.633,0.228,1.935-0.175
		C38.376,59.086,37.796,59.144,37.112,59.501z M33.945,60.031c0.871,0.294,1.757,0.078,2.639-0.353
		C35.448,59.837,34.963,59.661,33.945,60.031z M37.463,60.206c0.093,0.77,2.727,0.328,2.111-0.175
		C38.935,60.349,38.068,60.277,37.463,60.206z M34.649,60.557c0.812-0.007,1.739,0.1,2.11-0.352
		C35.918,60.185,35.168,60.256,34.649,60.557z M16.533,61.261c0.993-0.178,2.23-0.113,2.637-0.879
		C18.299,60.683,17.219,60.776,16.533,61.261z M37.815,63.02c-0.394-1.054-0.312-1.538-0.88-2.286
		c-0.954-0.135-1.425,0.217-2.286,0.175c0.33,1.253,1.284,1.882,1.582,3.166c-1.05-0.767-1.322-2.312-2.286-3.166
		c-0.4,0.128-0.898,0.157-1.23,0.353c1.5,4.714,2.757,9.671,4.045,14.599c1.847-0.24,2.807-0.375,4.75-0.351
		c-0.123-2.271-1.147-4.363-1.76-6.51c-0.622-2.178-1.54-4.482-1.406-6.156c3.368,10.362,7.356,21.131,7.035,33.948
		c0.883-0.198,2.398-0.126,3.166-0.879c-0.98-0.039-2.042,0.765-2.813,0.351c0.795-0.376,1.953-0.392,2.813-0.703
		c-0.631-7.497-1.623-12.375-3.693-19.876c-0.65-0.112-1.752,0.229-2.111-0.175c0.294-0.339,1.622-0.225,1.935,0
		c-1.488-4.47-3.121-10.961-4.925-14.6c-0.521-0.208-1.194,0.115-2.11,0C37.479,61.763,38.757,62.49,37.815,63.02z M16.533,61.79
		c0.827-0.228,2.124,0.014,2.461-0.704C18.1,61.246,17.145,61.346,16.533,61.79z M11.783,61.965
		c0.195-0.566,1.387-0.138,1.583-0.704C12.661,61.209,11.434,61.547,11.783,61.965z M18.291,61.965c0.117,0,0.234,0,0.352,0
		c-0.558,0.439-1.605,0.387-2.286,0.704c-0.86,4.771-0.59,9.798-0.352,14.95c1.05-0.044,1.317-0.41,2.286-0.176
		c0.936-5.468,0.669-9.93,0.527-15.653c-0.039-0.138-0.147-0.205-0.352-0.176C18.481,61.86,17.955,61.814,18.291,61.965z
		 M13.894,62.493c0.699-0.24,1.698-0.179,2.11-0.703C15.269,61.992,14.222,61.883,13.894,62.493z M9.496,63.373
		c1.128-0.28,2.619-0.196,3.167-1.056C11.729,62.79,10.223,62.691,9.496,63.373z M13.366,63.548c-0.833,2.904-2.18,6.477-2.99,9.674
		c-0.461,1.816-0.93,3.993-0.704,5.277c1.026-0.623,1.153-2.071,1.408-3.166c0.968-4.176,1.595-8.084,2.989-11.608
		c-0.71,5.258-2.252,9.188-3.167,14.422c1.358-0.05,2.316-0.498,3.87-0.351c-0.295-3.834,0.338-10.333,1.056-14.952
		C14.901,62.972,13.974,63.099,13.366,63.548z M9.145,64.427c-0.47,4.697-1.943,9.724-2.286,14.423
		c0.377,0.326,0.937-0.232,1.583-0.176c1.016-4.704,2.369-10.426,3.869-14.95C11.036,63.74,10.198,64.191,9.145,64.427z
		 M12.486,63.02c-0.938,0.353-2.123,0.456-2.99,0.879C10.236,64.006,11.873,63.615,12.486,63.02z M1.405,92.218
		c1.16,0.014,2.428-0.083,3.342,0.176c1.51-4.262,2.803-9.285,3.694-13.192c-0.721-0.182-1.438,0.543-1.936,0
		c0.316-6.059,2.029-10.664,2.287-16.006C5.874,72.548,2.675,81.683,1.405,92.218z M14.773,78.323
		c0.005-0.195-0.229-0.274-0.353-0.353c-1.064,0.402-2.591,0.341-3.693,0.704c-2.069,7.53-3.127,14.287-4.222,21.812
		c2.795-0.585,6.852-0.21,10.201-0.879c-2.854-0.443-6.792,0.47-9.321,0.351c2.683-0.962,6.166-0.539,9.146-0.879
		C15.473,92.013,14.536,86.366,14.773,78.323z M9.321,79.202C7.72,85.114,5.674,91.293,3.868,96.44
		c0.798,0.198,1.839,0.152,2.637,0.352c0.882-6.709,2.493-12.068,3.519-17.94c-0.039-0.137-0.146-0.205-0.352-0.176
		C9.657,78.952,9.224,78.813,9.321,79.202z M1.23,92.922c1.357,0.228,2.92,0.398,3.341-0.353C3.551,92.781,1.673,92.133,1.23,92.922
		z M4.22,93.273c-0.997,0-1.993,0-2.989,0C1.496,93.884,3.938,93.804,4.22,93.273z M1.053,94.154
		c0.255,0.086,2.87,0.234,2.815-0.353C3.38,94.083,2.056,93.721,1.053,94.154z M1.053,95.033c1.046-0.069,2.392,0.163,2.815-0.527
		C2.825,94.577,1.43,94.294,1.053,95.033z M45.555,97.496c1.229-0.372,2.219-0.088,3.166-0.88
		C47.546,96.789,46.057,96.649,45.555,97.496z M3.691,97.32c0.926-0.135,1.363-0.104,2.64,0C5.801,96.743,3.408,96.509,3.691,97.32z
		 M45.378,98.199c1.293,0.061,2.014-0.449,3.343-0.352C49.258,96.574,45.898,97.736,45.378,98.199z M4.044,97.67
		c-1.53,0.046,0.233,0.281,0.88,0.177c0.406,0.236,1.548,0.216,1.231-0.177C5.992,97.822,4.742,97.567,4.044,97.67z M45.555,98.903
		c1.36-0.048,2.705-0.108,3.341-0.88C47.799,98.333,46.115,98.056,45.555,98.903z M39.047,99.607
		c2.081-0.029,4.029-0.192,5.276-1.058C42.705,99.043,40.511,98.959,39.047,99.607z M39.223,99.958
		c1.136,0.586,4.332,0.244,5.276-0.527C43.003,99.188,41.218,100.119,39.223,99.958z M17.236,99.607
		c0.563,0.514,2.675,0.472,3.693,0C19.994,99.332,18.172,99.332,17.236,99.607z M21.633,99.958c2.035,0.455,6.282-0.204,8.619-0.175
		c-2.536-0.352-6.82-0.085-9.147-0.353C21.043,99.985,21.367,99.898,21.633,99.958z M30.779,99.958
		c2.465-0.165,6.193,0.367,7.564-0.351C36.565,99.799,32.538,99.169,30.779,99.958z M21.104,100.662
		c2.371-0.084,6.507,0.211,9.147-0.176C27.434,100.339,23.233,99.908,21.104,100.662z M30.955,100.662
		c2.654-0.043,5.559,0.163,7.563-0.527C35.978,100.668,33.014,99.841,30.955,100.662z M39.223,100.662
		c1.054,1.114,4.274,0.136,5.276-0.527C42.819,100.389,41.04,100.543,39.223,100.662z M6.682,101.189
		c4.07-0.667,9.452-0.584,13.896-0.527C15.106,99.995,9.872,100.205,6.682,101.189z M30.955,101.365
		c1.511,0.36,6.08,0.393,7.739-0.353C36.922,100.662,32.724,100.682,30.955,101.365z M44.674,100.837
		c-1.817,0.116-3.72,0.696-5.804,0.879c-2.498,0.22-6.292-0.167-7.915,0.704C35.104,103.271,40.62,102.077,44.674,100.837z
		 M6.331,101.716c5.398-0.297,9.384,0.119,14.246-0.527C15.275,100.819,9.624,100.975,6.331,101.716z M21.104,101.365
		c0.04,0.137,0.148,0.204,0.353,0.176c2.567-0.215,6.649,0.865,8.971-0.352C27.781,101.014,23.459,100.663,21.104,101.365z
		 M6.331,102.42c0.794,1.081,2.702,0.12,4.045,0c0.585-0.053,1.208,0.047,1.759,0c1.655-0.14,3.768,0.524,4.749-0.528
		C12.413,102.025,8.879,101.726,6.331,102.42z M20.754,102.244c-0.675-0.637-2.553-0.147-3.518-0.352
		C18.395,102.888,19.732,102.539,20.754,102.244z M20.93,102.244c0.137,0.039,0.204,0.148,0.175,0.353
		c0.545,0.23,0.998-0.499,0.528-0.704C21.474,102.375,20.985,101.549,20.93,102.244z M22.513,102.068
		c-0.137,0.039-0.204,0.147-0.176,0.353c1.975,0.556,6.3,0.605,8.267,0C27.715,101.707,24.255,102.049,22.513,102.068z
		 M10.552,103.299c-1.377,6.967-1.091,15.596-3.87,21.458c-1.35,2.847-3.85,4.756-4.749,7.916c3.309-0.448,6.259-3.539,7.388-6.685
		c1.322-3.687,0.863-8.454,3.165-11.96c0.132-0.798-0.481,0.269-0.352-0.527c0.307,0.013,0.547-0.039,0.704-0.177
		c1.042-3.675,2.685-6.093,3.694-10.025C14.799,103.088,12.654,103.141,10.552,103.299z M23.216,126.517
		c-1.327-4.092,1.018-10.15,2.111-13.543c-0.107-0.011-0.208-0.027-0.176-0.176c0.712-2.947,1.594-5.494,2.287-8.795
		c-1.972-0.175-3.616-0.525-5.454-0.176c-0.237,8.489,0.494,15.696-2.638,22.514c1.954,2.045,3.764,5.134,7.211,5.101
		C25.794,129.541,23.926,128.706,23.216,126.517z"/>
	<path fill="#010101" d="M35.881,40.682c1.046-0.612,2.858-0.396,4.221-0.352c6.168,0.199,12.515,0.418,19.349,0.352
		c1.093-6.077,1.197-14.597,1.935-19.7c-0.332-0.35-0.616-0.3-1.056-0.176c0.314-1.315,2.404-0.023,2.639-1.583
		c-0.656-0.529-1.554,1.132-2.286,0.527c-0.652,0.047,0.114-0.548-0.527-0.703c0.098-0.966,1.062-0.497,1.582-0.704
		c0.354,0.359-0.077,0.345-0.176,0.704c0.882-0.115,1.45-0.543,1.76-1.231c-0.601-0.589-0.682,0.834-1.584,0.527
		c0.396-0.777,1.555-0.791,1.584-1.935c-0.993-0.17-1.526,1.637-2.814,1.759c-0.219-1.118,0.886-2.506,1.935-3.343
		c-0.425-0.587-0.524-1.808,0.176-2.286c0.048,0.95,0.148,0.932-0.176,1.584c0.17,0.435,0.676-0.243,1.23,0
		c0.26,2.021-0.318,3.871-0.175,5.627c-0.723,0.04-0.748,0.777-1.583,0.704c-0.522,6.87-1.67,13.712-1.584,20.756
		c-1.877,0.409-6.635-0.687-8.794,0C48.398,40.614,41.033,40.978,35.881,40.682z M61.209,17.113c0.904-0.585,2.25-1.586,2.111-2.639
		C62.23,14.968,61.674,15.995,61.209,17.113z"/>
	<path fill="#010101" d="M43.268,91.515c-0.18,0.114-0.183,0.404-0.528,0.352c0.034-0.143,0.177-0.175,0.177-0.352
		c0.104-0.618-0.832-0.578-0.352-1.056c0.53,0.113,0.491,0.799,0.879,1.056C43.41,91.714,43.267,91.613,43.268,91.515z"/>
	<path fill="#010101" d="M15.301,9.901c0.699-0.056,0.884,0.406,1.583,0.352c-0.188,0.874-0.723,0.834-1.583,0.704
		C15.17,10.586,15.17,10.27,15.301,9.901z"/>
	<path fill="#010101" d="M22.688,12.891c0,0.293,0,0.587,0,0.879c-0.231-0.062-0.276-0.31-0.528-0.351
		c-0.386,0.258-0.709,0.579-0.879,1.055c-2.257,1.279-3.878-0.966-5.276-1.055c0.091-0.908,0.628-0.571,1.406-0.528
		C19.397,11.9,21.453,12.86,22.688,12.891z M17.939,13.594c0.811,0.437,3.013,0.688,3.342-0.352
		C20.484,13.107,18.196,12.642,17.939,13.594z"/>
	<path fill="#010101" d="M21.969,9.44c0-0.291,0.234-0.525,0.525-0.525c0.283,0,0.51,0.224,0.521,0.504
		c0.165-0.162,0.303-0.35,0.376-0.572c-0.734-1.35-3.139-0.438-2.813,0.704c0.418,0.417,1.067,0.496,1.645,0.328
		C22.074,9.786,21.969,9.628,21.969,9.44z"/>
	<path fill="#010101" d="M16.884,9.582c0-0.291,0.234-0.525,0.525-0.525s0.525,0.234,0.525,0.525c0,0.007-0.004,0.013-0.004,0.021
		c0.076-0.112,0.143-0.242,0.186-0.405C17.87,7.939,16.4,8.096,15.302,8.493c0.001,0.879,1.033,1.609,1.861,1.543
		C16.999,9.948,16.884,9.78,16.884,9.582z"/>
</g>
</svg>
