<?xml version="1.0" encoding="utf-8"?>
<!-- Generator: Adobe Illustrator 16.2.1, SVG Export Plug-In . SVG Version: 6.00 Build 0)  -->
<!DOCTYPE svg PUBLIC "-//W3C//DTD SVG 1.1//EN" "http://www.w3.org/Graphics/SVG/1.1/DTD/svg11.dtd">
<svg version="1.1" id="Layer_1" xmlns="http://www.w3.org/2000/svg" xmlns:xlink="http://www.w3.org/1999/xlink" x="0px" y="0px"
	 width="96.112px" height="104.636px" viewBox="0 0 96.112 104.636" enable-background="new 0 0 96.112 104.636"
	 xml:space="preserve">
<g>
	<g>
		<path fill="#010101" d="M37.711,29.05c0.433,0.112,0.95,1.566,0.151,1.521C37.897,29.758,37.399,29.814,37.711,29.05z"/>
		<path fill="#010101" d="M23.11,41.521c0.619,0.652-0.665,1.946-1.368,2.282C22.003,42.847,23.088,42.716,23.11,41.521z"/>
		<path fill="#010101" d="M17.18,49.734c0.433,0.125,0.772,0.343,0.912,0.76C17.395,50.634,17.396,50.075,17.18,49.734z"/>
		<path fill="#010101" d="M26.762,80.608c-0.193,0.365-0.196,0.92-0.457,1.217c0.066,0.225,0.195-0.061,0.457,0
			c0.039,0.444-0.345,0.467-0.306,0.912c-0.201-0.197-0.565-0.201-0.607,0.152C25.897,82.179,26.059,80.934,26.762,80.608z"/>
		<path fill="#010101" d="M96.112,83.344c-0.045,0.673-0.805-0.081-0.913,0.305C94.634,83.266,95.777,83.33,96.112,83.344z"/>
		<path fill="#010101" d="M93.679,86.083c-0.375,0.02-0.732,0.023-0.913-0.152C92.802,85.444,93.753,85.583,93.679,86.083z"/>
		<path fill="#010101" d="M88.355,85.93c0.564,0.104,0.397,0.074,1.064,0.152C89.473,86.481,88.071,86.662,88.355,85.93z"/>
		<path fill="#010101" d="M92.006,86.539c-0.522,0.067-0.853-0.061-1.217-0.151C90.846,85.887,92.093,85.982,92.006,86.539z"/>
		<path fill="#010101" d="M8.814,96.272c0.479,0.028,0.195,0.82,0.76,0.761C9.23,97.491,8.271,96.732,8.814,96.272z"/>
		<path fill="#010101" d="M36.646,54.905c0.223,0.321,1.293,1.685,0.913,2.586c2.65,0.805,3.193,5.527-0.152,5.475
			c-0.182,0.813-1.448,0.306-1.824,0.912c0.262,1.355,1.754,3.467,0.912,4.867c0.532,0.082,1.207,1.049,1.217,2.129
			c0.358,0.004,0.447-0.262,0.913-0.152c0.366-0.723,0.966-1.764,0.76-2.585c0.66,0.343,0.484-1.294,1.368-1.217
			c-0.985,3.278-1.938,6.429-2.89,10.038c1.182-1.057,1.188-2.805,2.434-3.803c1.438-1.152,3.79-1.189,5.323-2.434
			c-1.594-1.494-2.742-3.036-5.019-4.41c-0.095-2.692,0.102-3.664-0.609-5.627c-0.112-1.485,0.222-4.176,0-5.475
			c-0.537-3.162-3.315-4.893-3.193-8.518c-0.502-1.271-1.564-1.984-2.281-3.042c0.369-2.247-0.457-5.346,0.305-7.3
			c-0.029,0.124-0.153,0.152-0.152,0.304c0.591-0.177,0.041-0.397-0.152-0.608c-0.042-2.019,0.386-3.568,1.065-4.866
			c-1.936-3.618-1.002-7.629,0.151-11.712c0.988-0.532,1.421-1.62,1.521-3.042c-0.909-3.161,1.002-6.132,1.673-9.429
			c0.465-0.109,0.554,0.155,0.913,0.152c0.141-3.841,5.271-3.323,6.996-4.715C49.425,2.268,53.188,1.782,55.354,0
			c1.751,0.687,1.7,3.005,3.649,1.977c-0.147,0.456,1.295,1.247,1.978,0.913c0.312,0.549,0.454,1.27,0.913,1.673
			c0.229-0.338-0.141-1.375-0.456-1.673c1.766-0.983,3.133,0.87,3.953,1.825c0.465,0.11,0.447-0.262,0.913-0.152
			c1.497,1.938,2.652,2.018,4.106,3.649c0.805-0.267,1.577-0.059,1.521-0.608c0.832-0.149,1.227,1.162,0.608,1.521
			c0.489,0.176,1.044,1.079,0.761,1.521c2.274,3.353,3.229,7.98,3.498,13.08c-0.307,0.806-0.136,3.78-0.456,6.083
			c-0.782,0.021-0.467-1.055-1.064-1.216c-0.202,0.162,0.162,1.045,0.608,1.064c0.014,0.568,0.171,0.434,0,0.913
			c2.571,2.002,2.922,5.919,0.913,8.973c0.284,0.29,0.016,0.382,0,0.759c-2.322,2.038-3.923,4.797-5.78,7.301
			c-1.483,5.249-1.685,11.21-2.585,14.144c0.149,0.205,0.405,0.305,0.608,0.457c0.133,0.488-0.395,0.314-0.456,0.607
			c0.038,0.315,0.667,0.042,0.76,0.304c1.246,2.893,2.817,4.589,4.41,6.997c1.49,1.478,3.876,3.119,6.083,3.346
			c1.327,0.938,6.536,2.031,7.301,3.498c1.617-0.185,3.195,1.764,4.41,1.977c0.479,0.882,2.558,1.396,3.194,1.826
			c0,0.304,0,0.607,0,0.912c-0.284,0.122-0.557,0.254-0.912,0.305c0.657,0.859,0.771,0.567,0.456,1.672
			c-0.688-0.123-1.087-0.533-1.825-0.607c-0.188,0.066-0.312,0.193-0.305,0.456c0.222,0.659,0.341-0.161,0.913,0
			c-0.046,0.401,0.211,0.499,0.608,0.455c-0.094,0.524-2.636,0.946-2.13,0.152c-0.963-0.13-0.521,0.354-0.76,0.761
			c-0.537,0.027-0.833-0.645-1.217-0.305c0.053,0.619,0.399-0.007,0.76,0.305c-0.168,0.556-1.152,0.531-1.672,0.304
			c0.021-0.377,0.028-0.737-0.305-0.761c-0.339,0.065-0.062,0.75-0.151,1.064c-0.446,0.203-0.748-0.003-1.065-0.304
			c-0.504,0.054-0.238,0.876-0.304,1.368c-0.472,0.016-0.727-0.186-1.065-0.304c-0.408,0.462,0.202,1.003-0.304,1.368
			c-1.112-0.482-1.316,0.656-2.586,0.457c-0.062-0.367,0.279-0.331,0.153-0.761c-0.665-0.106-0.677,0.438-1.218,0.456
			c0.168,0.46,0.288,1.539,0,1.977c-0.501-0.086-0.836-0.877-0.608-1.217c-0.216,0.014-0.43,0.025-0.456-0.152
			c-0.549,0.109-0.159,1.158-0.456,1.521c-0.366-0.383-0.568-0.312-0.761,0.152c-0.814-0.099-0.48-1.344-1.063-1.674
			c-0.492,0.767-0.262,1.621-0.152,2.586c-0.516-0.143-0.941-0.377-0.912-1.064c-0.394,0.461-0.565,0.155-1.064,0
			c-0.217,0.676,0.064,1.076,0,2.129c-0.97-0.305-0.673-0.941-0.76-2.129c-0.478-0.075-0.403,0.523-0.761,0.152
			c0.388,0.283-0.339,0.732,0.456,0.607c0.027,0.737-0.121,1.299-0.305,1.826c-0.651-0.108-0.643-0.879-0.608-1.674
			c-0.111-0.143-0.276-0.23-0.456-0.305c-0.229,1.155-0.898,2.564-0.76,3.5c-0.468,0.105-0.292,0.105-0.76,0
			c0.01-0.599-0.23-0.841,0-1.219c-0.55-0.021-0.444-1.704-1.218-1.976c-0.434,0.202-0.213,0.596-0.304,1.368
			c-0.202,0-0.405,0-0.608,0c-0.061,0.363,0.692-0.084,0.456,0.457c-0.217-0.014-0.431-0.025-0.456,0.15
			c-0.228-0.328-0.199-0.915-0.913-0.76c-0.395,0.129,0.293,0.668-0.151,0.912c-0.312-0.041-0.305-0.405-0.456-0.607
			c-0.757,0.363-0.341,1.046-1.369,1.217c-0.128-0.177-0.2-0.408-0.151-0.761c-0.382-0.026-0.369,0.341-0.608,0.457
			c-0.472-0.53,0.297-1.476-0.913-1.674c0.044,0.726,0.688,0.802,0.152,1.368c0.095,0.311,0.769,0.043,0.608,0.609
			c-0.165,0.037-0.104,0.303-0.305,0.304c-0.573-0.302-1.205-0.964-1.216-1.368c-0.429-0.022-0.438,0.373-0.456,0.761
			c0.104,0.04,0.966,0.175,0.456,0.761c-0.568-0.662-1.407-0.292-1.673,0.607c-0.488,0.133-0.316-0.395-0.609-0.457
			c-0.582,0.584-0.992,1.34-1.824,1.674c-0.224-0.156-0.169-1.244,0.151-1.674c-0.101-0.455-0.324,0.146-0.607,0
			c-0.293,0.016,0.235,0.567-0.152,0.761c-0.966-0.302-2.012-0.523-2.281-1.521c-0.27,0.002,0.242,0.717-0.152,0.912
			c-0.564-0.018-0.383-0.221-0.305-0.607c-0.629-0.123-0.462,0.553-1.063,0.455c0.196-0.602-0.501-0.311-0.305-0.911
			c-0.676,0.603,0.58,1.139,0.152,1.521c-0.52-0.752-0.316,0.479-1.217,0.456c0.064-0.29,0.435-0.275,0.305-0.761
			c-0.642,0.424-0.889,1.242-1.521,1.674c-0.029-0.756,0.281-1.891-0.152-2.282c-0.225,0.13-0.326,0.383-0.304,0.761
			c-1.441,0.123-1.328,1.596-1.673,1.672c-3.186,0.717-0.083-4.49,0-5.779c1.044-1.91,2.443-4.744,3.498-7.147
			c0.199-0.183,0.239-0.058,0.456,0c-0.028-1.099,0.873-2.343-0.153-3.497c0.582-0.289,1.009,0.244,0.913,1.064
			c2.564-4.381,5.543-9.159,8.213-12.928c0.2-0.307,0.5-0.516,0.912-0.608c0.729-1.655,1.922-2.845,2.738-4.411
			c-3.188-0.391-6.635,1.479-10.037,2.281c-1.423,0.336-2.39,0.721-3.649,1.217c-1.012,0.398-3.278,1.361-2.891,0.913
			c-0.968,1.179-3.499,1.924-4.714,3.345c3.455,2.754,7.442,4.09,8.821,8.973c-1.594-0.992-1.809-3.361-3.955-3.801
			c0.049-0.354-0.024-0.584-0.151-0.761c-1.824,1.218-3.347,3.548-5.171,4.259c-0.076,0.178-0.025,0.982-0.76,0.912
			c0.036,0.268,0.262,0.346,0.608,0.305c-0.617,1.346,0.032,3.787,0.304,5.627c0.044,0.291-0.2,0.653-0.151,0.912
			c0.217,1.167,0.715,2.112,0.76,3.194c0.092,2.22-0.293,4.536-0.152,6.844c-0.994,0.235-1.093-0.427-1.521-0.76
			c-0.593,0.409,0.472,0.427,0.304,0.912c-0.403-0.001-0.868,0.058-1.063-0.151c-0.176,0.18-0.173,0.537-0.152,0.912
			c-1.026-0.038-1.746-0.383-2.434-0.76c-0.088,0.308-1.369,1.02-1.063,0.305c-0.362,0.195-0.726,0.39-1.064,0.607
			c-0.415-0.14,0.212-0.476,0-0.912c-0.054,0.91-1.285,0.642-1.369,1.521c-0.512-0.137-0.018-0.339-0.305-0.608
			c-0.144,0.715-1.371-0.515-1.521-1.217c-0.507,0-0.52,0.496-1.064,0.457c-0.12-0.534-0.428-0.501,0-0.914
			c0.353,0.043,0.35,0.407,0.152,0.609c0.743-0.18,0.744-0.987,0.152-1.217c-0.54-0.033-0.301,0.713-0.913,0.607
			c-0.211-0.093-0.023-0.585-0.304-0.607c-0.666,0.376-0.207,0.929-0.305,1.825c-1.797-3.4,1.727-9.251,3.193-12.774
			c0.736,0.229,0.119,0.031,0.305-0.457c0.382-1.002,2.103-2.435,1.825-3.498c0.228-0.045,0.272-0.203,0.608-0.456
			c-0.715-2.354-0.453-4.128-0.305-6.388c-1.889,2.886-3.809,5.6-4.105,8.973c0.004,0.148,0.186,0.118,0.304,0.152
			c-0.993,1.158-1.024,3.832-1.521,5.323c-0.2,0.155-0.561,0.149-0.761,0.304c0.036,0.393,0.262-0.209,0.608,0
			c-0.521,2.032-0.181,4.646-1.064,5.628c0.784,0.652-0.62,2.23,0,3.194c-0.422-0.042-0.451,1.146-0.608,1.824
			c-0.473-0.635-0.108-0.697-0.151-1.672c-0.457-0.153-0.271,0.338-0.306,0.607c-0.26-0.569-0.297-2.22,0.152-2.585
			c-0.397,0.099-0.481-0.247-1.063,0.152c-0.779-0.235-0.908-1.12-1.674-1.369c-0.175,0.473-0.105,0.582-0.304,1.218
			c-0.887-0.256-0.922,0.135-1.521,0.457c0.409,0.191,0.427,0.537,0.912,0.303c-0.18,0.227-0.131,0.68-0.608,0.608
			c-0.606-0.05,0.164-0.418-0.608-0.151c-0.737,2.516-0.523,5.257-1.521,7.452c0.179-5.923,0.863-11.39-0.607-15.97
			c-0.284,1.016-0.423,2.471-0.152,3.346c-0.238-0.064-0.13-0.477-0.608-0.304c0-0.405,0-0.812,0-1.217
			c-0.636,0.665-0.661,2.034-1.217,1.978c0.131,1.402-0.991,4.129-1.368,5.627c0.323,0.589,1.098,0.727,1.521,1.217
			c1.137-1.6,0.857-4.617,1.825-6.388c-0.311,1.086-0.051,1.944-0.152,2.89c-0.141,1.335-1.142,2.352-1.063,3.65
			c0.078,1.306,1.662,2.98,0.76,4.258c-0.677-0.658-0.275-1.839-0.76-2.889c-1.011-0.714-2.162-1.287-3.042-2.131
			c-0.11-0.414,0.302-0.307,0.304-0.608c-0.302,0.003-0.193,0.415-0.608,0.304c-2.158-1.818-3.441-3.701-5.02-5.93
			c-0.055-0.26,0.119-0.288,0.305-0.305c-0.101-0.456-0.324,0.145-0.607,0c-1.145-1.645-2.349-3.229-3.347-5.02
			c-0.29,0.75,0.019,2.846,0.761,3.498c0.415,2.925,1.25,4.986,1.824,8.061c-0.609,0.564-0.841-0.113-0.608,0.76
			c-0.964-0.307-0.098-1.83-1.063-2.585c-0.012,0.663-1.199-0.014-2.13,0.608c0.265-0.524-0.349-1.508-1.064-1.369
			c0.024,0.179,0.277,0.129,0.456,0.152c-0.331,0.542-1.632,0.346-1.521-0.456c-0.609,0.403-2.084,0.149-1.825-0.608
			c-0.752-0.094-0.973,0.344-1.521,0.455c-0.242-0.553-0.312-1.175-0.304-1.521c-0.133-0.449-0.228,0.354-0.608,0.152
			C5,93.247,4.726,92.456,4.562,91.553c-0.478,0.031-0.412,0.603-1.064,0.457c-0.377-0.395,0.147-0.746,0-1.369
			c-0.101-0.203-0.326-0.283-0.608-0.304c-0.428,0.002,0.362,0.415-0.305,0.304C2.4,90.156,2.566,90.19,2.281,89.729
			c-0.472-0.016-0.845,0.069-1.064,0.305c-0.206-0.047-0.127-0.382-0.152-0.609C0.474,89.442,0.594,90.17,0,90.185
			c1.314-2.843,2.299-6.016,4.411-8.062c1.948,0.219,3.934-0.686,5.779-1.063c1.076-1.161,1.447-3.813,3.041-3.954
			c0.177-1.268-0.595-2.209,0.305-2.737c0.368,1.343,1.324,3.606,1.217,5.628c-0.019,0.344-0.3,0.232-0.305,0.15
			c0.028,0.427,0.69,1.316,0.305,1.674c-0.722-1.096-0.731-2.472-1.065-3.65c-1.115,0.769-0.357,2.584-0.303,3.803
			c0.006,1.037,0.168,3.364,0.303,4.714c1.997,3.633,5.018,7.048,6.996,10.19c0.541-0.465,0.573,0.553,1.065,0.608
			c-0.665-2.182,0.971-3.808,1.216-5.933c-0.554,0.508-1.271,0.969-1.825,1.826c-0.424-0.611-0.77-0.227-1.217-0.305
			c-0.131-0.123-0.09-0.416-0.304-0.455c0.47-0.799,1.399-1.137,2.13-1.674c-0.834-0.789-2.448-0.797-3.194-1.672
			c0.08-0.123,0.158-0.247,0.151-0.457c1.239-0.293,2.076,0.539,3.193,0.152c1.221-0.422,2.007-2.086,3.043-2.586
			c-0.539-0.082-0.374,0.539-0.912,0.457c0.697-0.672,1.28-1.457,1.824-2.282c-0.528,0.089-0.166-0.873,0.152-1.217
			c0.136,0.118,0.344,0.164,0.608,0.153c-0.241,0.721-0.708,1.217-0.76,2.129c2.081-0.322,1.867-4.741,1.673-6.844
			c-0.458,0.565-1.843,1.359-3.043,1.673c0.211-0.448,0.703-0.616,0.913-1.064c-0.663-0.116-0.833,0.764-1.368,0.304
			c-0.47,0.697-1.728,1.331-2.738,1.673c-0.065-0.29-0.327-0.382-0.304-0.759c1.697-0.381,2.812-1.346,4.106-2.131
			c0.429-0.023,0.381,0.432,0.607,0.609c0.907-0.312,1.319-1.114,2.282-1.369c-0.817-0.521-3.002,1.039-3.954,0.457
			c0.102-0.99,1.79-0.942,2.585-0.761c-0.12-0.638-0.592-0.471-0.304-1.217c1.291-0.668,3.529-0.532,5.628-0.913
			c1.127-0.204,2.777-0.395,3.497-0.76c1.689-0.858,1.374-3.386,1.369-4.715c-2.026,0.311-4.241-0.187-6.541,0.152
			c-2.057,0.303-3.613,1.904-5.322,2.28c-0.439-0.588,0.056-1.293,0.608-1.368c-0.286-0.495-0.855-0.029-1.369-0.457
			c0.316-0.838,1.615-0.145,2.13,0.153c2.463-1.487,5.395-1.784,8.821-1.826c0.717-0.702,1.053-2.183,0.76-3.042
			c-0.929-2.168-5.746-0.63-8.517-0.76c-0.988,0.735-2.113,1.334-3.803,1.367c0.11-0.464-0.262-0.446-0.151-0.911
			c0.354-0.05,0.628-0.183,0.913-0.305c-0.182-0.377-1.113-0.003-1.065-0.608c0.798-0.436,1.576,0.309,2.586,0.152
			c2.709-1.355,5.944-1.355,8.973-1.521c-0.403-1.025,0.54-3.102-0.608-3.649c-3.383-0.349-5.153-0.68-8.518-0.304
			c-1.233,0.193-3.015,1.623-4.105,1.977c-1.634,0.528-3.975,0.303-5.171-0.609c1.183-0.063,3.235,0.434,4.41,0
			c1.344-0.494,2.487-1.787,4.106-2.279c2.512-0.764,6.634-0.23,9.581-0.153c0.579,1.134,1.216,2.549,1.218,4.259
			c1.029-0.684,3.193-0.477,3.498-1.826c0.372-1.649-1.384-2.744-3.498-2.28c0.104-0.409-0.314-0.294-0.456-0.456
			c0.197-0.816,1.615-0.412,1.824-1.217c-0.616-1.779-1.76-1.531-3.497-2.434c-1.784,0.489-2.498,1.384-3.802,2.585
			c-0.01-0.718,0.53-0.888,0.76-1.368c-0.55-0.133-1.015,0.594-1.369,0.152c-1.108,1.52-5.204,0.242-6.996,0.607
			c0.105,0.707,0.923,0.701,0.761,1.674c-0.412-0.042-0.33-0.691-0.912-0.913c-0.15,0.409,0.623,1.197,0.456,2.13
			c-0.486-0.832-0.924-1.713-1.064-2.891c-0.772,0.85-0.762,2.483-1.369,3.5c-0.206-2.828,2.257-6.822,2.13-9.583
			c-0.549-0.042-0.348,0.666-0.608,0.913c-0.816-1.586,1.337-3.344,2.13-3.802c-0.077-1.261,1.6-2.037,1.521-3.802
			c0.003-0.223-0.642-0.482,0-0.457c0.354,0.857,0.188-1.938,0.76-1.369c-0.271-0.826-0.066-1.285-0.607-2.282
			c-1.175-0.274-1.565-0.619-2.586-0.151c-1.071,3.694-4.026,5.504-5.628,8.669c0.394,0.773,1.058,1.274,1.673,1.825
			c-0.643,0.483-1.217-0.4-1.521-0.76c-0.952,2.346-0.515,4.56-1.368,6.995c-1.026-0.164-0.81,0.914-1.825,0.761
			c0.023,0.178,0.277,0.128,0.456,0.151c-0.622,0.797-1.312,1.528-1.978,2.281c-0.036,2.496,1.715,3.586,1.978,5.628
			c0.18,1.402-0.806,2.835-0.456,4.411c0.415,0.395,0.809,0.812,1.673,0.76c0.646,0.76,1.387,1.424,1.977,2.434
			c-1.017,1.375-0.756,3.613-0.912,4.715c0.498-0.125,1.421,0.154,1.673,1.064c-1.666-0.728-2.967-1.705-3.802-2.89
			c0.147,0.005,0.117,0.186,0.151,0.304c0.336-0.019,0.064-0.645,0.152-0.912c0.662,0.206,0.55-0.361,0.913-0.456
			c0.532-2.212-0.08-3.263-1.978-4.258c-0.941,0.58-0.412,3.542-0.456,4.104c-0.944-0.566-0.204-3.322-0.608-5.17
			c-0.173-0.184-0.434-0.275-0.305-0.76c0.55-1.328,1.109-2.773,0.608-4.106c-0.125-0.546,0.343-0.735,0-1.064
			c-0.042-0.319-0.406,0.22-0.608-0.152c0.176-2.001-1.107-2.542-0.912-4.562c0.966-0.82,1.895-2.45,2.89-2.737
			c-0.118-0.135-0.164-0.344-0.152-0.608c2.126-1.408,1.475-4.085,1.824-6.388c0.609-3.998,5.126-5.326,5.932-9.581
			c1.972-1.815,3.71,0.236,4.411,2.129c-0.923,2.22-0.821,5.464-2.889,6.539c-1.447,1.42-0.907,5.56-2.282,7.757
			c0.152,0.201,0.25,0.459,0.456,0.607c0.084-0.233,0.508-0.892,0.304-0.912c3.223,0.687,8.084,0.844,11.103-1.368
			C34.623,53.685,35.703,54.883,36.646,54.905z M52.919,4.109c-0.098-0.46-0.418-0.698-1.064-0.609
			C51.966,3.947,52.329,4.141,52.919,4.109z M50.183,4.26c0.802-0.094,0.98,0.09,1.368-0.304C50.998,3.962,50.35,3.871,50.183,4.26z
			 M48.813,4.564c0.253-0.019,0.968,0.493,0.912-0.152C49.588,4.045,48.867,4.348,48.813,4.564z M46.836,4.716
			c0.019,0.387,0.222,0.59,0.608,0.609c0.189-0.317,0.596-0.417,0.76-0.76C47.616,4.483,47.463,4.835,46.836,4.716z M45.924,5.934
			c-0.05-0.356-0.183-0.629-0.304-0.913c-0.305,0-0.608,0-0.914,0C44.954,5.557,45.212,5.632,45.924,5.934z M42.578,5.781
			c0.315,0.089,0.491,0.32,0.76,0.457c0.258-0.299,0.707-0.408,1.217-0.457C44.372,5.056,42.848,5.296,42.578,5.781z M39.688,8.519
			c0.085,0.219,0.237,0.371,0.456,0.456c0.396-0.821,0.808-1.624,1.064-2.585c0.688,0.034,1.416,0.679,1.521-0.304
			c-0.756-0.489-1.668-0.151-2.434,0.152c0.33,0.611,0.158,0.885,0.305,1.521C40.385,8.101,39.784,8.057,39.688,8.519z
			 M39.536,10.04c0.317-0.395,0.171-1.297-0.456-1.218C39.006,9.455,39.358,9.66,39.536,10.04z M59.003,10.344
			c-0.751-0.676-3.26,0.319-3.953-0.609c-0.599,1.128-2.331-0.119-3.195,0.152c-0.537,0.454-2.419,1.059-3.193,1.065
			c-1.333,0.01-1.845-1.182-3.042-1.217c-0.746-0.021-2.525,0.702-3.041,1.065c-0.548,0.385-1.399,1.714-1.825,2.434
			c-1.201,2.023-2.222,4.744-3.043,6.235c0.778-1.024,4.143-2.487,5.02-1.369c1.253-0.187,2.354,1.092,3.042,1.977
			c-1.221,1.836-2-0.763-3.498-0.759c-1.139,0.991-2.596,1.663-4.106,2.28c-1.319,1.115-0.55,2.857-1.521,3.954
			c-0.026-0.43,0.13-1.043-0.305-1.064c-0.219,2.628,0.35,4.714-0.152,6.843c-0.237,1.007-0.925,1.833-1.063,2.889
			c-0.54,4.078,1.481,7.514,1.824,11.103c0.156,1.642,1.065,4.586,2.281,6.388c-0.14-4.947-3.581-8.295-2.89-13.08
			c0.466,1.656,1.416,5.406,1.521,5.627c0.319,0.676,0.892,0.865,1.064,1.369c0.23,0.67,0.259,1.562,0.456,2.281
			c0.493,1.788,0.341,4.115,1.673,6.084c-0.917,0.942,2.12,1.947,1.369,2.737c0.571-0.267,0.832,0.441,1.369,0.608
			c2.103,0.657,7.041,0.246,8.364-1.521c0.487-0.651,0.237-2.075,1.217-1.978c-0.152,0-0.305,0-0.456,0
			c0.779-1.552,1.313-3.35,2.13-4.866c0.673,1.12,0.126,1.461,0.607,3.042c0.966-3.932,1.6-6.407,1.521-11.102
			c1.062,0.053,0.52,1.711,1.217,2.129c-0.54-0.97,0.944-1.431,0.456-2.282c-0.017,0.122-0.502,0.461-0.456,0.152
			c0.301-0.781-0.897-0.812-0.305-2.282c0.864,0.067,0.973-0.961,1.064-1.217c2.31-0.479,2.599-2.978,3.954-4.41
			c0.2-0.195,0.561-0.195,0.761,0c0.689-0.968,0.265-2.437,0.455-3.65c-0.303-0.501-0.648,0.377-0.76,0
			c0.667-1.407-0.265-3.9-1.064-4.257c0.362,0.044-0.169,0.411-0.305,0.456c-1.068-0.667-0.613-1.687-0.912-2.585
			c-1.012-2.277-4.99-2.075-8.061-2.89c-0.438,0.221-0.902,0.416-1.216,0.76c0.82,1.728-2.068,3.175-0.761,5.476
			c0.876-0.441,1.365-1.271,2.13-1.825c0.488-0.094,0.207,0.548,0.607,0.152c0.595,0.004,0.027-0.765,0.305-0.76
			c2.729-0.964,5.365,0.261,6.387,2.281c-0.526,0.122-0.584-0.227-1.063-0.152c0.096,0.564,0.105,1.213,0.608,1.369
			c-0.153-0.457,0.339-0.27,0.608-0.304c0.051,0.507,0.44,0.675,0.304,1.368c-1.171,0.654-2.047,1.603-3.346,2.13
			c-0.914-0.821,0.104-1.829,0.152-2.282c-1.823,0.167-3.503,0.527-4.866-0.456c1.085,0.172,1.21,0.303,2.281,0.152
			c-1.131-1.983,3.235-3.179,3.042-0.305c0.507,0.257,0.519-0.096,1.063-0.151c-0.515-2.002-2.227-1.896-4.715-1.825
			c-0.776,0.291-1.479,1.457-2.28,1.217c1.564-2.366,4.677-2.077,7.147-1.369c-0.892-1.069-2.988-1.457-4.716-1.216
			c-0.797,0.52-1.142,1.494-2.433,1.52c-0.149,0.562-0.8,0.62-0.912,1.217c0.36,1.09,1.82,2.432,0.759,3.194
			c-0.842-1.211-1.235-1.061-1.977-2.281c0.118-0.034,0.3-0.004,0.305-0.152c-0.378,0.016-0.471,0.286-0.761,0
			c-0.174,0.788-0.166,1.76-0.456,2.433c0.429-0.021,0.439,0.372,0.456,0.761c-0.943,0.832-1.987,2.37-3.497,2.129
			c0.231-1.036,1.226-1.308,1.824-1.977c-1.799-3.162,0.254-8.57,3.498-10.19c-0.739-0.093-0.781-0.093-1.521,0
			c0.185-0.598-0.209-1.326,0.608-1.521c0.206-0.025,0.304,0.774,0.456,0.305c0.006-1.516,2.621-1.736,4.106-2.281
			c-0.057,0.461,0.495,0.315,0.76,0.456c1.956-0.103,3.242,0.561,4.259,1.825c0.209,0.006,0.334-0.072,0.456-0.152
			c-0.073,0.329,1.402,2.782,1.521,2.129c0.266,0.578,0.164,0.577,0.304,1.217c0.602,0.13,0.603,0.703,1.369,0.456
			c0.287,0.372,0.582,0.737,0.761,1.217c0.802-0.009,1.044-0.577,1.673-0.76c-0.211-1.731-1.607-3.365-1.217-5.779
			c0.317,0.001,0.571,0.828,0.76,0.457c-0.702-0.643-0.168-1.151-0.76-1.521c0.569,0.476,0.705-0.298,0.608-0.457
			c-0.444,0.185-1.038-0.782-1.369-1.216c0.267-0.042,0.759,0.428,0.913,0c-0.944-0.197-1.934-1.073-1.977-1.673
			c0.301-0.078,0.347,0.839,0.607,0.304c-0.751-1.035-2.328-1.845-2.738-2.737C60.555,11.183,58.916,11.136,59.003,10.344z
			 M36.19,20.533c0.371-0.084,0.556-0.357,0.76-0.608C36.454,19.885,36.219,20.105,36.19,20.533z M65.087,24.792
			c-0.126,0.431,0.214,0.395,0.151,0.76c0.619-0.146,1.392-0.934,1.217-1.369C66.127,24.515,65.725,24.771,65.087,24.792z
			 M66.15,50.799c0.655-0.109,0.819-1.508,0.761-1.825C66.575,49.5,66.487,50.273,66.15,50.799z M56.113,56.122
			c0.375-0.122,1.23-0.719,0.608-0.912C56.749,55.743,56.208,55.709,56.113,56.122z M41.513,57.035
			c-0.418,0.407-0.569-0.741-0.911-0.913c-0.428,0.628,0.312,2.139,0.151,3.346c-0.023,0.168-0.319,0.173-0.305,0.305
			c0.061,0.56,0.693,1.741,0.761,2.434c0.062,0.65-0.317,0.606,0.151,0.152c-0.409,1.157,0.565,2.277-0.151,3.346
			c1.37,1.582,3.677,2.996,4.714,4.41c0.149-0.467,0.405,0.175,0.608,0.152c0.963-1.016,2.129-1.826,3.347-2.586
			c0.02-0.729-0.84-0.579-0.761-1.369c-1.969-0.443-2.127-2.903-3.802-3.345c0.426-0.149-0.221-0.405,0.151-0.608
			c-0.729,0.313-0.707-0.9-1.216-0.305c0.2,0.367,0.145,0.588,0.607,1.218c0.005,0.613-0.043,1.173-0.456,1.368
			c-0.353-1.625-0.872-3.082-1.216-4.715C42.185,59.459,41.834,57.689,41.513,57.035z M48.966,74.069
			c0.221-0.084,0.785,0.176,0.76-0.153c-0.287-0.017-0.105-0.503-0.456-0.456C49.19,73.684,49.045,73.842,48.966,74.069z
			 M46.684,74.373c0-0.254,0-0.507,0-0.761c-0.354,0.227-0.655-0.052-0.76,0.152C46.268,73.875,46.256,74.344,46.684,74.373z
			 M41.817,74.676c0-0.203,0-0.406,0-0.607C41.232,73.948,41.232,74.796,41.817,74.676z M44.099,75.132c0.203,0,0.406,0,0.607,0
			c0-0.202,0-0.405,0-0.608C44.354,74.577,43.994,74.622,44.099,75.132z M47.444,75.893c0.1-0.455,0.325,0.146,0.608,0
			c0.012-0.266-0.034-0.473-0.152-0.608C47.515,75.17,47.187,75.866,47.444,75.893z M50.183,75.893
			c0.047-0.205,0.216-0.291,0.151-0.608c-0.203,0-0.406,0-0.609,0C49.593,75.772,49.96,75.76,50.183,75.893z M42.578,76.198
			c0.034-0.119,0.128-0.178,0.304-0.152C42.886,75.147,41.841,75.891,42.578,76.198z M45.62,76.958
			c0.029-0.435,0.018-0.83-0.456-0.76C45.133,76.632,45.145,77.028,45.62,76.958z M46.836,78.022
			c0.11-0.561,0.457,0.064,0.761-0.305c-0.021-0.283-0.102-0.508-0.305-0.608C47.041,77.225,46.539,77.861,46.836,78.022z
			 M43.187,77.415c-0.023,0.377,0.078,0.63,0.303,0.76c0.033-0.172,0.17-0.237,0.306-0.305c-0.021-0.283-0.101-0.508-0.306-0.608
			C43.456,77.38,43.362,77.438,43.187,77.415z M41.969,79.391c0.157-0.4,0.241-0.992-0.456-0.913
			C41.381,79.067,41.768,79.136,41.969,79.391z M44.706,79.543c0-0.152,0-0.305,0-0.457c-0.227,0.027-0.561-0.054-0.607,0.153
			C44.337,79.303,44.229,79.717,44.706,79.543z M42.578,81.215c0.105-0.467,0.105-0.293,0-0.76
			C41.869,80.458,41.869,81.213,42.578,81.215z M12.616,86.539c-0.095-2.065-0.126-2.98-0.151-5.475
			c-0.002-0.153-0.267-0.191-0.305,0C12.099,82.567,11.976,85.004,12.616,86.539z M40.448,81.825
			c-0.046,0.4,0.317,0.392,0.608,0.455C41.172,81.745,40.659,81.6,40.448,81.825z M43.489,82.127
			c0.048,0.352-0.438,0.17-0.455,0.457c0.186,0.018,0.359,0.045,0.304,0.304c0.378,0.022,0.738,0.028,0.761-0.304
			C43.788,82.54,43.693,82.28,43.489,82.127z M82.729,83.497c0.227,0.242,0.867,0.223,0.76-0.303
			C83.218,83.277,82.856,83.271,82.729,83.497z M90.637,84.562c-0.839-1.087-1.428-1.158-2.281-1.064
			C88.74,84.566,89.927,83.913,90.637,84.562z M85.01,84.713c0.66,0.053,0.798-0.418,0.912-0.912
			C85.193,83.68,85.518,84.614,85.01,84.713z M44.251,84.562c0.397,0.043,0.653-0.056,0.607-0.456
			C44.461,84.063,44.205,84.161,44.251,84.562z M39.384,85.93c0.202,0,0.405,0,0.608,0c0.105-0.511-0.312-0.498-0.456-0.76
			C39.408,85.347,39.335,85.578,39.384,85.93z M45.315,86.083c0.354-0.053,0.712-0.099,0.608-0.609
			C45.447,85.405,45.244,85.607,45.315,86.083z M3.796,87.147c0.002-0.2,0.268-0.139,0.305-0.304
			c-0.452,0.085-0.616-0.89-0.913-0.456c0.237,0.04,0.105,0.334,0,0.456C3.603,86.732,3.494,87.145,3.796,87.147z M2.275,87.452
			c0.468,0.232,0.468-0.992,0-0.761C2.275,86.945,2.275,87.198,2.275,87.452z M37.711,87.604c-0.404-0.392,0.293-0.218,0.305-0.609
			c-0.206-0.048-0.291-0.217-0.609-0.151c0.012,0.265-0.033,0.474-0.151,0.608C37.664,87.18,37.549,88.122,37.711,87.604z
			 M41.057,88.364c0.047-0.604-0.292-0.823-0.912-0.76C40.041,88.372,40.511,88.656,41.057,88.364z M44.706,87.907
			c-0.479,0.074-0.343-0.466-0.911-0.303C43.04,88.331,44.417,88.803,44.706,87.907z M63.262,88.821
			c-0.015-0.239,0.02-0.527-0.304-0.457c-0.023,0.377-0.029,0.738,0.304,0.76c-0.082-0.219,0.593-0.371,0.152-0.455
			C63.404,88.761,63.391,88.848,63.262,88.821z M38.167,88.971c0.087,0.27-0.184,0.895,0.151,0.914
			c-0.058-0.566,0.733-0.282,0.761-0.761c-0.119-0.033-0.177-0.128-0.152-0.304C38.45,88.993,38.525,88.776,38.167,88.971z
			 M69.953,89.885c-0.003-0.453,0.014-0.928-0.456-0.914C69.5,89.425,69.482,89.899,69.953,89.885z M45.012,89.885
			c0.194,0.207,0.717,0.207,0.912,0c0-0.153,0-0.305,0-0.457C45.476,88.999,45.18,89.579,45.012,89.885z M41.817,90.341
			c0.43,0.126,0.394-0.214,0.761-0.151c0.092-0.6-0.341-0.674-0.761-0.761C41.681,89.874,41.681,89.896,41.817,90.341z
			 M36.038,90.645c0.254,0,0.507,0,0.761,0c0.025-0.381-0.234-0.477-0.456-0.607C36.34,90.338,35.927,90.23,36.038,90.645z
			 M66.15,90.645c-0.024,0.33,0.54,0.068,0.761,0.152c0.043-0.348-0.036-0.571-0.304-0.608
			C66.668,90.553,65.915,90.104,66.15,90.645z M64.783,90.341c0,0.202,0,0.405,0,0.608c0.265-0.012,0.473,0.034,0.607,0.152
			c-0.021-0.202,0.512-0.566,0.151-0.609C65.404,90.907,65.26,90.088,64.783,90.341z M43.187,91.862
			c0.604-0.027,0.751-0.183,1.216-0.609c-0.574,0.221-0.291-0.416-0.76-0.304C43.507,91.27,43.179,91.399,43.187,91.862z
			 M39.384,91.862c0.412-0.146,1.049-0.066,0.912-0.76c-0.304,0-0.607,0-0.912,0C39.384,91.355,39.384,91.608,39.384,91.862z
			 M67.52,92.471c0.032-0.185,0.169-0.095,0.305,0c-0.049-0.354,0.023-0.586,0.151-0.762c-0.285-0.121-0.558-0.254-0.912-0.304
			c0.003,0.454,0.396,0.517,0.456,0.912C67.436,92.318,67.347,92.442,67.52,92.471z M63.108,91.862
			c-0.374,0.5-0.271,1.335-0.151,1.825c0.025-0.177,0.24-0.165,0.457-0.151c-0.16-0.432,0.25-1.044,0-1.064
			C63.113,93.044,63.451,91.746,63.108,91.862z M37.406,93.079c0.136-0.27,0.618-0.194,0.456-0.761
			c-0.194-0.008-0.21-0.194-0.456-0.151C37.449,92.432,36.978,92.925,37.406,93.079z M44.706,93.536
			c0.466,0.477,1.008,0.27,1.521,0.303c0.081-0.693-0.855-1.162-1.063-1.064C45.526,92.954,44.596,93.104,44.706,93.536z
			 M41.057,93.536c0.81-0.084,1.45,0.044,1.217,0c-0.267-0.139-0.528-0.283-0.456-0.762c-0.478,0.105-0.621-0.017-0.761,0.152
			C41.449,92.962,40.848,93.188,41.057,93.536z M61.284,93.838c0.209-0.006,0.334,0.072,0.456,0.153
			c0.155-0.2,0.149-0.562,0.305-0.761c-0.228,0.003-0.622-0.565-0.761-0.152C61.809,93.19,61.386,93.536,61.284,93.838z
			 M34.974,94.143c0.484-0.09,0.47,0.285,0.76,0c0.133-0.488-0.234-0.475-0.456-0.607C35.198,93.76,35.053,93.918,34.974,94.143z
			 M39.232,95.512c0.079-0.225,0.225-0.384,0.304-0.609c-0.478-0.08-0.588-0.527-1.064-0.607
			C37.98,94.935,38.687,95.428,39.232,95.512z M43.338,95.36c0.305,0,0.609,0,0.913,0c-0.209-0.347,0.392-0.571,0-0.609
			C44.158,94.928,43.361,94.188,43.338,95.36z M11.856,96.881c0.221-0.084,0.786,0.177,0.76-0.153
			c-0.313,0.134-0.575-0.501-0.304-0.456c0.578,0.068,0.577,0.111,1.217,0.304c0.22-0.574-0.418-0.29-0.304-0.759
			c-0.939,0.084-1.185,0.393-1.978,0C11.28,96.563,11.957,96.328,11.856,96.881z M40.448,97.034c0.405,0,0.812,0,1.217,0
			c0.17-0.734-0.659-1.26-0.912-1.065C41.111,96.191,40.154,96.372,40.448,97.034z"/>
		<path fill="#010101" d="M46.531,35.438c2.459-0.669,4.562,0.553,5.628-1.825c-0.163-1.206-1.26-1.478-1.977-2.129
			c3.442,1.426,4.91,5.632,5.779,9.125c-0.879-0.236-0.676-1.555-1.065-2.281c-0.028,2.338,1.722,4.613,0.608,7.3
			c-0.366,0.062-0.33-0.278-0.76-0.153c-1.384,0.921-2.962,1.69-4.867,1.674c-0.695-0.007-2.396-0.615-2.434-0.609
			c-0.722,0.123-2.503,0.51-2.889,0.457c-1.566-0.22-1.906-2.712-3.346-2.891c-0.464,0.186,0.222,0.581-0.152,0.761
			c-1.254-0.512-0.348-3.728-0.152-4.563c0.993,0.52-0.223,2.721,0.152,3.651c0.058-0.168,0.608-0.579,0.761-0.152
			c0.139-1.661,1.423-2.557,2.585-3.346c2.634,0.835,6.612-0.712,8.974,1.368c0.007-1.707-0.906-1.217-2.435-1.521
			c-0.319-0.062-0.22-0.308-0.151-0.304c-0.8-0.058-1.499,0.369-2.13,0.152c-0.912-0.314-0.973-1.365-1.672-2.282
			c0.246,0.043,0.262-0.144,0.455-0.151c-0.693,0.389-1.102-0.788-1.672-1.369c-1.977,1.203-2.643-0.814-3.954-1.521
			c-1.214,1.27-1.462,3.8-1.978,5.78c-0.111,0.43,0.013,1.211-0.76,1.216c-0.528-3.428,1.388-5.531,2.433-8.06
			c0.518-0.092,0.998-0.22,1.218-0.609c0.227,0.287-0.452,0.962-0.609,1.369c0.567,0.447,0.874,1.154,1.674,1.368
			c0.586-0.174,1.033-0.776,1.672-0.457c-0.267-0.676-1.251-0.107-1.672,0c-0.446-0.01-0.565-0.348-0.761-0.608
			c0.127-0.533,0.606-0.711,1.064-0.913c-0.513-1.177-0.838-2.595,0-3.65c-1.408-0.241-2.551,1.098-4.258,1.065
			c0.593-1.127,2.26-1.324,3.497-1.825c0.432-0.174,1.291-0.338,1.369-0.913c-1.274,0.05-4.103,0.483-5.627,1.216
			c-0.179-0.296-0.724-1.614-0.152-1.673c-0.482-0.024-0.384-0.629-0.608-0.912c1.81-1.563,5.466-2.231,6.844,0
			c0.313-0.295,0.295-0.922,0.609-1.217c-1.186-0.77-3.481-1.145-4.868-1.217c-0.283,0.507-1.156,1.522-2.28,1.673
			c0.976-2.266,3.246-2.768,5.475-2.434c1.02-0.343-0.156-1.151,1.064-1.369c0.578,0.665,1.399,1.661,1.368,2.585
			c-0.021,0.626-0.697,0.894-0.912,1.521c-0.316,0.926-0.133,2.369-0.608,3.346c-0.308,0.631-0.969,0.938-1.217,1.369
			C43.966,33.818,45.172,34.561,46.531,35.438z M41.513,27.073c0.929-0.611,2.366-0.08,2.435,1.065
			c0.464-0.11,0.554,0.155,0.912,0.152c0.034-0.118,0.005-0.3,0.152-0.304c-1.029-1.48-2.462-2.012-4.41-1.217
			c-0.374,0.202,0.273,0.459-0.153,0.608c-0.035-0.728-0.539,0.117-0.913,0c0.204,0.667-0.455,1.257,0,1.673
			c0.131-0.14,1.014-0.119,1.368-0.456C40.518,27.354,41.779,27.357,41.513,27.073z M53.072,42.586
			c-1.483-2.065-6.144-0.787-8.061-1.217c-0.255,0.962-1.183,1.25-1.369,2.281c2.475-0.362,7.188-0.584,9.733,0.304
			C53.287,43.178,52.722,43.222,53.072,42.586z M53.832,42.89c0.304,0.507,0.354,1.268,1.217,1.217
			c0.016-1.063,0.128-2.174-0.608-2.89C54.635,42.172,54.086,42.385,53.832,42.89z"/>
		<path fill="#010101" d="M50.486,34.526c-0.693,0.422-1.733,0.497-2.89,0.455c0.382-0.796-0.376,0.033-0.456-0.76
			c-0.074-0.581,0.538-0.476,0.76-0.76c0.188,0.066,0.313,0.196,0.305,0.457c0.142-0.111,0.23-0.276,0.305-0.457
			c0.941,0.173,1.818,0.412,2.129,1.217C50.558,34.911,50.479,34.687,50.486,34.526z"/>
		<path fill="#010101" d="M21.134,34.677c0.175,0.055,0.385,0.268,0.151,0.305c-2.186,3.239-4.273,6.575-6.235,10.037
			C15.841,40.608,18.289,37.401,21.134,34.677z"/>
		<path fill="#010101" d="M52.768,49.43c-0.022,0.378,0.079,0.631,0.305,0.76c-1.146,0.154-2.736,0.236-4.411,0.457
			c-0.01-0.446-0.579-0.333-0.456-0.913c-0.689,0.273-2.385-0.088-3.042,0.609c-1.3-0.686-2.648-2.029-2.281-3.499
			c0.743,0.575,0.949,1.687,1.673,2.282c4.227,0.874,7.408,0.061,9.581-2.738c0.136,0.093,0.272,0.184,0.305,0
			c0.074,0.736-1.425,2.018-1.217,2.889C53.139,49.622,52.987,49.093,52.768,49.43z"/>
		<path fill="#010101" d="M45.315,47.453c-0.209-0.206,0.869-0.171,0.912,0.456C45.917,47.763,45.625,47.598,45.315,47.453z"/>
		<path fill="#010101" d="M49.117,13.994c0.298,0.717-3.706,1.644-4.105,0c2.008,0.499,3.392-0.292,5.322-0.304
			C50.319,14.185,49.415,14.247,49.117,13.994z"/>
		<path fill="#010101" d="M61.132,18.1c-2.563-1.452-4.577-3.428-8.213-2.889c-2.547,0.377-5.574,2.223-8.061,0.608
			c-0.458,0.006-1.302,0.409-1.672,0c1.289-1.427,2.704,0.163,4.41,0c1.535-0.146,2.891-1.208,4.562-1.368
			c2.687-0.257,4.602,0.273,6.844,1.216C59.325,16.59,60.854,16.734,61.132,18.1z"/>
		<path fill="#010101" d="M40.296,17.492c1.517-2.625,4.677,0.137,7.757-0.152c1.821-0.172,3.734-1.304,5.779-1.369
			c2.412-0.078,4.592,0.552,5.779,2.281c-1.873-0.778-3.138-1.398-5.019-1.52c-2.345-0.154-4.248,1.272-6.389,1.368
			c-1.835,0.083-3.481-0.653-5.17-1.064c-0.39,0.007-0.187-0.114-0.153-0.304C41.996,16.891,41.166,17.812,40.296,17.492z"/>
		<path fill="#010101" d="M22.198,36.046c-1.209,2.746-3.189,4.72-4.715,7.148C18.158,40.523,20.065,37.767,22.198,36.046z"/>
		<path fill="#010101" d="M14.898,40.153c-0.219,1.337-1.459,2.876-1.826,4.562c-0.024-2.729,1.677-6.181,3.803-7.755
			C16.275,37.983,15.624,39.761,14.898,40.153z"/>
	</g>
</g>
</svg>
