<?xml version="1.0" encoding="utf-8"?>
<!-- Generator: Adobe Illustrator 16.2.1, SVG Export Plug-In . SVG Version: 6.00 Build 0)  -->
<!DOCTYPE svg PUBLIC "-//W3C//DTD SVG 1.1//EN" "http://www.w3.org/Graphics/SVG/1.1/DTD/svg11.dtd">
<svg version="1.1" id="Layer_1" xmlns="http://www.w3.org/2000/svg" xmlns:xlink="http://www.w3.org/1999/xlink" x="0px" y="0px"
	 width="123.99px" height="129.745px" viewBox="0 0 123.99 129.745" enable-background="new 0 0 123.99 129.745"
	 xml:space="preserve">
<g>
	<g>
		<path fill="#010101" d="M31.496,4.474c-0.358,0-0.716,0-1.074,0c0.106-0.572-0.336-0.554,0-0.895
			C30.964,3.694,31.455,3.858,31.496,4.474z"/>
		<path fill="#010101" d="M56.729,4.832c0.588-0.741,3.732-1.057,3.578,0C59.086,4.393,57.757,4.963,56.729,4.832z"/>
		<path fill="#010101" d="M22.37,8.948c-0.265-0.981-1.75-3.567-1.433-4.474C21.562,6.086,22.441,7.284,22.37,8.948z"/>
		<path fill="#010101" d="M21.475,8.589c-0.5-1.07-1.751-3.232-1.252-4.115C20.537,5.83,21.592,7.396,21.475,8.589z"/>
		<path fill="#010101" d="M20.58,8.768c-0.399-1.332-1.579-2.833-1.432-4.116C19.572,5.886,21.085,7.781,20.58,8.768z"/>
		<path fill="#010101" d="M23.623,8.053c-0.848-0.587-1.357-2.458-1.432-3.222C22.848,5.725,23.332,6.792,23.623,8.053z"/>
		<path fill="#010101" d="M19.327,8.769c-1.035-0.652-1.974-3.251-1.79-3.937C18.269,6.009,18.723,7.465,19.327,8.769z"/>
		<path fill="#010101" d="M30.602,5.547c0.048-0.821,0.807-0.249,1.073-0.537c0,0.179,0,0.357,0,0.537
			C31.317,5.547,30.959,5.547,30.602,5.547z"/>
		<path fill="#010101" d="M24.159,8.053c-0.349-0.908-1.287-2.169-1.073-3.042C23.359,5.946,24.791,7.376,24.159,8.053z"/>
		<path fill="#010101" d="M19.864,8.589c-0.786-0.766-1.497-2.556-1.432-3.578C19.133,5.698,19.464,7.149,19.864,8.589z"/>
		<path fill="#010101" d="M18.255,8.768c-1.166-0.684-1.309-2.39-1.97-3.578C17.632,5.691,17.528,7.645,18.255,8.768z"/>
		<path fill="#010101" d="M17.359,8.948c-0.788-0.667-1.746-2.996-1.433-3.58C16.487,6.479,17.044,7.591,17.359,8.948z"/>
		<path fill="#010101" d="M16.465,9.126c-0.972-0.641-1.391-2.783-1.433-3.758C15.594,6.522,16.31,8.122,16.465,9.126z"/>
		<path fill="#010101" d="M14.675,9.484c-0.862-0.984-1.749-2.583-1.789-4.116C13.532,6.689,14.208,7.982,14.675,9.484z"/>
		<path fill="#010101" d="M32.212,5.905c-0.587,0.009-0.684,0.509-1.432,0.357C30.817,5.714,32.085,5.274,32.212,5.905z"/>
		<path fill="#010101" d="M30.602,7.516c-1.622-0.008-1.238-1.009-1.61-1.79c0.241-0.056,0.341-0.255,0.715-0.179
			C30.024,6.496,30.318,6.863,30.602,7.516z"/>
		<path fill="#010101" d="M25.232,8.41c-0.277-0.917-1.198-2.137-1.073-2.863C24.642,6.26,25.562,7.48,25.232,8.41z"/>
		<path fill="#010101" d="M13.958,9.842c-0.864-0.986-1.82-2.831-1.789-4.116C12.795,7.068,13.581,8.251,13.958,9.842z"/>
		<path fill="#010101" d="M11.274,9.842C10.898,8.56,9.292,6.76,9.843,5.726C10.161,7.067,11.762,8.873,11.274,9.842z"/>
		<path fill="#010101" d="M10.738,10.379c-0.621-1.469-2.002-3.127-1.97-4.653C9.381,7.204,10.712,8.913,10.738,10.379z"/>
		<path fill="#010101" d="M15.569,9.305c-0.748-0.729-1.371-2.25-1.432-3.399C14.745,6.908,15.307,7.958,15.569,9.305z"/>
		<path fill="#010101" d="M32.391,6.263c-0.03,0.628-0.729,0.759,0.18,0.537c-0.031,0.566-0.708,0.485-1.253,0.538
			C31.827,6.815,30.815,6.156,32.391,6.263z"/>
		<path fill="#010101" d="M9.843,10.021c-0.563-1.397-2.029-2.64-1.61-3.758C8.645,7.523,9.946,8.841,9.843,10.021z"/>
		<path fill="#010101" d="M8.769,9.484c-0.188-0.919-1.701-2.31-1.073-2.863C7.852,7.661,9.166,8.486,8.769,9.484z"/>
		<path fill="#010101" d="M69.256,10.021c-0.357-0.842,0.468-2.621,1.79-2.863C70.417,8.081,69.738,8.953,69.256,10.021z"/>
		<path fill="#010101" d="M24.517,9.842c0.672-0.135,0.391,0.683,0.896,0.716c0.106-0.319-0.525-0.743,0-0.895
			c0.757,1.675,2.591,4.583,2.505,5.906c-0.92-1.525-1.411-3.481-2.505-4.832c0.718,1.956,1.499,3.798,2.147,5.369
			C26.032,14.531,25.599,11.862,24.517,9.842z"/>
		<path fill="#010101" d="M28.991,14.674c-0.581-1.508-1.948-3.18-1.79-4.832C27.546,11.586,28.949,13.223,28.991,14.674z"/>
		<path fill="#010101" d="M23.801,13.243c-0.478-1.075-1.338-2.384-1.073-3.222c0.85,2.194,2.475,4.563,2.685,6.8
			C25.054,15.694,24.36,14.502,23.801,13.243z"/>
		<path fill="#010101" d="M23.98,10.2c1.332,1.054,1.927,3.798,2.326,5.19C25.402,13.788,24.83,11.856,23.98,10.2z"/>
		<path fill="#010101" d="M26.485,16.642c-1.526-1.603-2.325-4.383-3.042-6.263C24.831,12.43,25.468,14.535,26.485,16.642z"/>
		<path fill="#010101" d="M24.518,15.748c-0.939-1.415-2.474-4.051-2.326-5.368C22.877,12.258,23.975,13.725,24.518,15.748z"/>
		<path fill="#010101" d="M21.296,16.285c-0.754-1.812-2.135-3.948-2.326-5.727c-0.055,0.559,0.517-0.455,0.537,0.179
			C19.392,12.464,21.548,14.42,21.296,16.285z"/>
		<path fill="#010101" d="M22.191,15.926c-1.028-1.12-1.873-3.375-1.969-4.832C21.048,12.536,21.602,14.25,22.191,15.926z"/>
		<path fill="#010101" d="M20.58,16.462c-0.452-1.706-2.277-3.909-1.969-5.189C19.161,12.903,20.922,15.125,20.58,16.462z"/>
		<path fill="#010101" d="M20.043,15.926c-1.127-0.958-2.067-3.436-1.968-4.473C18.732,12.943,19.329,14.493,20.043,15.926z"/>
		<path fill="#010101" d="M18.254,16.285c-0.436-1.253-1.848-3.378-1.433-4.295C17.301,13.302,18.362,14.981,18.254,16.285z"/>
		<path fill="#010101" d="M14.675,17.18c-1.027-0.882-1.606-2.212-1.969-3.758c-0.227-0.147-1.017-1.182-0.357-1.074
			C13.233,13.849,13.998,15.47,14.675,17.18z"/>
		<path fill="#010101" d="M13.422,16.642c-0.858-0.813-1.728-2.564-1.61-3.758C12.445,14.04,12.826,15.449,13.422,16.642z"/>
		<path fill="#010101" d="M56.908,14.854c-0.963,0.008-1.067-0.842-1.969-0.895c-0.545,0.11-0.35,0.963-0.896,1.073
			c-0.097-1.344,0.103-0.665,0.538-1.789C56.001,13.106,57.279,13.759,56.908,14.854z"/>
		<path fill="#010101" d="M65.498,17.537c-0.856-0.038-0.298-1.491-1.074-1.611c-0.869,0.036-1.638-0.031-1.789-0.715
			C64.455,14.113,65.652,16.098,65.498,17.537z"/>
		<path fill="#010101" d="M37.581,16.821c-0.315-0.103-1.052,0.216-1.074-0.179c0.343-0.126-0.217-0.839-0.358-1.073
			c0.373-0.393,0.579,0.157,0.895-0.179C37.177,15.913,37.798,15.948,37.581,16.821z"/>
		<path fill="#010101" d="M27.38,16.642c0.99-0.204,2.098-0.289,3.042-0.537C29.908,16.708,27.875,17.144,27.38,16.642z"/>
		<path fill="#010101" d="M34.896,22.37c-0.219-2.253-2.245-4.522-1.968-6.085C33.512,18.172,35.283,20.695,34.896,22.37z"/>
		<path fill="#010101" d="M35.971,21.833c-1.007-1.243-2.301-4.497-2.147-5.37C34.716,18.031,35.002,19.675,35.971,21.833z"/>
		<path fill="#010101" d="M46.887,21.296c-0.906,0.288-1.926,0.46-3.042,0.537c-0.698-1.639-1.219-2.6-1.611-4.295
			c1.037,1.082,0.951,2.475,1.79,3.938c0.775-0.179,1.65-0.259,2.326-0.538c-1.034-1.939-1.334-4.669-4.116-3.937
			C45.875,15.571,45.583,19.272,46.887,21.296z"/>
		<path fill="#010101" d="M34.181,22.19c-0.595-1.643-2.286-3.997-1.969-5.369C32.592,18.469,34.047,20.433,34.181,22.19z"/>
		<path fill="#010101" d="M33.644,22.37c-1.057-1.331-2.024-3.702-2.147-5.37C32.255,18.909,32.855,20.272,33.644,22.37z"/>
		<path fill="#010101" d="M58.161,19.327c0.038-0.788-0.957-1.929-0.358-2.147C58.223,17.747,58.923,19.051,58.161,19.327z"/>
		<path fill="#010101" d="M32.569,22.011c-0.971-1.178-1.763-3.485-1.968-4.832C31.435,18.613,32.005,20.31,32.569,22.011z"/>
		<path fill="#010101" d="M22.369,17.537c0.57-0.027,0.787-0.405,1.432-0.357C23.808,17.675,22.526,17.797,22.369,17.537z"/>
		<path fill="#010101" d="M32.212,22.906c-0.828-0.513-0.628-0.944-0.895-1.969c-0.61-1.17-1.669-2.622-1.252-3.579
			C30.724,19.264,31.593,20.96,32.212,22.906z"/>
		<path fill="#010101" d="M30.78,22.547c-0.384-1.657-2.104-3.842-1.61-5.189C29.447,19.144,31.125,21.322,30.78,22.547z"/>
		<path fill="#010101" d="M55.477,18.074c-0.608-0.012-0.274,0.92-0.895,0.896c-0.184-0.839,0.294-1.019,0.536-1.433
			c1.021-0.066,1.604,0.306,1.79,1.074c-0.476,0.367-0.75,1.664-0.716,1.969c-0.711-0.125-1.982,0.311-2.148-0.358
			c0.728,0.051,0.404-0.065,0.358-0.537c0.476-0.211,1.055,0.342,1.074,0c-0.144-0.334-0.3-0.656-0.358-1.074
			c0.201-0.038,0.279-0.199,0.358-0.358c0.668-0.191,0.51,0.444,1.074,0.358C56.388,18.237,56.021,18.065,55.477,18.074z"/>
		<path fill="#010101" d="M18.79,18.253c0.154-0.436,2.45-0.608,3.043-0.537C21.006,18.082,19.985,18.254,18.79,18.253z"/>
		<path fill="#010101" d="M30.243,22.727c-0.811-1.23-2.112-3.833-1.789-5.011C28.944,19.493,29.749,20.955,30.243,22.727z"/>
		<path fill="#010101" d="M26.307,21.116c-0.262-0.994-1.142-2.313-0.895-3.221C25.864,18.963,26.608,19.757,26.307,21.116z"/>
		<path fill="#010101" d="M28.991,22.907c-1.019-1.308-1.492-3.161-2.147-4.833C27.871,19.593,28.288,20.889,28.991,22.907z"/>
		<path fill="#010101" d="M14.854,18.79c1.062-0.56,2.363-0.227,3.758-0.716C17.948,18.784,15.902,19.059,14.854,18.79z"/>
		<path fill="#010101" d="M63.887,20.4c-0.352,0.053-0.355-0.242-0.537-0.358c0.014,0.312-0.039,0.557-0.179,0.715
			c0.343,0.076,0.771,0.065,0.716,0.537c-1.027,0.423-1.646-0.132-2.685-0.179c-0.001-0.937,1.535-0.74,0.896-1.789
			c0.966-0.251,0.948,0.482,1.609,0.536c-0.283-0.992-0.843-1.193-1.788-0.715C62.203,17.252,64.995,18.846,63.887,20.4z"/>
		<path fill="#010101" d="M22.37,20.222c0.792-0.016,0.923,0.627,1.073,1.253c-0.621,0.024-0.287-0.907-0.895-0.896
			c-0.073,0.432,0.327,0.389,0.179,0.896c-0.501-0.275-0.788-0.764-1.253-1.074c0.862-0.185-0.895-1.006,0.179-1.432
			c-0.317-0.042-0.896,0.18-0.716-0.358c0.022-0.396,0.76-0.076,1.074-0.179C22.009,19.279,23.113,19.653,22.37,20.222z"/>
		<path fill="#010101" d="M60.665,20.401c-0.635-0.021-0.719-0.592-0.715-1.253c0.282-0.016,0.141-0.457,0.537-0.358
			C60.514,19.681,60.219,19.856,60.665,20.401z"/>
		<path fill="#010101" d="M37.76,20.042c-0.883,0.352-0.13,0.114,0,0.716c-1.013,0.704-1.512-0.904-2.147-1.611
			c0.231-0.246,0.777-0.176,1.253-0.178C37.285,19.604,37.199,19.684,37.76,20.042z"/>
		<path fill="#010101" d="M39.371,20.221c-0.353,0.053-0.355-0.241-0.537-0.358c-0.04,0.14-0.005,0.354-0.18,0.358
			c-0.076-0.341-0.385-0.449-0.357-0.895c0.338,0.04,0.395-0.202,0.716-0.179C39.115,19.522,39.456,19.659,39.371,20.221z"/>
		<path fill="#010101" d="M22.19,23.979c-0.757-1.331-1.936-3.192-1.789-4.832C20.911,20.74,22.118,22.542,22.19,23.979z"/>
		<path fill="#010101" d="M21.296,23.979c-0.83-1.092-2.235-3.47-1.789-4.652C20.235,20.745,20.784,22.344,21.296,23.979z"/>
		<path fill="#010101" d="M18.97,24.517c-0.78-1.4-2.235-3.927-1.969-5.189C17.703,21.011,18.625,22.475,18.97,24.517z"/>
		<path fill="#010101" d="M20.58,24.517c-0.765-1.24-2.011-3.788-1.79-4.832C19.521,21.15,20.266,23.188,20.58,24.517z"/>
		<path fill="#010101" d="M18.075,24.874c-0.412-1.796-2.005-3.362-1.79-5.189C16.697,21.454,18.46,23.465,18.075,24.874z"/>
		<path fill="#010101" d="M56.729,21.295c-0.516-0.604,0.223-1.101,0.715-1.253c-0.197,0.253,2.129-0.026,1.611,0.895
			C58.259,20.104,57.368,20.948,56.729,21.295z"/>
		<path fill="#010101" d="M20.043,24.695c-0.918-1.004-2.121-3.585-1.789-4.652C18.728,21.715,19.526,23.064,20.043,24.695z"/>
		<path fill="#010101" d="M17.359,25.411c-0.763-1.802-1.476-3.654-2.327-5.368c0.18,0,0.358,0,0.537,0
			C16.081,21.799,17.468,23.63,17.359,25.411z"/>
		<path fill="#010101" d="M16.464,24.874c-0.934-0.753-1.967-3.258-1.61-4.115C15.411,22.425,16.068,23.37,16.464,24.874z"/>
		<path fill="#010101" d="M59.234,22.011c-0.494-0.102-1.003-0.189-0.895-0.895C58.857,21.196,59.155,21.493,59.234,22.011z"/>
		<path fill="#010101" d="M57.804,21.116c-0.024,0.333-0.118,0.598-0.358,0.715c-0.043-0.255-0.295-0.301-0.358-0.536
			C57.329,21.239,57.429,21.04,57.804,21.116z"/>
		<path fill="#010101" d="M38.297,22.37c-0.686-0.286-0.212-0.286-0.896,0c0.057-0.432-0.781-0.866-0.179-1.253
			c0.286,0.132-0.04,0.875,0.537,0.715c0.04-0.337-0.202-0.394-0.179-0.715c0.179,0,0.357,0,0.536,0
			C37.975,21.737,38.385,21.804,38.297,22.37z"/>
		<path fill="#010101" d="M24.159,22.907c-0.429,0.108-0.816,0.257-1.432,0.179c0.406-0.629-0.378-0.589,0-1.074
			c0.358,0,0.715,0,1.073,0C23.351,22.782,24.139,22.233,24.159,22.907z"/>
		<path fill="#010101" d="M54.402,24.874c-0.293-0.74-0.048-1.928,0.716-2.147C54.981,23.545,54.796,24.313,54.402,24.874z"/>
		<path fill="#010101" d="M62.276,25.77c-0.414-0.534-1.227-2.047-0.895-2.506C61.923,23.782,62.597,24.97,62.276,25.77z"/>
		<path fill="#010101" d="M22.906,23.442c0.429-0.108,0.816-0.257,1.432-0.179C24.308,23.786,22.84,23.898,22.906,23.442z"/>
		<path fill="#010101" d="M24.517,24.159c-0.15,0.168-1.142,0.383-1.252,0C23.722,23.973,24.242,23.623,24.517,24.159z"/>
		<path fill="#010101" d="M35.612,34.359c0.062,0.002-0.025-0.424,0.179-0.358c1.52,0.494,3.979,1.912,5.189,2.506
			c1.339,0.658,3.061,0.636,4.116,1.789c-4.455-1.157-8.27-3.484-13.242-4.832C32.968,32.9,34.501,34.32,35.612,34.359z"/>
		<path fill="#010101" d="M108.625,40.265c-0.248-1.264-1.865-2.997-1.252-3.938C107.659,37.823,108.863,38.628,108.625,40.265z"/>
		<path fill="#010101" d="M107.91,41.338c-0.224-1.948-1.88-3.314-1.611-4.653C106.855,38.017,108.537,40.002,107.91,41.338z"/>
		<path fill="#010101" d="M58.519,45.633c-1.783-1.166-4.07-2.551-4.652-5.011c1.876,2.208,3.744,4.479,6.263,5.727
			c2.891,1.432,6.359,1.121,8.947,3.042C64.951,48.413,61.324,47.467,58.519,45.633z"/>
		<path fill="#010101" d="M110.594,47.244c-0.914-0.859-1.604-3.606-1.252-4.115C109.776,44.483,110.323,45.725,110.594,47.244z"/>
		<path fill="#010101" d="M86.436,51.001c-0.899-0.234-0.504-1.763-1.252-2.147c0.572-1.571-1.64-3.673-0.896-4.833
			C85.131,46.222,85.69,48.706,86.436,51.001z"/>
		<path fill="#010101" d="M110.058,47.959c-0.674-0.606-1.61-2.768-1.074-3.4C109.256,45.778,109.836,46.689,110.058,47.959z"/>
		<path fill="#010101" d="M81.962,46.17c0.103-0.818-0.438-0.994-0.536-1.611C82.268,44.488,82.819,46.12,81.962,46.17z"/>
		<path fill="#010101" d="M89.12,50.107c-0.987-1.733-1.998-3.75-1.969-5.369C87.706,46.157,88.725,48.006,89.12,50.107z"/>
		<path fill="#010101" d="M85.361,50.465c-0.527-0.61-0.942-1.833-1.252-2.864c-0.337-1.121-0.766-2.301-0.537-2.863
			C84.239,46.577,85,48.321,85.361,50.465z"/>
		<path fill="#010101" d="M81.962,46.707c0.639,0.137,1.229-0.554,1.431,0.179c-0.768,0.339-0.831,0.271-1.789,0.358
			c-0.087-0.812-1.017-1.721-0.537-2.506C81.403,45.356,81.494,46.22,81.962,46.707z"/>
		<path fill="#010101" d="M90.015,49.929c-1.014-1.279-1.956-3.619-1.79-5.011C88.977,46.362,89.196,48.193,90.015,49.929z"/>
		<path fill="#010101" d="M87.331,51.36c-1.035-1.182-1.297-3.792-1.79-5.37c-0.092-0.294-1.14-0.848-0.18-1.073
			C86.213,47.306,86.861,49.724,87.331,51.36z"/>
		<path fill="#010101" d="M91.446,48.854c-0.308-1.422-1.052-2.407-1.611-3.579C91.031,45.624,91.898,48.031,91.446,48.854z"/>
		<path fill="#010101" d="M92.698,45.633c0.253,0.571-1.07,0.452-1.073,0.179C91.903,45.596,92.323,45.24,92.698,45.633z"/>
		<path fill="#010101" d="M78.561,46.349c0.14-0.78,0.836-0.338,1.611-0.716C80.199,46.437,79.368,46.38,78.561,46.349z"/>
		<path fill="#010101" d="M95.741,49.391c-0.042-0.827-0.836-1.878-0.895-3.221c0.179,0,0.357,0,0.537,0
			C95.025,47.576,96.576,48.665,95.741,49.391z"/>
		<path fill="#010101" d="M95.384,50.286c-0.296-1.136-1.381-3.191-0.896-3.937C94.735,47.595,95.598,49.174,95.384,50.286z"/>
		<path fill="#010101" d="M91.983,46.707c0.508,0.03,0.349-0.604,1.074-0.358C93.136,46.803,92.122,47.062,91.983,46.707z"/>
		<path fill="#010101" d="M74.804,49.57c-1.002-0.488-1.137-1.846-1.61-2.863C74.325,47.066,74.262,48.621,74.804,49.57z"/>
		<path fill="#010101" d="M92.341,47.423c0.352-0.08,1.107-0.664,1.432-0.179C93.324,47.349,92.594,48.198,92.341,47.423z"/>
		<path fill="#010101" d="M82.141,47.78c0.258-0.397,0.838-0.473,1.432-0.537C83.661,47.88,82.521,48.207,82.141,47.78z"/>
		<path fill="#010101" d="M83.93,48.139c-0.096,0.561-0.667,0.644-1.252,0.716C82.587,48.122,83.548,47.846,83.93,48.139z"/>
		<path fill="#010101" d="M80.71,51.001c-0.268-0.866-0.672-1.596-0.896-2.506C80.509,48.82,81.132,50.155,80.71,51.001z"/>
		<path fill="#010101" d="M82.677,49.212c0.586-0.009,0.685-0.509,1.433-0.357C84.177,49.507,82.814,49.854,82.677,49.212z"/>
		<path fill="#010101" d="M80.53,48.854c1.025-0.131,1.456,1.838,0.896,2.147C81.178,50.236,80.852,49.546,80.53,48.854z"/>
		<path fill="#010101" d="M94.488,49.929c-0.561,0.084-0.505-0.45-0.716-0.717c0.241-0.055,0.342-0.254,0.716-0.178
			C94.488,49.332,94.488,49.63,94.488,49.929z"/>
		<path fill="#010101" d="M93.594,50.465c-0.148-0.448-0.49-0.703-0.536-1.253C93.636,49.124,94.021,50.142,93.594,50.465z"/>
		<path fill="#010101" d="M113.459,56.907c-1.449-1.917-1.586-4.109-2.506-6.621c0.039-0.14,0.149-0.208,0.357-0.179
			C111.831,52.569,112.765,54.618,113.459,56.907z"/>
		<path fill="#010101" d="M112.026,57.802c-1.464-1.638-1.597-4.608-2.506-6.801c0.339-0.02,0.124-0.591,0.537-0.536
			C110.212,53.196,111.136,54.765,112.026,57.802z"/>
		<path fill="#010101" d="M93.772,50.644c0.314,0.049,0.894-0.504,1.074,0C94.465,50.748,93.872,51.26,93.772,50.644z"/>
		<path fill="#010101" d="M83.752,51.181c-0.232-0.664,1.059-0.711,1.252-0.358C84.704,51.061,84.404,51.296,83.752,51.181z"/>
		<path fill="#010101" d="M92.878,55.833c-0.374-1.587-1.999-3.551-1.253-4.653C91.842,52.815,93.095,54.363,92.878,55.833z"/>
		<path fill="#010101" d="M85.004,51.36c0.006,0.542-0.627,0.445-1.074,0.537C83.978,51.385,84.735,51.113,85.004,51.36z"/>
		<path fill="#010101" d="M81.246,51.897c0.104-0.5,1.283-0.851,1.61-0.537C82.422,51.641,82.092,52.027,81.246,51.897z"/>
		<path fill="#010101" d="M83.572,52.613c-0.493,0.282-1.052,0.5-1.61,0.716c0.001-0.478-0.565-0.389-0.536-0.896
			c0.445-0.448,1.281-0.508,1.789-0.895c0.068,0.905-0.937,0.735-1.253,1.253C82.562,52.807,83.326,51.862,83.572,52.613z"/>
		<path fill="#010101" d="M111.311,58.16c-1.266-1.805-1.712-4.432-1.969-6.442C110.216,53.647,110.513,56.154,111.311,58.16z"/>
		<path fill="#010101" d="M109.699,58.698c-1.521-1.522-1.688-4.397-2.685-6.443c0.021-0.218,0.054-0.423,0.358-0.358
			C108.031,54.279,108.824,56.21,109.699,58.698z"/>
		<path fill="#010101" d="M92.52,57.623c-1.33-1.94-1.2-3.334-1.968-5.726C91.712,53.301,91.827,55.75,92.52,57.623z"/>
		<path fill="#010101" d="M90.729,58.697c-0.447-2.186-2.211-4.936-1.788-6.8C89.369,54.212,90.787,56.491,90.729,58.697z"/>
		<path fill="#010101" d="M85.72,52.255c-0.758-0.268-1.15,0.743-1.61,0.178c0.216-0.038,0.109-0.198,0-0.357
			C84.711,52.013,85.414,51.668,85.72,52.255z"/>
		<path fill="#010101" d="M91.805,58.876c-0.585-2.22-1.971-4.591-1.97-6.801C90.533,54.183,91.76,56.712,91.805,58.876z"/>
		<path fill="#010101" d="M90.015,58.338c-1.129,0.014-1.077-1.967-1.073-2.504c-0.637-0.939-1.417-2.609-1.433-3.58
			c-0.188-0.01-0.141-0.229,0.18-0.179C88.646,53.981,89.088,56.403,90.015,58.338z"/>
		<path fill="#010101" d="M88.762,58.339c-0.604-0.342-0.527-1.086-1.253-0.896c-0.157-0.574,0.591-0.244,0.537-0.715
			c-0.432-1.241-1.505-2.787-1.253-4.116C87.535,54.436,88.307,56.229,88.762,58.339z"/>
		<path fill="#010101" d="M85.898,54.938c-0.795-0.04-0.312-1.357-0.716-1.79c0.179,0,0.358,0,0.537,0
			C85.579,53.946,85.958,54.223,85.898,54.938z"/>
		<path fill="#010101" d="M83.752,53.329c-0.086,0.631-0.844,0.588-1.433,0.715c-0.047-0.583,0.557-0.517,0.716-0.895
			C83.068,53.414,83.468,53.313,83.752,53.329z"/>
		<path fill="#010101" d="M85.004,55.297c-0.226-0.61-0.248-1.422-0.537-1.969C85.209,53.334,85.518,55.163,85.004,55.297z"/>
		<path fill="#010101" d="M82.498,54.76c-0.089-0.637,1.052-0.963,1.432-0.537C83.554,54.595,83.335,54.58,82.498,54.76z"/>
		<path fill="#010101" d="M84.288,55.297c-0.856-0.304-1.356,0.776-1.61,0C83.117,54.928,84.07,54.446,84.288,55.297z"/>
		<path fill="#010101" d="M85.184,56.192c-0.086-0.801,0.536-0.896,1.252-0.895C86.408,55.986,85.439,55.732,85.184,56.192z"/>
		<path fill="#010101" d="M84.287,55.655c-0.129,0.525-0.557,0.753-1.252,0.716C83.081,55.772,84.014,55.47,84.287,55.655z"/>
		<path fill="#010101" d="M85.361,56.728c0.495-0.222,0.91-0.522,1.611-0.537C87.007,56.888,85.504,57.321,85.361,56.728z"/>
		<path fill="#010101" d="M84.825,58.518c-0.247-0.417-0.976-1.281-0.537-1.79C84.436,57.245,85.316,57.957,84.825,58.518z"/>
		<path fill="#010101" d="M83.93,59.055c0.129-0.832-0.905-1.838-0.178-2.147C83.67,57.285,84.633,58.702,83.93,59.055z"/>
		<path fill="#010101" d="M86.077,57.266c0.432,0.073,0.391-0.328,0.896-0.179C87.145,57.744,86.093,57.797,86.077,57.266z"/>
		<path fill="#010101" d="M87.331,58.518c-0.558-0.008-1.248,0.769-1.254-0.179C86.782,58.422,87.007,57.964,87.331,58.518z"/>
		<path fill="#010101" d="M87.509,59.414c-0.281,0.093-0.959,0.688-1.252,0.179C86.469,59.28,87.356,58.729,87.509,59.414z"/>
		<path fill="#010101" d="M86.078,60.129c-0.434,0.223-0.869,0.442-1.432,0.537c-0.106-0.763,0.756-0.557,1.074-0.896
			c0.009-0.109,0.026-0.212,0.178-0.178C85.891,59.838,85.982,59.984,86.078,60.129z"/>
		<path fill="#010101" d="M85.004,61.023c0.264-0.093,0.451-0.265,0.716-0.358C85.939,61.37,85.092,61.629,85.004,61.023z"/>
		<path fill="#010101" d="M88.403,62.455c-0.148-0.448-0.49-0.703-0.536-1.253C88.445,61.114,88.83,62.131,88.403,62.455z"/>
		<path fill="#010101" d="M87.331,64.065c-0.561-0.34-1.039-1.699-0.716-2.326C87.013,62.355,87.232,63.149,87.331,64.065z"/>
		<path fill="#010101" d="M95.204,66.571c-0.644-1.724-0.352-3.222,0.358-4.474C95.39,64.035,95.146,64.764,95.204,66.571z"/>
		<path fill="#010101" d="M86.436,64.423c-0.079-0.691-1.144-2.124-0.537-2.327C86.23,62.605,86.836,63.777,86.436,64.423z"/>
		<path fill="#010101" d="M96.636,66.391c0.22-1.713-0.622-1.808,0-3.042C96.504,64.307,97.583,65.793,96.636,66.391z"/>
		<path fill="#010101" d="M89.478,69.077c-0.438,1.693-1.469,3.115-2.685,4.474c0.024,1.177-1.056,2.372-1.432,3.758
			c-0.245,0.904,0.219,2.342-0.716,2.684C84.874,75.608,87.024,72.53,89.478,69.077z"/>
		<path fill="#010101" d="M73.55,79.276c-1.486-0.72-3.259-1.153-4.294-2.326C70.826,77.587,72.417,78.204,73.55,79.276z"/>
		<path fill="#010101" d="M61.739,80.887c-0.737-0.097-1.568-0.1-1.789-0.716C60.688,80.269,61.52,80.272,61.739,80.887z"/>
		<path fill="#010101" d="M59.95,81.066c-0.545,0.008-1.178,0.104-1.073-0.537C59.322,80.62,59.956,80.524,59.95,81.066z"/>
		<path fill="#010101" d="M109.879,83.034c1.182,1.563,3.21,2.278,3.937,4.295c-2.132-2.037-4.028-3.974-8.053-4.115
			C106.621,82.135,108.692,82.978,109.879,83.034z"/>
		<path fill="#010101" d="M108.983,85.002c-0.597,0-1.193,0-1.789,0c2.258-1.709,5.3,1.205,5.011,3.222
			c-0.845,0.029-1.037-0.79-1.074-1.073C110.341,87.221,109.648,85.655,108.983,85.002z"/>
		<path fill="#010101" d="M104.152,102.721c-0.411,0.152,0.524,0.93,0,1.252c-1.813-1.735-3.109-3.936-4.475-6.086
			c-1.335-2.101-2.946-4.269-3.758-6.799c0.18,0,0.358,0,0.537,0C98.789,95.198,101.307,99.124,104.152,102.721z"/>
		<path fill="#010101" d="M109.521,92.877c-0.121-0.402-0.377-1.311,0-1.61c0.503,1.329,1.138,2.637,1.61,4.114
			c0.376,1.178,1.02,2.939,0.896,3.938C111.239,97.331,110.159,94.983,109.521,92.877z"/>
		<path fill="#010101" d="M44.202,96.635c-1.102-1.385-1.446-3.049-1.789-4.832c0.073,0.305,0.23-0.037,0.536,0
			C43.556,93.391,44.762,94.847,44.202,96.635z"/>
		<path fill="#010101" d="M42.413,102.182c-0.466,0.072-0.54,0.535-1.074,0.538C41.341,102.168,42.184,101.432,42.413,102.182z"/>
		<path fill="#010101" d="M39.37,110.952c-0.454-0.054-0.882-1.736-0.179-1.789C39.259,110.12,39.244,110.053,39.37,110.952z"/>
		<path fill="#010101" d="M30.243,113.636c-1.635-1.347-3.651-2.313-4.831-4.116C27.429,110.159,29.659,111.094,30.243,113.636z"/>
		<path fill="#010101" d="M20.223,122.047c2.161,0.822,5.014,0.951,5.727,3.221c-1.064,0.077-2.368-1.031-3.758-1.432
			c-0.913-0.262-2.268,0.057-2.506-1.073C19.655,122.315,19.96,122.203,20.223,122.047z"/>
		<path fill="#010101" d="M27.739,0.356c0.615,0.638,1.008,1.498,1.611,2.148c2.189-1.079,4.634-1.131,7.694-1.79
			c0.789,1.059,0.906,2.792,2.147,3.4c2.761,5.784,7.148,11.097,9.306,16.643c-0.462,0.063,0.131,1.565-0.536,0.896
			C45.69,14.188,40.106,7.574,36.688,1.251c-2.42,0.523-4.696,0.969-7.517,1.432c0.367,0.706-0.016,2.163,0.537,2.684
			c-1.551,0.03-2.262-0.062-3.222,0.358c-0.121,1.064,1.277,2.149,0.537,2.684c-0.325-0.87-0.552-2.785-1.432-2.505
			c0.229,0.782,1.099,1.701,0.537,2.326c-0.68-1.271-0.75-2.674-1.432-3.58c-0.525,0.161-0.55,0.161-1.074,0
			C23.354,4.266,23.424,3.54,22.907,3.4C16.721,4.822,9.82,4.19,3.043,5.547c1.475,1.989,1.705,2.528,2.863,4.295
			c0.643-0.722-0.056,0.031,0,0.179c0.324,0.866,2.038,2.192,2.147,3.579c2.42,2.551,3.683,7.285,5.548,9.307
			c0.339,1.927,1.096,3.438,1.968,4.832c9.488-4.093,23.352-2.838,32.57-5.547c-1.29,1.266-3.857,1.823-6.084,2.147
			c-4.443,0.646-9.254,0.312-13.064,1.432c0.031,1.83-0.127,3.253,0.358,4.295c-1.145,1.121-2.639,1.408-3.58,3.4
			c0.509,0.03,0.351-0.605,1.074-0.358c-0.447,1.64-0.875,3.299-1.789,4.474c-0.119,0-0.238,0-0.357,0
			c-0.959-1.657,0.057-2.518,1.073-4.116c-1.741,0.107-1.618,2.081-2.685,2.863c-1.143-1.359,0.708-4.707,2.506-4.294
			c0.342-1.567,2.506-1.312,2.505-3.222c-2.578-0.154-4.438,2.126-5.726,1.611c0-0.24,0-0.478,0-0.716
			c0.389-0.263,0.562,0.239,0.178-0.537c0.888-0.604,2.161-0.821,2.863-1.61c-1.214,0.099-2.835-0.21-3.758,0.179
			c0.172,3.69,0.569,6.824,0.716,9.843c-1.188-2.564-0.859-5.528-1.074-8.232c-0.065-0.83-0.082-1.721-0.358-2.505
			c-2.088,0.332-3.569,1.194-6.442,1.61c-2.355-3.491-4.149-7.542-7.158-10.379c0.246-0.008,0.394,0.084,0.537,0.179
			C5.162,15.478,3.578,11.573,0,9.664c0.546-0.562,1.197,0.094,1.79-0.358c-0.348-0.667-0.969-1.06-1.432-1.611
			c0.364-0.556,1.228-0.085,1.968-0.537c-0.08-0.516-0.633-0.56-0.536-1.252c1.247,0.191,0.513-0.535,0.895-1.074
			c6.6-0.937,12.463-0.597,18.253-1.611C20.514,1.458,21.963,0.359,21.833,0C23.571,0.756,25.175,1.035,27.739,0.356z M23.801,3.937
			c0.206-0.215,0.453-0.069,0.18,0c1.948,0.329-1.401-5.575-2.686-2.326c-0.021,0.055,0.481,0.852,0.18,1.79
			c0.587-0.011,0.684-0.51,1.432-0.358c-0.238-0.359-0.795-0.399-1.253-0.537c0.371-0.494,0.968-0.367,0.358-1.074
			C23.568,1.816,23.077,2.468,23.801,3.937z M27.38,0.895c-0.617,0.845,1.145,1.959,0.537,3.937
			C29.982,4.389,28.156,1.343,27.38,0.895z M26.307,1.074c-0.32-0.023-0.377,0.219-0.715,0.178c0.813,0.916,0.931,2.527,1.252,3.938
			C28.154,4.29,27.016,2.257,26.307,1.074z M24.696,1.252c-0.167,0.551,0.137,3.663,1.432,3.938
			C26.364,3.804,25.854,1.819,24.696,1.252z M2.685,6.263c0.101,1.002,0.967,1.917,1.79,2.506c1.696,3.195,3.679,6.104,5.547,9.127
			C8.316,13.994,5.367,9.784,2.685,6.263z M9.664,18.074c-2.296-3.455-4.515-7.239-6.622-10.38c-0.651-0.055-1.164,0.028-1.61,0.179
			C4.271,11.178,6.896,14.697,9.664,18.074z M1.79,9.842c3.278,4.339,6.184,7.489,9.306,12.348c0.167-1.184-1.366-2.212-1.611-3.579
			C6.71,16.014,4.924,11.483,1.79,9.842z M11.453,20.042c-0.532,0.603,0.519,1.144,0.537,1.789
			C12.415,21.338,11.421,20.739,11.453,20.042z"/>
		<path fill="#010101" d="M38.298,6.263c-1.11,0.083-1.866,0.521-3.043,0.537c-0.646-1.322-1.379-2.557-1.969-3.937
			C36.202,0.878,37.404,4.173,38.298,6.263z M35.971,2.505c-0.882,0.4-1.566,0.044-2.148,0.537c0.493,1.118,1.076,2.146,1.61,3.221
			c0.916,0.141,1.301-0.25,2.148-0.179C37.4,4.534,36.486,3.718,35.971,2.505z"/>
		<path fill="#010101" d="M37.223,11.811c1.744,2.783,3.679,5.51,5.011,8.59c0.015-0.21,0.409,1.385,0.537,2.147
			C39.643,15.319,35.41,10.223,32.033,3.4C34.252,5.849,35.465,9.007,37.223,11.811z"/>
		<path fill="#010101" d="M55.296,5.368c1.048,0.742,1.574,2.006,2.505,2.864c-0.64-1.805-1.6-3.291-3.221-4.116
			c2.29-0.382,2.698,3.434,4.295,3.758c-0.153,0.282,0.639,1.144,0.537,1.969c-0.575,0.157-0.371-0.464-0.716-0.537
			c-0.231,0.477-1.004,0.133-1.074,0.358c0.453,1.694,2.938,1.358,4.296,2.147c-3.039,0.339-5.052-1.695-6.801-3.222
			c-1.499,1.238-1.246,3.707-1.968,5.37c0.519,3.031,0.157,4.104-0.18,6.084c-0.212,1.246-0.666,2.93-0.536,4.116
			c0.322,2.97,2.819,4.512,4.115,7.158c0.087-0.319,0.19,0.077,0.358,0.179c5.705,0.335,8.962-1.751,11.453-5.011
			c0.69,0.026,0.827,0.604,1.61,0.537c0.276-1.006,1.341-2.946,1.79-3.759c0.414,0.719-0.447,1.221,0,1.79
			c0.186-1.046,0.619-0.819,0.536-1.968c-1.101-0.779-1.23,0.738-1.968,0.894c0.786,0.593-0.094,1.703-0.538,2.148
			c-0.786,0.009-1.079-1.336-0.536-1.611c-0.278,0.44,0.607,0.525,0.536,0.178c0.101-0.816-0.674-0.757-0.536-1.61
			c0.839-0.545,2.317-0.536,3.042-0.715c-1.122-0.721-2.293,0.283-3.222,0c0.384-0.333,0.954-0.479,1.611-0.538
			c-0.744-1.95,0.982-3.275,0.895-5.547c-0.639-0.138-1.09-0.462-1.432-0.896c0.708,0.009,1.038,0.394,1.611,0.537
			c0.084-0.571,0.353-0.959,0.895-1.073c0.307-2.757-0.859-3.711-1.61-5.728c1.905,0.369,2.564,3.97,2.505,5.906
			c-0.181,0.356-0.665,0.409-0.895,0.716c-0.117,2.414-0.819,4.008-1.789,5.906c0.766,0.008,1.357,0.192,1.789,0.537
			c0.349,2.08-0.954,3.458-1.253,4.294c5.559,0.251,12.577,0.01,15.39,3.938c-2.776-1.466-6.321-2.885-10.736-3.222
			c-1.75-0.133-4.174,0.11-5.01-0.537c-0.155,0.405-1.003,0.588-0.538,1.074c0.895-1.098,0.834,2.395,2.147,1.432
			c-0.18-0.357-0.791-0.282-0.716-0.895c2.256,0.608,3.113,2.614,4.296,4.295c1.03-1.096,5.616-1.137,6.8,0
			c0.519-0.973,0.411-2.571,1.252-3.222c0.689,0.535-0.067,0.523-0.178,0.896c-0.876,2.917-0.892,7.334,0.357,10.737
			c-0.109-2.827,0.256-4.087,0.358-6.8c1.307-1.363,2.206-3.359,3.578-3.758c0.333,1.752-0.311,4.277-1.432,6.084
			c-0.248-1.592,0.899-3.066,1.074-5.011c-0.968,1.095-2.184,1.524-2.685,2.863c-0.302,0.811,0.078,1.6,0,2.506
			c-0.101,1.165-0.613,2.172-0.357,3.4c0.016,0.083,1.039,0.766,0.179,0.537c0.1,0,0.203-0.144,0-0.179
			c-0.256,0.239-0.256,1.014,0,1.252c-0.422-0.003-0.527,0.308-1.074,0.179c-0.895-2.915-0.896-6.154-1.432-8.053
			c0.139,0.409,0.375-0.558,0.357-0.895c-2.088-0.502-4.303-0.437-6.621,0.179c0.057,0.42,0.283,0.671,0.179,1.252
			c-0.507-0.029-0.745-0.327-1.253-0.357c0.336,0.341,0.021,0.449,0,0.896c0.578,0.341,0.616,0.295,1.253,0.715
			c-0.642,2.581-2.846,2.943-3.399,4.474c-0.315,0.018-0.372-0.354-0.896-0.538c0.486,0.598-0.958,0.657-0.716,1.074
			c-2.152-0.184-4.122,0.817-6.263,0.357c-0.088,0.212-0.191,0.406-0.358,0.538c-2.82-1.128-7.466,0.016-9.127-2.864
			c0.448-0.236,0.561,0.707,0.717,0.179c-0.03-0.268,0.064-0.66-0.18-0.716c-0.66,0.353-1.112,0.916-2.147,0.895
			c-0.248-0.289-0.151-0.922-0.536-1.074c0.17,0.645-0.773,0.317-0.896,0.179c0.471-0.829,1.136-1.42,1.074-2.326
			c-2.239-1.174-4.382-4.452-3.58-6.979c-1.095,0.133-2.196,1.095-3.221,0.715c0.016,0.416-1.404,1.389-2.147,1.074
			c1.383-2.68,5.878-2.438,8.054-3.4c-0.745-1.427-1.425-2.682-0.896-4.652c-0.416-0.122-0.617-0.458-0.895-0.716
			c0.267-1.33-0.733-3.196,0.358-4.115c0.7-0.178,1.039,0.396,1.432,0c-0.341-1.511,0.053-4.786,0.357-7.159
			c-0.732-1.088-1.61-2.47-1.252-4.115c0.352-0.054,0.354,0.241,0.536,0.357c-0.026-0.444,0.093-0.743,0.358-0.896
			c0.249,0.11,0.027,0.689,0.357,0.716c0.847-1.033,1.562,1.025,2.327,1.253c-0.793-0.995-1.126-2.453-2.505-2.862
			c1.185-0.372,1.816,1.256,2.863,1.609C55.976,6.175,54.425,5.791,55.296,5.368z M51.54,18.432
			c0.341,0.255,0.776,0.416,1.252,0.537C52.568,18.592,51.878,18.146,51.54,18.432z M52.076,19.327c-0.16,0.109-0.321,0.216-0.357,0
			c-0.4,0.076-0.073,0.881-0.179,1.252C51.795,20.238,51.956,19.803,52.076,19.327z M51.896,20.758
			c-0.649-0.117-0.104,1.165,0,1.432C52.864,21.99,51.713,21.315,51.896,20.758z M59.054,32.21c-1.268,0.135-2.066-0.2-3.042-0.357
			c-0.003,0.315-0.465,1.057-0.537,0.716c0.062,1.273-0.862,2.737-1.253,4.116c0.812,0.484,1.539-0.829,2.148-1.074
			c0.19-0.076,0.621,0.129,0.537,0.179c0.323-0.192,0.635-1.065,1.073-1.074c1.468-0.028,1.907,2.076,3.043,3.222
			c-0.834,0.354-1.036-1.305-1.79-1.611c-0.936,0.258-1.479,0.907-2.147,1.432c2.831,2.054,8.149,1.903,12.169,0.895
			c-1.238-1.267-3.547-1.463-4.295-3.221c2.302-0.17,5.336,2.414,7.517,3.58c0.282-3.515-0.792-7.341-1.61-10.917
			c-0.346,1.57,0.915,3.891,0.179,6.621c-0.72-0.188,0.022-0.727-0.179-1.432c-1.252-0.24-0.082-4.542-0.716-5.726
			c-0.439,4.039-3.634,4.847-6.085,7.158c-0.155,2.202,0.412,2.656,0,4.295c-0.293-1.222-1.014-4.271,0-5.19
			c0.5-0.452,1.554-0.573,1.969-1.073c0.206-0.248,0.229-0.592,0.896-1.074c1.516-1.099,2.095-1.76,2.146-3.937
			c-0.237-0.179-0.665-0.17-0.715-0.537c-2.171,2.29-4.405,5.316-7.517,6.084c0.298,1.79,2.521,3.486,1.61,4.832
			C60.899,36.306,60.028,33.655,59.054,32.21z M73.371,30.779c-0.492,0.083-0.771-0.976-1.61-1.074
			c0.317,2.549,1.319,4.223,0.895,6.622c0.076,0.35,0.512-0.292,0.358,0.537C76.006,36.052,74.209,31.974,73.371,30.779z
			 M56.908,38.653c0.42,0.37-0.354,0.908,0.536,0.896C57.424,39.093,57.411,38.628,56.908,38.653z"/>
		<path fill="#010101" d="M67.646,6.8c-0.449,0.548-1.106-0.816-1.433-0.357c0.358,0.238,0.399,0.794,0.537,1.252
			c-1.099-0.042-2.14-0.24-3.221,0.179c0.106-0.883-0.466-1.086-0.359-1.968c1.199-0.441,1.607,0.39,2.686,0.178
			c-0.636-0.678-2.598-0.979-3.758-0.536c0.027,0.964,0.12,0.75,0.178,1.61c-0.415,0.301-0.762,0.669-1.432,0.716
			c-0.357-0.771-0.339-2.483-1.073-2.326C61.742,3.851,67.204,3.854,67.646,6.8z"/>
		<path fill="#010101" d="M68.004,8.589c0.227-2.032,0.241-3.198,1.609-4.115c-0.481,0.898-1.042,2.325-0.894,2.863
			c0.786-0.764,0.804-2.298,2.326-2.326c-0.828,1.141-2.037,1.9-2.148,3.758c-0.644,0.272-1.062,0.375-0.716,1.252
			c-0.352,0.054-0.354-0.242-0.536-0.358c0,0.238,0,0.477,0,0.716c-0.55-0.328-0.805,0.161-1.253-0.179
			c0.015,1.03-0.319-0.189-1.073,0.358c-0.216-0.56-0.664-0.888-0.537-1.79c0.898,0.459,1.647-0.589,2.147,0.357
			c0.09-0.562-0.422-0.731,0.179-0.894c0.259,0.278,0.239,0.834,0.537,1.073C67.709,8.393,67.264,8.002,68.004,8.589z"/>
		<path fill="#010101" d="M32.57,7.874c1.538,0.253,2.859,5.015,3.937,6.442c-1.976,0.493-3.389,0.628-5.548,1.074
			c-0.18-2.039-2.427-3.881-2.147-5.19c1.223,1.558,1.296,2.833,2.685,4.653c1.342,0.181,2.855-0.62,4.295-0.895
			c-0.869-1.994-1.805-3.921-2.862-5.727c-1.569,0.221-2.967,0.611-4.653,0.716C29.641,8.46,31.251,7.656,32.57,7.874z"/>
		<path fill="#010101" d="M13.063,11.095c1.495-0.288,3.977-0.767,4.116-1.252c0.151-0.529,0.668,0.381,0.537,0.358
			c1.057,0.183,2.247-0.625,3.579-0.895c1.576-0.318,3.471-0.407,5.369-0.537C22.121,9.414,17.563,11.001,13.063,11.095z"/>
		<path fill="#010101" d="M26.307,9.842c0.74,1.646,1.535,3.236,2.147,5.011C27.784,13.863,26.029,11.121,26.307,9.842z"/>
		<path fill="#010101" d="M19.148,16.285c-0.559-1.25-2.313-3.903-1.611-4.653C17.609,12.816,19.295,14.882,19.148,16.285z"/>
		<path fill="#010101" d="M72.119,14.854c-1.332-0.518-3.491-1.159-4.652-1.253c0.649,0.364,1.333,0.694,1.789,1.253
			c-1.371,0.055-2.117-1.459-2.863-1.432c0.179,0.239,0.483,0.351,0.537,0.716c-1.082-0.17-1.577-0.929-1.79-1.969
			c0.714-0.057,0.485,0.828,1.074,0.896c-0.183-0.236-0.176-0.66-0.357-0.896c0.654,0.039,0.686,0.246,1.252,0
			C68.496,14.043,70.722,12.95,72.119,14.854z"/>
		<path fill="#010101" d="M15.212,17.358c-0.494-1.488-2.128-3.701-1.79-4.831C13.927,14.025,15.557,16.188,15.212,17.358z"/>
		<path fill="#010101" d="M25.77,17.358c0.641,1.218,1.679,3.241,2.326,5.012C27.225,20.914,25.979,18.88,25.77,17.358z"/>
		<path fill="#010101" d="M29.886,23.264c-1.363-1.261-1.445-3.804-2.506-5.368C28.756,19.145,28.891,21.635,29.886,23.264z"/>
		<path fill="#010101" d="M60.666,24.874c-1.674-0.533-2.822-1.591-5.01-1.61c2.347-1.256,3.826,1.085,5.727,1.432
			c-0.325,1.849-1.33,4.953-4.475,3.938c-0.615-1.566-0.772-2.539-0.895-4.653C58.159,23.335,59.299,25.506,60.666,24.874z"/>
		<path fill="#010101" d="M44.203,29.705c0.983,5.16,4.27,8.019,6.979,11.453c-1.106-3.535-4.404-6.419-4.652-9.663
			c1.574,0.872,1.889,3.003,3.042,4.295c-0.011-1.241-0.925-1.579-1.073-2.685c1.292,0.814,1.535,2.426,2.147,3.758
			c0.598,1.299,1.183,2.752,2.147,3.937c3.461,8.171,8.59,14.673,13.421,21.474c0.758,0.747,2.084,1.429,1.79,2.685
			c-0.92,0.431-1.714-0.298-1.79-1.252c-3.349-2.445-6.453-8.508-9.305-13.063c-0.667-1.065-2.619-3.023-1.79-3.58
			c-1.611-0.893-1.802-3.209-3.042-4.474c-2.742,0.179-6.497,0.055-10.2-0.178c-2.032-0.129-4.234,0.123-4.296-0.358
			c-5.272,0.212-12.438-0.454-15.211-4.295c0.879-0.312,0.893,0.54,1.253,0.716c-0.071-0.035,0.333-0.256,0.537-0.179
			c1.103,0.414,2.178,1.493,3.579,1.79c1.548,0.327,5.191-0.156,5.727,0.537c1.016-0.325,2.486-0.029,2.862-0.358
			c-0.211,0.087-0.405,0.191-0.536,0.358c2.171-0.175,1.812-0.141,4.295,0c1.963,0.112,4.479,0.79,6.8,0.358
			c-1.825-0.898-4.783-1.742-6.979-1.79c-0.027,0.21,0.031,0.508-0.179,0.537c0.364-1.89-1.41-0.766-1.969-0.895
			c-1.185-0.273-5.198-2.717-4.831-3.4c4.645,2.207,10.273,2.113,14.673,4.295c-2.784-2.441-5.79-4.873-7.336-8.053
			c0.484,0.128-0.128-0.844,0.357-0.716c0.59,0.416,1.556-1.116,2.326-0.537c-0.328,0.865-1.935,0.451-2.147,1.432
			c0.963,1.298,1.478,2.451,2.863,3.579c-0.101-0.689-0.649-1.633-0.178-2.326c0.948,0.247,1.578,1.757,2.146,1.79
			C45.134,33.392,43.658,31.075,44.203,29.705z"/>
		<path fill="#010101" d="M29.886,39.012c-0.268-0.01-0.32-0.434-0.716-0.179c0.574-2.062,1.172-5.32,1.252-7.158
			C31.471,34.154,30.895,37.51,29.886,39.012z"/>
		<path fill="#010101" d="M29.706,32.034c0.425,1.221,0.21,4.469-1.072,5.727c0.082-1.292,1.024-2.669,0.536-3.938
			c-0.952,1.494-1.017,3.875-2.685,4.653c-0.238-0.937,0.537-1.808-0.179-2.148c1.285-1.543,0.988-4.301,3.221-5.548
			c-1.218,2.147-2.585,4.073-2.326,6.264C28.32,34.953,28.209,33.609,29.706,32.034z"/>
		<path fill="#010101" d="M92.519,35.797c-0.315,1.432-2.057,3.237-1.252,3.937c-2.058,0.526-1.203,2.512-3.222,2.506
			c-0.07-0.308,0.266-0.459,0-0.537c-0.355,0.308-1.312,0.943-1.074,1.252c1.079,0.224,2.375,0.407,2.686,0
			c-0.141,0.04-0.208,0.151-0.18,0.358c2.117,0.408,4.5,0.889,6.442,1.432c0.242-0.46,0.358-1.831,0.716-2.685
			c-0.229,0.01-0.247,0.229-0.536,0.179c-0.115-1.346,2.049-1.036,1.968-1.79c1.328,0.531,3.262-1.722,4.295-0.895
			c-1.415,1.031-3.549,1.342-5.189,2.148c0.114,1.158-0.69,2.867-0.894,4.294c-0.859,0.077-1.458-0.212-1.432-0.537
			c-4.245,0.006-10.323-2.699-14.317-1.253c0.14,0.04,0.353,0.005,0.357,0.179c-2.22-0.439-4.197,0.494-6.263,0.716
			c-1.727,0.186-1.844-0.327-2.685,0.537c0.529,0.919,0.759,3.171,1.61,2.685c-0.265,0.033-0.163,0.432-0.179,0.716
			c0.955,1.309,1.296,2.777,1.969,4.115c1.117,2.219,2.566,4.207,3.4,6.444c0.272,0.729,0.106,1.583,0.358,2.326
			c0.291,0.863,0.896,1.487,1.252,2.506c0.507,1.444,0.972,4.702,1.969,5.905c-0.257-0.631,1.594-0.499,1.969-1.072
			c-0.833-0.058-1.193,0.356-1.969,0.357c-0.332-1.159-0.466-2.518-0.895-3.578c2.016-1.764,3.643,0.645,2.863,2.326
			c-0.452-0.86-0.191-2.434-1.253-2.686c0.079,0.677-0.936,0.259-1.073,0.716c0.413,0.78,0.312,2.075,0.895,2.685
			c0.674-0.162,1.157-0.512,1.969-0.536c0.027,0.21-0.031,0.507,0.179,0.536c0.601-0.574,1.718-0.479,2.147-0.895
			c0.784-0.76-0.473,0.004,0.357,0c0.609-0.004,1.662-0.936,2.506-1.252c0-0.418,0-0.836,0-1.254
			c-1.053,1.046-2.757,1.809-3.938,0.359c2.826,0.508,4.15-3.291,5.369-4.475c-0.858,2.703-0.99,4.832-0.895,7.873
			c0.506-0.147,0.463,0.253,0.895,0.18c0.301-0.596,0.324-1.467,0.537-2.147c-0.365,0.102-1.342-0.056-0.716-0.358
			c0.692,0.211,0.445-2.056,1.253-2.326c0.445,0.979-0.475,1.668-0.537,2.685c0.635-0.203,1.019,0.752,1.432,0.179
			c-0.218-0.021-0.423-0.055-0.357-0.358c0.847-2.061,0.793-5.97,2.505-7.694c-0.622,2.598-1.556,4.886-1.789,7.873
			c0.499-0.479,0.884,0.168,1.432,0.18c0.383-0.393,0.868-0.684,1.789-0.538c1.193-1.799,0.311-4.816,0.716-7.158
			c-0.773-0.897-2.072-1.268-3.4-1.611c-3.614,1.473-5.189,6.006-8.053,7.158c0.311-0.762,1.217-0.93,1.61-1.61
			c0.04,0.139,0.005,0.354,0.179,0.358c0.012-1.324-1.238-1.386-1.073-2.863c0.954,0.179,0.529,1.737,1.252,2.148
			c0.981-2.588,4.194-4.36,6.622-6.085c-0.78-0.393,0.086-1.031,0.178-1.61c-0.799-0.318,0.024-1.602,0.18-2.148
			c0.688-2.422,1.584-5.077,2.505-7.516c-0.256,0.069-0.302,0.215-0.538,0c0.18-1.492,0.339-3.003,1.074-3.937
			c0.974,0.019,1.857-0.053,2.506-0.359c-0.66,0.004-1.232-0.08-1.253-0.715c1.028-0.524,3.879-1.033,5.012-0.357
			c-0.256,0.219-0.407,0.683-0.18,0.895c-0.479,0.118-1.118,0.075-1.432,0.357c0.942,0.011,1.968-0.059,2.326,0.537
			c-0.314,0.104-1.052-0.216-1.074,0.179c0.936,0.565,1.975-0.072,1.969,1.432c-2.167,0.227-5.041,1.715-6.442,0.179
			c1.702,0.065,2.566,0.282,4.116-0.358c-1.232-0.08-2.971,0.346-3.222-0.716c0.083-0.454,0.567-0.506,0.896-0.715
			c-2.198-0.72-4.296,1.041-3.58,3.221c0.271-0.445,0.257-1.175,0.896-1.252c0.086,0.563-0.255,0.699-0.357,1.074
			c0.614,0.399,1.546,0.481,2.326,0.715c-0.01-0.229-0.229-0.247-0.179-0.537c1.865,0.03,3.51,0.052,5.369-0.178
			c-0.574,1.019-2.674,0.488-3.4,0.895c0.122,0.355,1.066-0.111,0.895,0.537c-2.186,0.157-3.545-0.51-5.189-0.895
			c-1.107,2.997-2.389,6.199-3.042,9.126c0.422-0.056,0.332-0.621,0.895-0.537c-0.203,0.815-1.209,1.769-1.074,2.327
			c0.376-0.759,0.909-1.358,1.254-2.148c0.825,0.491,0.587-0.115,1.609,0.179c-0.154,0.992-0.108,0.607,0.537,0.358
			c0.285,0.605-0.759,0.764-0.179,1.074c0.28-0.257,0.142-0.933,0.716-0.895c0.062,0.777-0.433,0.998-0.537,1.61
			c0.472-0.186,0.604-0.71,1.074-0.895c-0.097,1.132-1.465,1.828-1.253,2.684c0.83-0.669,1.267-2.455,2.326-2.326
			c1.976-3.718,5.104-7.72,6.801-11.99c-1.326-1.798-1.873-4.387-3.579-5.726c-1.335-1.048-3.068-1.209-4.652-2.147
			c-0.688,0.505-1.784,0.603-2.147,1.432c0.573-0.156,0.559,0.275,0.716,0.537c-1.592,1.153-3.326,2.162-5.37,2.864
			c-0.493,0.077-0.167-0.667-0.536-0.716c-0.335,0.721-0.931,1.046-2.326,1.432c0.857-1.118,1.088-1.268,2.326-1.611
			c-0.01-0.229-0.229-0.249-0.179-0.537c2.157-1.299,2.775-3.348,5.011-4.296c-0.989,1.917-3.537,2.983-3.938,4.474
			c1.822-1.097,3.688-2.757,5.727-3.758c-1.6-1.263-4.046-1.68-5.548-3.043c2.791,0.349,4.502,2.608,7.159,2.506
			c0.122,0.562-0.021,0.732,0.178,0.895c2.017-0.764,4.969-2.079,6.801-3.578c2.336,1.33,2.886,5.276,4.652,7.337
			c1.94,5.711,4.216,11.893,6.085,18.252c-0.326,0.628-0.664,1.245-1.074,1.79c-6.188,1.566-13.058,2.451-18.433,4.832
			c-0.042,0.705-0.259,1.133-0.536,1.969c0.667,0.705,1.127,1.617,1.968,2.147c-0.375,0.05,0.26,0.478-0.178,0.716
			c0.559-0.507,0.587,0.602,1.073,0.715c1.612,5.208,3.505,9.916,5.189,14.854c0.294,0.858,0.852,2.272,0.357,3.222
			c-2.573-6.02-4.745-13.18-6.799-19.148c-1.323-0.646-1.302-2.636-3.222-2.685c-0.084,0.751-0.141,0.126-0.536,0.716
			c-1.413-0.581-1.471,0.175-3.043,0.179c0.127,0.664-0.305,0.769-0.179,1.432c-0.568,0.381-1.626,0.506-2.147,0
			c-0.261-0.335-0.007-1.186-0.358-1.432c-3.106,0.771-5.486,2.268-8.41,3.221c-0.339-0.02-0.125-0.591-0.537-0.537
			c-0.008,0.247,0.084,0.395,0.179,0.537c-0.534,0.159-1.089-0.557-1.252-0.178c0.996,1.45,2.746,2.146,3.042,4.295
			c-1.555,0.311-2.045-1.771-3.221-0.716c-1.602-1.093-3.448-2.863-4.832-3.579c5.039,4.375,8.754,9.486,13.421,13.422
			c-0.056-0.419-0.351-0.739,0-1.074c2.213-0.178,4.499-0.606,5.548-1.432c-2.516,0.129-5.934-0.846-7.695,0.179
			c0.579-3.357,3.098-4.776,4.296-7.517c0.438-0.159,0.775-0.417,1.432-0.357c-0.09,1.795-1.975,2.785-2.326,4.115
			c1.61-1.431,3.339-2.746,4.831-4.295c-0.247-0.18,0.076-0.294-0.357-0.537c0.717-0.416,0.423-1.04,0.357-1.61
			c1.993,3.79-3.539,4.655-4.831,7.337c-0.993-0.006-1.634,0.385-1.79,1.611c2.547-0.692,5.925-1.449,6.8-3.222
			c0.378,0.647,0.312-0.624,0.896-0.358c0.027,0.805-0.598,0.953-0.896,1.432c1.968-0.368,2.25-1.568,4.474-1.432
			c0.101,0.438,0.693,0.382,0.537,1.074c-1.256,0.131-2.778,1.021-4.295,1.432c-0.524-0.133-0.77-0.543-1.073-0.896
			c-1.225,1.222-3.471,1.422-5.012,2.327c2.236,0.27,4.918,0.093,6.801,0.715c-1.419,0.788-3.418,0.996-5.011,1.611
			c0.561,0.215,1.193,0.357,1.789,0.537c0.002,0.557,0.424,1.166,0,1.609c-1.427-0.183-2.621-0.6-4.116-0.715
			c0.157,0.316,0.567,0.521,0.18,0.895c0.484-0.487,0.444,0.463,1.073,0.357c0.616,2.012,2.383,3.163,3.579,4.834
			c4.111,5.736,8.543,12.151,13.421,16.105c1.655-0.449,3.05-2.064,4.653-1.969c-0.302-1.002,2.911-1.619,1.611-3.043
			c0.246-0.008,0.393,0.084,0.536,0.18c0.461-1.785,0.472-4.267,1.253-5.729c0.672,6.406-3.035,10.711-8.77,11.455
			c-7.889-6.783-13.01-16.162-19.685-23.266c-0.552,0.126-0.344,0.126-0.896,0c-0.228-0.368-0.285-0.907-0.895-0.895
			c-8.203,1.656-15.834,4.122-23.442,6.801c-0.078-0.342-0.387-0.449-0.359-0.896c1.835-0.97,3.993-1.614,5.906-2.505
			c-0.194-0.044-0.43-0.296-0.179-0.359c1.124,0.865,3.344-1.58,4.475-0.715c0.193-0.78,3.286-1.459,3.937-1.252
			c0.377-0.979,4.513-1.022,5.905-2.148c-3.115,0.014-8.688-0.729-10.558-0.895c-3.32-0.295-8.302,0.713-11.096,0.178
			c6.263-1.175,13.139-0.15,19.686-0.178c-0.909-1.488-3.885-1.826-4.116-3.4c-1.917-0.438-4.152-2.976-5.19-4.295
			c-0.644,0.221-1.465-0.917-2.505-0.895c0.127,0.682,0.119,0.861-0.179,1.432c-0.339,0.041-0.396-0.201-0.716-0.179
			c-2.484,1.214-5.439,1.958-7.874,3.222c-0.122-0.658-1.753,1.287-2.863,0.715c0.07,0.255,0.215,0.302,0,0.537
			c-4.242,1.424-7.931,3.404-11.632,5.369c-0.193,1.552-1.994,3.005-2.684,4.652c1.146,0.406,2.884,1.168,2.326,2.685
			c-0.138-1.458-2.633-3.091-3.4-1.253c0.245-0.008,0.393,0.084,0.536,0.179c-0.387-0.646,2.072-0.328,1.433,0.358
			c-1.32-0.417-2.43-0.01-3.58,1.252c-1.932,2.119-5.86,4.355-6.442,8.232c1.659-2.061,2.915-5.139,6.264-5.189
			c3.311-0.051,6.901,3.588,4.115,6.264c-0.428-0.48,0.239-0.952,0.358-1.432c-1.644-1.577-2.387-4.057-5.548-4.117
			c0.053,0.365,0.358,0.477,0.537,0.717c-1.97,1.252-3.588,2.855-4.832,4.832c-2.511,0.411-2.773,3.072-4.116,4.652
			c2.591-0.75,5.389-1.293,8.411-1.61c0.018-0.202-0.26-0.279,0-0.358c3.429,0.203,5.544-0.772,7.695-3.043
			c-0.019,1.295-1.152,1.474-1.61,2.326c-2.242,1.046-6.29,1.541-9.127,1.969c-2.586,0.391-4.542,1.141-6.085,1.074
			c0.212-0.087,0.406-0.191,0.538-0.358c-0.952-0.646-1.246,0.391-2.686,0.179c0.02,0.735-0.715,0.717-0.536,1.611
			c1.985,0.221,2.828,1.586,4.295,2.326c1.602-3.046,6.966-0.452,6.264,2.505c-0.779,0.347-0.991-0.78-1.253-0.357
			c0.873,1.069,0.766,4.935-0.358,5.011c-1.053-1.074-1.595-2.534-2.506-3.759c-1.798-2.419-3.697-4.659-6.979-5.368
			c-0.176,0.66-0.784,0.887-1.074,1.432c3.605,0.775,6.933,4.371,8.589,8.232c0.049-0.943-0.575-1.215-0.357-2.326
			c1.586,0.109,2.278,2.718,1.074,3.579c-0.295-0.302-0.389-0.805-0.717-1.074c0.269,1.046-1.358,0.98-1.073,0.536
			c-0.415,1.055-1.629,1.735-1.969,3.222c-0.207,0.907,0.241,1.915-0.358,2.864c0.561,0.229,0.093,0.369,0.358,0.895
			c-1.241,0.708-0.691,1.53-2.326,2.147c-1.315-0.728-2.401-2.589-3.758-2.685c0.622,1.822,3.332,1.559,3.221,4.115
			c-2.852-0.012-3.882-1.844-5.548-3.042c-0.147-0.506,0.252-0.464,0.18-0.895c-1.236-0.793-3.037-1.021-5.189-0.896
			c-2.498-1.619-5.306-2.928-6.979-5.369c0.08-0.516,0.77-0.422,0.895-0.895c-0.337,0.148-0.93,0.66-1.074,0
			c0.757-0.671,2.185-1,3.043-0.179c0.355-0.003,0.228-0.488,0.715-0.358c2.022,1.559,4.97,2.189,5.906,4.832
			c3.197,0.979,6.111,2.241,8.232,4.296c0.848-0.406,1.061-1.444,1.61-2.147c-0.928-1.639-2.689-2.44-3.937-3.759
			c0.144-0.845,0.265-2.142-0.716-2.685c-0.308-0.01-0.459,0.138-0.537,0.358c0.211,0.803,0.913,1.114,0.716,2.326
			c-0.501,0.095-0.932,0.263-1.432,0.357c-0.195-0.46-0.452-0.859-0.896-1.073c-3.556,0.259-5.491-2.001-7.874-2.326
			c-0.153-0.893-2.329-1.21-3.579-0.716c1.861-2.249,4.2,0.917,6.801,1.253c3.147,0.405,5.514-1.297,8.231-0.358
			c-0.211,0.087-0.405,0.191-0.536,0.358c-0.09,3.022,2.536,4.085,3.937,5.369c-0.055-0.652,0.029-1.166,0.18-1.611
			c-0.822-0.672-1.854-2.082-1.969-2.863c0.899,0.65,1.293,1.809,1.969,2.684c0.033-1.84-2.145-2.634-2.506-3.758
			c0.076-0.4,0.384-0.57,0.537-0.895c0.391,0.562,1.002,0.907,1.61,1.253c-0.305-0.538-1.312-1.101-0.896-1.79
			c1.182,0.371,1.746,1.357,2.506,2.147c0.455-0.437-0.377-0.381-0.179-1.073c0.525-0.049,0.665,0.717,0.896,0
			c-0.568-0.984-1.472-2.582-2.506-2.506c0.807,0.621,2.161,1.583,1.61,2.506c-1.258-0.35-2.007-1.765-3.222-1.611
			c-1.808-1.58-4.675-4.531-3.22-6.979c0.626-1.055,2.188-1.707,2.505-3.4c1.248,0.219,2.099-0.454,2.863-0.18
			c0.798-1.588,1.719-3.053,2.863-4.294c-0.384-0.544,0.24-1.698,0.179-1.97c0.932-1.758,2.674-5.19,5.011-5.547
			c0.861-3.443,4.404-5.858,5.906-9.484c4.121-2.527,8.66-4.047,13.242-6.084c0.55-0.246,1.209-0.364,1.61-0.537
			c0.069-0.03-0.204-0.344-0.179-0.358c2.662-1.545,6.354-1.565,8.947-3.579c0-0.358,0-0.715,0-1.074
			c1.113-0.1,1.704,0.325,2.506,0.537c-0.03-0.448,0.274-0.561,0.537-0.715c1.446,0.963,2.165,2.148,3.399,3.221
			c1.112,0.967,2.813,2.525,3.758,2.326c-1.362-0.933-4.957-3.501-5.368-5.727c0.964,0.139,0.449-0.584,0.895-1.432
			c0.671-0.181,1.151,0.742,1.432,0.358c-1.184-2.735-2.285-4.489-6.263-4.474c-0.032-0.981-0.733-1.294-0.716-2.327
			c1.201,2.378,5.408,0.662,6.621,3.042c2.468,0.018,3.466,0.37,5.548-0.357c-0.43-0.226-0.36-0.952-0.716-1.253
			c-1.065,0.616-3.266-0.485-5.011-0.357c-0.382-0.555,0.358-0.987,0-1.433c1.023-0.287,2.358-0.26,3.759-0.179
			c-0.86,0.127,0.607,0.587,0.895,0.715c-1.422-1.267-0.936-3.916-2.684-4.474c-1.36-0.434-2.896,1.236-3.938-0.357
			c0.289-0.726,1.478-0.552,1.611-1.432c-1.955,0.014-4.033-0.096-5.012,0.894c0.381,1.525,2.02,2.552,1.253,3.937
			c-0.722-1.528-1.474-3.341-1.969-4.115c1.795-1.532,4.632-1.201,6.8-1.074c-0.045,1.208-1.438,1.066-1.789,1.968
			c1.359-0.11,2.141,0.152,3.043-0.537c-0.553-1.346-1.201-2.322-1.611-3.4c-2.06-0.2-3.861-1.904-6.442-2.506
			c0.077,0.692,0.195,0.637-0.179,1.074c-1.287,0.057-2.262-0.824-2.506-1.253c-1.374-0.596-4.264-1.224-5.189-2.863
			c0.139-0.04,0.208-0.15,0.18-0.357c2.124,0.32,3.762,1.127,5.546,1.789c1.538-1.701,5.065,0.717,7.159,1.252
			c0.167-3.017-4.991-3.011-5.548-4.295c1.233-0.015,2.682,1.05,3.938,1.074c-0.506-1.045-1.142-1.961-1.611-3.042
			c0.314-0.164,0.894-0.062,1.073-0.358c-0.076-0.341-0.385-0.449-0.357-0.895c1.43,0.539,0.245-0.822,0.896-0.896
			c1.245,0.903,1.466,2.829,2.684,3.759c-0.478-1.431-1.353-2.466-1.61-4.117c0.904-0.082,1.868-0.423,2.863-0.537
			c1.45-0.165,3.427,0.03,4.295-0.895c-1.395-0.175-2.764-0.264-3.938,0.179c-0.149-0.387-0.463-0.61-0.357-1.252
			c1.979-0.628,3.751-0.302,5.548,0.178c0.002,0.475-0.099,1.054,0.358,1.074c0.793-0.382,1.355-0.474,2.505-0.359
			c0.242-1.415,2.307,0.023,1.611-1.073c0.209,0.685,1.331,0.459,1.968,0.716c-0.66-1.67,2.156-1.828,1.97-3.042
			c-0.342,0.336-0.324-0.106-0.896,0c0.221-1.509,1.306-2.155,1.611-3.58c-1.554,1.52-1.64,4.075-3.043,5.369
			c0.565-2.877,1.925-4.935,3.222-6.98c-0.523,0.048-0.688-0.694-0.179-0.715c0.027,0.21-0.032,0.508,0.179,0.537
			c0.188-0.753,0.646-1.862,1.252-2.684c1.682,1.69,0.2,4.162,0,6.084c-0.247-0.183-1.591,1.716-0.536,1.789
			c-0.445,0.233-0.744-0.525-0.896,0c0.297,0.64,0.48,0.355,1.073,0.538c1.505-2.545,3.592-6.358,0.895-8.59
			C92.404,31.861,92.955,33.815,92.519,35.797z M98.426,57.981c0.318-0.131,0.026-0.326,0-0.538c-0.119,0-0.238,0-0.358,0
			c0.028,0.446-0.281,0.555-0.357,0.895C97.827,58.894,98.223,57.34,98.426,57.981z M114.175,48.856
			c-0.034-0.203-0.18-0.099-0.179,0c-1.91-4.863-3.513-10.541-6.801-14.495c-2.044,1.099-3.836,1.616-5.548,3.221
			c1.135,0.453,2.17,0.747,3.043,1.432c1.607,1.26,1.889,3.705,3.4,4.474c-0.498,0.575,0.656,2.072-0.359,3.042
			c0.551,0.046,0.805,0.388,1.254,0.537c0.104,1.479-1.73,2.717-1.074,3.58c-0.616-0.461-0.906,0.812-1.611,1.252
			c0.963,2.019,1.685,4.281,2.326,6.622c-1.303-1.62-1.388-4.458-2.684-6.085c0.428,2.256,1.372,3.997,1.789,6.264
			c-1.285-1.281-0.972-4.158-2.326-5.369c0.337,2.149,1.301,3.868,1.61,5.548c-1.242-1.31-1.011-3.126-1.968-4.833
			c-0.59,1.355,1.094,3.402,1.252,5.189c-1.035-0.993-1.205-2.851-1.789-4.295c-0.562,1.537,1.16,3.227,0.716,4.653
			c-0.771-1.079-0.443-3.255-1.61-3.937c0.153,1.711,1.359,3.269,1.252,4.653c-0.95-0.959-0.678-3.141-1.789-3.937
			c-0.176,1.463,1.432,2.731,0.537,3.758c-0.057-0.718-0.618-2.161-0.896-3.221c-0.787,0.885,0.659,2.372,0.536,3.758
			c-0.659-0.713-0.66-2.083-1.073-3.042c-1.344,0.636,0.394,1.7,0.179,2.863c-0.547-0.467-0.779-1.248-0.895-2.147
			c-2.409,0.275-2.175,3.194-2.506,5.547c4.848-0.458,10.729-2.941,15.391-3.221c0.132-0.285,0.876,0.041,0.715-0.537
			c2.833,0.611,1.835-2.314,1.074-4.832C115.397,52.832,114.131,50.054,114.175,48.856z M80.529,70.151
			c-1.542-8.138-6.011-16.254-10.2-23.623c-0.121,0.958,0.754,2.337,1.432,3.579c0.687,1.259,1.509,2.523,1.969,3.759
			c0,0.119,0,0.239,0,0.358c0.07,0.153,0.436,0.16,0.357,0C76.302,58.802,78.607,64.597,80.529,70.151z M69.436,47.424
			c-0.53,0.299-0.272,0.725,0.357,0.715c-0.355-0.073-0.227,0.767,0.179,1.432c0.739,1.214,2.035,2.803,2.863,4.653
			c1.133,2.529,2.03,5.875,3.938,7.695c-0.425,1.563,1.713,3.165,1.788,5.012c0.261-2.111-1.723-3.525-1.788-5.906
			c-0.489,0.13-0.36-0.356-0.716-0.358c-0.927-4.12-3.964-8.354-5.548-12.527C69.931,47.826,69.571,47.824,69.436,47.424z
			 M73.192,50.106c1.61,3.915,3.521,7.949,5.368,11.095C77.107,57.668,75.446,53.342,73.192,50.106z M95.562,56.908
			c-0.388-0.03-0.081,0.635-0.179,0.895c0.57,0.153,0.679-0.156,0.895-0.359c-0.045-0.225-0.355-0.18-0.358,0
			C95.754,57.312,95.648,57.12,95.562,56.908z M78.562,78.024c-0.848-1.448-2.556-3.506-4.295-4.652
			c-0.211,0.266-0.154,0.799-0.716,0.716c1.978,2.497,5.109,3.839,7.337,6.084C80.757,79.641,79.272,77.974,78.562,78.024z
			 M30.78,111.668c0.12,0.859,0.46,0.568,1.253,0.536c0.941,1.206,1.927,2.368,2.506,3.937
			C35.124,113.647,33.846,110.512,30.78,111.668z M17.717,119.363c0.909,0.491,2.602,1.06,3.758,0.716
			C20.845,118.411,18.916,119.375,17.717,119.363z M28.274,119.183c0.628,0.327,0.273,1.636,1.074,1.79
			C29.058,120.311,29.145,119.268,28.274,119.183z M22.012,119.72c-0.547,0.444,0.572,0.729,0.358,1.432c0.358,0,0.716,0,1.073,0
			c0.018-0.556-0.219-0.854-0.357-1.252C22.804,120.594,22.146,120.477,22.012,119.72z M22.729,125.448
			c-0.366,0.171-0.709,0.365-1.074,0.536C22,126.232,22.657,126.206,22.729,125.448z"/>
		<path fill="#010101" d="M81.962,42.77c-2.521,0.1-4.634-2.598-7.517-2.147c0.241-0.505-0.948-0.449-0.358-0.716
			C77.44,40.132,79.521,41.631,81.962,42.77z"/>
		<path fill="#010101" d="M82.319,41.159c0.23,0.09,0.37,0.19,0.896,0.359c-0.233,0.443,0.398,0.869,0,0.895
			c-0.298-0.337-0.597-0.782-0.896-0.179c-0.002-0.236-0.313-0.164-0.358-0.358c0.444,0.027,0.744-0.092,0.896-0.357
			C82.491,41.671,81.871,41.235,82.319,41.159z"/>
		<path fill="#010101" d="M87.867,50.286c-0.464-1.685-2.223-4.734-1.61-5.727C86.484,45.916,88.012,48.863,87.867,50.286z"/>
		<path fill="#010101" d="M90.552,49.57c-0.369-0.967-1.771-3.919-1.253-4.474C89.55,46.098,90.644,48.017,90.552,49.57z"/>
		<path fill="#010101" d="M79.814,44.917c0.197,0.803-1.248,0.888-1.61,0.537c0.335-0.043-0.102-0.295,0.179-0.359
			C78.48,45.354,79.421,44.955,79.814,44.917z"/>
		<path fill="#010101" d="M78.919,48.495c0.217,0.038,0.109,0.199,0,0.359c2.028,4.954,4.309,9.534,6.085,14.674
			c0.328,0.952,0.57,2.278,0.536,3.221c-1.487-3.71-2.496-7.564-3.937-11.095c-1.458-3.574-3.42-6.798-4.475-10.2
			c0.694,0.839,1.432,2.992,1.97,2.863C78.989,48.328,78.887,48.344,78.919,48.495z"/>
		<path fill="#010101" d="M77.309,49.392c-0.409-0.398-1.721,0.772-2.326,0.179c0.462-0.433,1.486-0.303,1.79-0.895
			c-0.575-0.856-0.598-2.267-1.611-2.685c-0.246,0.529-1.295,0.255-1.789,0.537c0.478-1.021,1.562-0.338,2.326-1.073
			C76.382,46.837,77.166,48.012,77.309,49.392z"/>
		<path fill="#010101" d="M80.172,46.349c0.53,0.583-0.646,0.545-0.894,0.895c0.384,0.331,0.952-0.236,1.609-0.179
			c-0.089,0.747-1.104,0.567-1.609,0.896c-0.207-0.376,0.107-0.698-0.359-1.074C79.367,46.737,79.622,46.396,80.172,46.349z"/>
		<path fill="#010101" d="M92.878,48.139c0.026,0.399,0.451-0.232,0.895,0c0.021,0.453-1.046,0.724-1.074,0.537
			c0.141-0.04,0.209-0.15,0.18-0.357C92.778,48.318,92.675,48.172,92.878,48.139z"/>
		<path fill="#010101" d="M81.962,48.675c-0.12,0.871,1.175,1.711,0.358,2.147c-0.197-0.762-1.154-1.703-0.895-2.327
			C81.455,48.706,81.707,48.69,81.962,48.675z"/>
		<path fill="#010101" d="M112.385,57.623c-0.773-1.679-1.512-4.602-2.148-6.979c1.298,1.353,1.312,4.858,2.327,5.905
			C111.923,56.701,113.023,57.472,112.385,57.623z"/>
		<path fill="#010101" d="M93.235,54.76c-0.212-1.254-1.217-3.851-1.073-3.759C93.028,51.567,93.664,54.071,93.235,54.76z"/>
		<path fill="#010101" d="M81.066,58.16c-0.519-0.269-1.588,0.978-2.506,0.358c0.282-0.917-0.421-1.497-0.537-2.506
			c0.458-0.02,0.627-0.328,0.896-0.537c-0.466-0.482-0.54,0.219-1.074,0.179c-0.37-0.584-0.854-1.055-0.716-2.148
			c0.822-0.508,1.622,0.644,1.611-0.358c0.734,0.219,1.072,0.837,1.074,1.79c-0.407,0.245-0.674-0.461-0.716,0
			c0,0.179,0,0.358,0,0.537c0.417,0,0.835,0,1.252,0c0.128,0.951,0.255,1.307,0.896,1.968C80.618,57.493,81.569,58.237,81.066,58.16
			z"/>
		<path fill="#010101" d="M84.109,59.592c0.583-0.411,1.074-0.731,1.789-0.358C85.255,59.473,84.349,59.911,84.109,59.592z"/>
		<path fill="#010101" d="M69.436,65.676c-0.761-3.077,5.2-5.012,6.621-1.969C72.827,63.545,72.103,64.358,69.436,65.676z"/>
		<path fill="#010101" d="M105.585,66.929c2.011-1.762,5.392,0.246,6.621,0.896c-0.858-1.722-4.397-2.554-6.441-1.434
			c-0.152-1.549,2.549-0.974,3.578-1.073c1.058,0.614,2.218,1.124,3.4,1.611c0,0.417,0,0.835,0,1.252
			c1.27,1.245,4.395,0.375,6.264,1.79c-0.074-0.057,0.066,0.721,0.357,0.895c0.724,0.432,1.381,1.088,1.969,1.79
			c2.425,2.894,3.896,4.813,1.252,7.157c-3.861,0.318-6.282-4.308-10.2-4.474c0.696,1.689,1.96,2.812,4.116,3.042
			c-1.052,2.05-1.821,6.766-1.433,9.486c0.06,0.406,0.265,0.785-0.357,1.252c0.061-1.624-0.443-3.035-0.179-4.117
			c0.033-0.135,0.519-0.154,0.536-0.357c0.034-0.355-0.685-2.406-0.357-3.399c-2.608-1.931-4.812-2.611-6.8-4.652
			c-0.614,0.16-0.887,0.665-1.432,0.894c0.993-3.877,6.469,2.023,8.769,2.506c0.169-0.308,0.662-0.293,0.536-0.895
			c-2.523-0.994-3.634-3.404-6.799-3.758c-0.436-0.242-0.113-0.357-0.359-0.537c-0.364,0.41-1.485,0.064-2.146,0.18
			c0.112-0.961,1.886-0.262,2.326-0.896c-0.988,0.152-1.316-0.354-1.432-1.073c0.139-0.041,0.207-0.15,0.179-0.358
			c0.728-0.153,1.752-0.229,2.863,0c0.082,0.812,0.635,1.153,1.432,1.252c0.364,0.684-0.831,0.694-0.358,0.896
			c1.07-0.008,0.432-2.666,1.79-1.789c-0.137,0.281-0.568,0.266-0.537,0.715c0.452-0.202,1.014-0.297,1.252-0.715
			c-1.12-1.116-3.014-1.363-4.295-2.686c0.457-0.66,0.979,0.531,1.253,0c-1.094-0.742-3.455-1.199-3.4,0.895
			c1.96-0.85,3.847,0.416,4.474,1.969c-1.493-0.592-2.637-1.452-4.652-1.073C107.433,70.477,105.039,70.028,105.585,66.929z
			 M119.542,77.844c0.79,0.016,0.76-0.791,1.254-1.072c-0.693-1.336-2.028-2.03-2.864-3.222c1.261,0.172,2.512,1.901,3.4,3.042
			c-0.078,0.926-1.478,1.318-0.896,2.326c1.092-0.459,1.394-1.708,2.326-2.326c-2.595-0.69-3.761-4.695-5.547-6.264
			c-2.915,0.947-7.401-0.257-7.158-3.043c-0.809-0.205-1.524-0.503-2.505-0.536c-0.554,0.991,0.348,2.185,0.357,2.685
			c3.159-0.834,5.347,1.924,6.801,3.938c-0.69,0.384-1.765,0.383-1.611,1.61c1.877,0.673,1.837-1.931,2.863-2.685
			c0.829,0.065,1.338,0.451,1.79,0.895c-0.274,0.86-0.755,1.514-1.074,2.326C117.917,76.733,118.292,77.114,119.542,77.844z
			 M106.836,66.929c-1.623,0.145-0.535,3.063,0.537,3.222C107.394,68.877,106.697,68.321,106.836,66.929z M116.679,72.656
			c-0.159,0.139-0.403,0.19-0.716,0.179c-0.029,0.707,0.275-0.058,0.537,0.357c-0.361,0.771-0.748,1.52-1.253,2.147
			C116.124,76.151,117.512,73.602,116.679,72.656z"/>
		<path fill="#010101" d="M112.743,82.676c-0.101,0.23,2.273,2.631,1.252,3.758c-0.845-2.75-2.808-5.891-5.906-6.979
			C110.751,79.418,111.533,81.26,112.743,82.676z"/>
		<path fill="#010101" d="M62.634,85.182c0.093,0.455,0.306,0.693-0.358,0.716c-4.566-0.612-9.341,0.024-13.958-0.896
			c3.8-0.679,7.676-0.576,11.99-0.357c-0.134-0.338-0.534-0.125-0.179-0.537c2.031,0.004,3.938-0.074,5.906,0
			c2.063,0.078,4.886-0.225,6.084,1.432C68.451,85.784,66.413,84.846,62.634,85.182z"/>
		<path fill="#010101" d="M52.971,98.248c-0.418,0.359-0.418-0.079,0-0.179c0.791-0.227,2.314-2.216,2.505-3.043
			c-0.71,0.125-1.982-0.312-2.147,0.357c0.554-0.016,0.533,0.542,0.537,1.074c-1.746,1.008-4.944,0.477-6.084-0.715
			c-0.248-0.41-0.196-1.117-0.896-1.074c0.552,1.314,0.975,3.655,1.969,3.938c-0.448,0.545,0.349,1.221-0.358,1.432
			c-1.197-1.846-2.204-3.879-3.4-5.727c1.323,4.866,4.251,12.184-1.432,13.779c0.021,1.965-3.343,2.939-3.758,4.474
			c-0.952,0.304-2.625,1.431-3.221,2.685c-0.275-0.632-0.795,0.092-1.253-0.358c1.1-1.036,1.438-2.363,1.073-4.114
			c0.792-0.334,0.478-0.725,1.074-1.254c0.075,0.344,0.065,0.771,0.537,0.716c-0.104-0.374-0.443-0.511-0.358-1.073
			c0.914,0.253,1.088,1.717,0.537,2.326c0.009-0.309-0.138-0.459-0.358-0.537c0.143,0.335,0.3,0.656,0.358,1.074
			c-0.468,0.148-0.982-0.541-1.253,0c1.218,0.183-0.68,0.521,0.179,1.252c0.038-0.217,0.199-0.109,0.358,0
			c1.72-2.145,3.748-3.135,5.727-5.189c-4.054,0.355-7.267,0.095-11.096,0.716c-1.08-1.517-4.368,1.034-5.368-0.716
			c5.138-1.592,11.922,0.002,18.253-1.074c1.783-1.131,1.715-5.186,0.895-7.694c0.003-0.237,0.314-0.163,0.358-0.358
			c-0.074-0.062-0.489,0.079-0.537,0c-0.327-0.544-1.215-3.925-1.252-5.189c-0.021-0.689-0.222-1.961,0.716-1.432
			c0.013,0.529,1.005,1.617,1.432,2.326c-0.067-1.922-2.738-3.685-2.505-5.906c1.374,0.968,1.373,2.406,2.505,3.759
			c0.04-0.139,0.005-0.353,0.179-0.358c0.314,2.072,2.222,3.504,4.653,2.863c-0.698,0.041-0.929-0.385-1.433-0.536
			c0-0.358,0-0.716,0-1.074c0.505-0.331,1.513-0.157,1.969-0.536c-3.142-0.699-5.093-1.667-6.621-3.76
			c2.371,1.407,4.918,4.244,8.232,2.686c-1.367-0.623-4.662-0.43-3.222-2.686c2.61-0.744,5.963,2.024,3.222,3.58
			c1.852-0.004,4.074-0.377,3.758,1.789c-0.459,0.138-1.014,0.178-1.253,0.537c-0.321,1.934-2.002,3.061-3.041,4.295
			c0.037-0.046,0.287,0.217,0.178,0.357c-1.339,1.715-3.675,3.591-5.727,4.652c0.188-1.57,2.291-2.217,3.223-3.579
			c-0.62-0.954-2.026-1.997-1.254-3.759c0.784-0.076,0.576,0.561,0.716,0.717c0.805-0.862,1.84,0.817,2.506,1.252
			C52.752,98.624,52.993,98.567,52.971,98.248z"/>
		<path fill="#010101" d="M27.38,122.405c-0.985-0.744-1.357-2.102-1.788-3.399C26.647,119.678,26.57,121.486,27.38,122.405z"/>
		<path fill="#010101" d="M73.015,8.41c-1.743-1.131-2.474,0.892-3.043,1.611C69.316,8.637,72.379,6.332,73.015,8.41z"/>
		<path fill="#010101" d="M43.486,15.926c-1.94,0.896-2.669-0.264-3.579-1.252c-0.148-0.506,0.252-0.464,0.179-0.895
			c-1.126-0.812-1.096-1.862-1.789-2.685c-0.097-0.634,0.633-0.44,0.536-1.074c-0.213-0.443-0.648-0.663-1.432-0.536
			c0.147-1.042-0.847-0.943-0.896-1.79c0.645-0.4,1.093-1.013,1.97-0.715c0.744,1.365,0.131,2.561,1.969,3.042
			c-0.075,0.657-0.329,0.918,0.357,1.074c0.134,0.551-0.49,0.344-0.357,0.895c0.796-0.525,1.443,0.398,1.432,1.253
			c-0.427,0.325-1.297,0.205-1.432,0.357C42.137,13.562,43.205,14.164,43.486,15.926z"/>
		<path fill="#010101" d="M62.455,8.052c0.883,0.311,0.967,1.421,1.61,1.968c-0.026-0.807-0.626-1.044-0.716-1.789
			c0.938,0.254,1.075,1.311,1.252,2.326c-0.808,0.422-1.278,0.161-2.146,0.358c0.069,0.255,0.215,0.301,0,0.537
			C60.169,10.472,58.6,8.18,58.876,5.19c0.338,0.04,0.395-0.202,0.716-0.179c-0.637,1.949,0.154,2.686,0.896,4.294
			c0.521-0.5,0.887,0.165,1.252,0.358c0.008-0.247-0.084-0.393-0.179-0.538c0.891,0.004,0.936,0.854,1.432,1.253
			c-0.107-0.847-0.688-1.221-1.073-1.79c0.488-0.436,0.713,0.477,1.073,0.716C63.038,8.664,62.455,8.65,62.455,8.052z"/>
		<path fill="#010101" d="M71.403,11.452c-0.32,0.218-1.042,0.033-1.253,0.358c0.929-0.093,1.021,0.649,1.969,0.537
			c-0.361,0.895,0.4,0.87,0,1.432c-0.416-0.644-2.196-1.028-3.399-1.432c0.247-0.018,0.698-0.698,0.357-0.716
			c-1.755-0.139-3.521,1.111-4.832-0.179c3.079,0.04,3.962-0.849,6.801-0.716C70.824,11.316,71.624,10.874,71.403,11.452z"/>
		<path fill="#010101" d="M71.225,17c-0.547,0.13-0.526-0.308-1.073-0.179c-0.487,1.037-0.571,1.256-0.896,1.969
			c-0.374-0.341-0.855-0.577-1.432-0.716c0.077-0.692,0.196-0.637-0.179-1.074c0.268-0.03,0.66,0.064,0.716-0.179
			c-0.765-0.191-0.58-1.281-0.358-1.968C69.109,15.536,70.889,15.546,71.225,17z"/>
		<path fill="#010101" d="M35.075,16.642c0.245,0.008,0.393-0.083,0.536-0.179c0.44,0.736,0.358,0.914,0.896,1.433
			c-0.42,0.056-0.672,0.282-1.252,0.178c-0.123-0.772-0.511-1.28-0.896-1.789c0.314,0.05,0.894-0.503,1.073,0
			C35.233,16.323,35.154,16.484,35.075,16.642z"/>
		<path fill="#010101" d="M38.833,18.79c-0.23,0.246-0.777,0.177-1.252,0.179c-0.201-0.456-0.439-0.873-0.716-1.253
			C37.786,16.724,38.668,17.938,38.833,18.79z"/>
		<path fill="#010101" d="M69.077,21.475c-0.239-0.299-0.796-0.279-1.073-0.538c-0.027-1.017-0.367-1.42,0.178-2.326
			C69.902,18.9,70.185,20.749,69.077,21.475z"/>
		<path fill="#010101" d="M40.444,21.475c-0.071,0.609-0.551,0.294,0,0.715c-0.467-0.149-0.981,0.541-1.253,0
			c0.11-0.249,0.688-0.027,0.716-0.359c-0.298,0-0.597,0-0.895,0c-0.018-0.281,0.023-0.62-0.358-0.536c0-0.238,0-0.477,0-0.716
			C39.827,19.867,40.104,21.206,40.444,21.475z"/>
		<path fill="#010101" d="M59.593,29.169c-0.051,1.819-3.771,0.42-2.685-0.358C57.506,29.788,58.825,28.902,59.593,29.169z"/>
		<path fill="#010101" d="M31.14,32.391c-0.092-0.433-1.173-0.792-0.358-1.074c2.02,1.506,4.338,0.072,7.873,0.179
			c0.835-0.507,1.563-1.975,2.685-1.611c-0.562,0.69-1.624,0.881-1.968,1.79c1.062,1.383,2.6,2.291,2.862,4.473
			c-1.765-0.799-2.385-2.745-3.579-4.115C36.122,32.087,33.31,32.539,31.14,32.391z"/>
		<path fill="#010101" d="M105.047,36.507c1.004,1.321,1.676,2.977,2.326,4.652c-0.869,0.153-0.271-1.16-1.074-1.073
			c0.127,0.131,0.446,0.875-0.179,0.715c-0.129-1.424-1.569-2.485-1.252-3.758c0.381,0.634,0.593,1.436,1.074,1.969
			C105.955,37.98,104.77,37.207,105.047,36.507z"/>
		<path fill="#010101" d="M57.803,49.39c1.533-0.785,5.382-1.422,6.264,0.359c-2.005,0.127-4.028-0.226-6.085,0.357
			C58.021,49.769,57.779,49.712,57.803,49.39z"/>
		<path fill="#010101" d="M79.098,52.433c-0.69,0.489-1.838,1.116-2.863,0.716c0.468-1.071-0.752-1.027-0.716-2.147
			c0.884-0.499,1.53-0.883,2.506-0.895C78.441,51.19,78.523,51.507,79.098,52.433z"/>
		<path fill="#010101" d="M105.584,47.244c-0.988,0.601-1.606,1.585-1.252,2.506c-0.822,0.497-1.164,1.025-1.074,1.968
			c-1.022,0.648-1.291,0.619-1.611,1.969c-0.457-0.083-1.014,0.633-1.252,0.179c0.396-0.022,0.076-0.759,0.179-1.074
			c0.446-0.091,1.08,0.006,1.073-0.537c-0.266,0.281-0.799,0.199-0.715-0.358c0.799-0.077,0.729-0.449,0.537-0.895
			c0.715-0.594,1.686-1.82,1.61-3.042c0.681-0.274,1.272-0.637,1.969-0.896c0.01-0.108,0.025-0.212,0.179-0.178
			C105.229,47.122,105.539,47.049,105.584,47.244z"/>
		<path fill="#010101" d="M88.046,59.77c0.099,0.624-1.2,0.763-1.253,0.179C87.326,59.959,87.701,59.423,88.046,59.77z"/>
		<path fill="#010101" d="M79.278,59.233c0.414-0.54,1.479-0.429,2.147-0.715c0.194,1.744,0.944,1.707,0.715,3.222
			c-0.634-0.097-0.44,0.634-1.074,0.536C79.997,60.975,79.923,60.788,79.278,59.233z"/>
		<path fill="#010101" d="M83.215,64.066c-0.217,0.039-0.11,0.199,0,0.358c-0.748,0.257-1.497,0.989-2.148,0.358
			c-0.188-0.667,0.377-0.579,0.537-0.896c-0.264-0.452-0.632-0.799-0.716-1.432C82.232,62.423,82.058,63.908,83.215,64.066z"/>
		<path fill="#010101" d="M90.194,73.372c-0.854,1.891-1.865,3.624-2.686,5.548c-0.218-0.021-0.423-0.054-0.357-0.358
			c0.581-1.588,1.829-3.764,2.326-4.474c0.81-1.155,4.092-6.143,5.906-4.474C93.79,71.002,92.685,72.879,90.194,73.372z"/>
		<path fill="#010101" d="M71.403,78.918c-1.06-0.256-0.544-0.049-1.073,0.357c-0.742-0.033-1.754,0.024-2.506,0
			c0.321-0.022,0.419,0.178,0.357,0.537c-0.563,0.089-0.631-0.321-1.252-0.178c0.07,0.255,0.215,0.301,0,0.536
			c-0.713,0.116-0.72-0.474-1.432-0.358c-0.331,0.771-1.777,0.759-2.506,0.358c-0.027,0.211,0.031,0.508-0.179,0.537
			c-0.575-0.38-1.566-0.342-1.969-0.896c0.64-0.463,1.153,0.435,1.969,0.358c0.053-0.47-0.694-0.14-0.537-0.716
			c0.701,0.008,1.036,0.105,0.716-0.536c0.429,0.107,0.817,0.257,1.432,0.178c-0.01-0.228-0.229-0.247-0.179-0.536
			c0.748-0.092,1.213,0.1,1.611,0.358c-0.261-0.856,0.748-0.444,1.252-0.538c-0.069-0.254-0.215-0.301,0-0.536
			c0.391-0.016,1.157,0.49,1.253,0.179c-0.056-0.422-0.621-0.332-0.537-0.895C69.245,77.499,70.453,78.079,71.403,78.918z"/>
		<path fill="#010101" d="M110.594,82.498c-0.97-0.578-4.568,0.393-4.831-1.073C106.599,80.433,110.564,80.229,110.594,82.498z"/>
		<path fill="#010101" d="M52.435,88.403c-1.731-0.866-2.928-1.283-5.549-1.432c2.149-1.158,5.961,0.27,7.874,1.611
			c1.659,0.37,4.259,1.348,5.728,2.505c-0.306,0.521-0.898-0.159-1.074-0.358c-0.368,0.17-0.151,0.923-0.716,0.896
			C56.151,90.758,54.316,89.346,52.435,88.403z"/>
		<path fill="#010101" d="M105.763,85.719c-0.387-1.109-1.071-2.411-0.715-3.4c1.026,2.224,1.264,4.268,2.326,6.264
			c-0.057-1.166-1.363-2.893-0.716-3.58c1.661,4.076,2.23,6.606,3.578,10.559c-1.535-1.149-1.293-4.075-2.506-5.547
			c-0.173,0.836,1.028,1.571,0.179,1.969C107.168,89.913,106.427,87.62,105.763,85.719z"/>
		<path fill="#010101" d="M115.963,90.909c0.496,1.561-1.103,3.98-1.252,4.473c-0.033,0.109,0.216,0.556,0.179,0.717
			c-0.26,1.111-1.233,2.701-1.074,3.938c-0.783-0.114-0.056,0.906-1.073,1.252c-0.318-3.832,5.096-9.639,0.716-11.811
			c1.568,2.008,0.588,5.102-0.716,6.979c0.159,0.438,0.417,0.777,0.357,1.432c-0.993-1.129-1.753-4.244-2.146-5.904
			c1.149,0.639,0.788,2.789,1.789,3.578c0.199-1.941,0.852-4.615-1.611-4.652c-0.375-0.479-0.676-1.307-0.357-1.969
			c0.21-0.027,0.508,0.03,0.536-0.179c0.668-0.011,1.133,0.181,1.61,0.358C113.837,88.208,115.67,89.985,115.963,90.909z"/>
		<path fill="#010101" d="M42.413,94.129c-0.843-0.889-2.219-1.367-3.4-1.432C39.581,91.125,43.047,92.819,42.413,94.129z"/>
	</g>
</g>
</svg>
