<?xml version="1.0" encoding="utf-8"?>
<!-- Generator: Adobe Illustrator 16.2.1, SVG Export Plug-In . SVG Version: 6.00 Build 0)  -->
<!DOCTYPE svg PUBLIC "-//W3C//DTD SVG 1.1//EN" "http://www.w3.org/Graphics/SVG/1.1/DTD/svg11.dtd">
<svg version="1.1" id="Layer_1" xmlns="http://www.w3.org/2000/svg" xmlns:xlink="http://www.w3.org/1999/xlink" x="0px" y="0px"
	 width="122.497px" height="164.321px" viewBox="0 0 122.497 164.321" enable-background="new 0 0 122.497 164.321"
	 xml:space="preserve">
<g>
	<g>
		<path fill="#010101" d="M83.252,26.743c0.351-0.776,0.77-1.485,1.353-2.029C85.098,25.548,84.093,26.523,83.252,26.743z"/>
		<path fill="#010101" d="M66.111,34.187c0.665-0.809,1.917-1.657,2.932-2.706C68.726,33.042,67.779,33.975,66.111,34.187z"/>
		<path fill="#010101" d="M63.404,33.961c-1.966,0.993-4.643-0.815-6.09-1.804c0.698-0.406,1.835,0.352,1.354-0.451
			C60.454,32.249,62.1,32.936,63.404,33.961z"/>
		<path fill="#010101" d="M69.269,39.374c0.125-1.033,0.84-0.469,2.029-0.677C71.163,39.465,69.982,39.186,69.269,39.374z"/>
		<path fill="#010101" d="M71.072,41.854c-0.59,0.765-1.574,0.195-2.706,0.677c-0.5-0.388-1.816-1.641-0.902-2.029
			C67.616,42.265,70.578,40.201,71.072,41.854z"/>
		<path fill="#010101" d="M72.201,44.786c-0.09-0.387,0.334-0.577,0-0.676c-0.471,0.133-0.73,0.475-1.128,0.676
			c0.443-1.811,1.914-2.596,3.608-3.156C74.438,43.205,74.596,44.424,72.201,44.786z"/>
		<path fill="#010101" d="M62.05,63.282c-6.81-1.162-11.317-6.574-16.237-10.375c-0.418-2.214-2.071-3.192-2.933-4.962
			c0.025-0.275,0.067-0.535,0.451-0.451C47.701,54.626,54.11,59.72,62.05,63.282z"/>
		<path fill="#010101" d="M71.522,61.702c0.338,0.039,0.833-0.08,0.902,0.227c-0.519,1.134-1.144,2.164-2.029,2.932
			c1.043-2.687,0.886-5.914,3.158-8.119C73.376,58.024,72.245,60.221,71.522,61.702z"/>
		<path fill="#010101" d="M24.16,97.112c0.114,0.138-0.375,0.242-0.452,0c-2.495-5.548-6.523-9.563-11.503-12.631
			c9.984,3.475,11.891,15.026,19.172,21.202C28.059,104.801,26.07,99.408,24.16,97.112z"/>
		<path fill="#010101" d="M67.464,111.772c-0.919-0.051-0.763-1.256-1.128-2.028c-0.987-2.087-2.376-4.454-3.608-6.316
			c-0.013-0.387,0.174-0.578,0.451-0.677c3.706,5.415,6.792,12.902,4.736,19.849C68.247,118.256,67.298,114.784,67.464,111.772z"/>
		<path fill="#010101" d="M77.839,114.254c-3.082,2.706-4.745,6.833-7.894,9.473c2.329-3.761,4.847-7.332,7.894-10.375
			C78.215,113.8,77.818,113.639,77.839,114.254z"/>
		<path fill="#010101" d="M54.608,121.021c-1,0.664-1.707,1.786-2.707,2.48c-4.494,3.12-8.828,6.038-13.081,9.021
			c1.346-1.663,2.892-3.124,5.188-3.835c-0.545-0.524,0.353-0.603,0.451-1.127c0.301,0,0.602,0,0.902,0
			c1.471-2.455,5.28-3.386,7.442-6.09c0.543,0.092,0.489-0.412,1.128-0.227c0.493-0.976,3.855-2.694,5.639-3.608
			C58.612,119.561,56.365,119.852,54.608,121.021z"/>
		<path fill="#010101" d="M35.438,132.975c-0.781,0.639-2.782,2.622-4.061,3.157c0.091-0.886,0.991-0.963,1.128-1.805
			c0.638,0.187,0.585-0.318,1.128-0.225c2.63-2.557,5.646-4.729,8.796-6.767c2.053-1.782,4.497-3.864,6.992-5.413
			c1.96-1.218,4.132-2.276,6.089-2.932C49.462,123.087,40.07,129.178,35.438,132.975z"/>
		<path fill="#010101" d="M62.501,138.839c0.769-5.472,3.354-10.676,4.963-16.014c0.266,0.034,0.64-0.04,0.677,0.225
			C66.054,128.038,64.74,133.562,62.501,138.839z"/>
		<path fill="#010101" d="M69.269,124.854c0.579-0.021,0.321-0.88,0.901-0.902c0.7,2.381-0.413,4.829-2.48,5.188
			c-1.199-1.597-0.175-4.957,1.804-5.413C69.681,124.364,69.176,124.311,69.269,124.854z"/>
		<path fill="#010101" d="M56.639,162.295c0.356-2.353,0.407-5.851,2.029-7.895C58.139,156.711,57.76,159.759,56.639,162.295z"/>
		<path fill="#010101" d="M11.082,80.647c0.552,0.301-0.407,0.681,0.224,0.902c0.197-1.196,0.139-1.084,0.902-1.579
			c-0.56-0.293-0.935,0.662-1.126,0C15.13,73.72,19.2,67.49,24.613,62.604c-1.013-3.002-1.398-5.234-2.255-8.346
			c1.805-2.029,4.822-2.846,7.669-3.834c-1.259-2.802-2.421-5.699-3.835-8.346c-0.279-0.729,0.729-0.171,0.45-0.901
			c-1.352-1.348-3.536-2.579-2.932-5.188c-1.664-2.894-1.729-8.378,0-11.052c0.606-0.401,0.436,0.993,0.677,0.226
			c0.485-1.173,1.263-4.574,3.157-4.284c0.26,0.495-1.198,1.199-1.128,2.255c0.878-0.25,0.834-1.422,1.805-1.578
			c-0.253,0.874-0.685,1.569-0.902,2.481c1.449-0.32,0.799,1.456,1.58,1.805c0.069-1.321,0.624-1.688-0.227-2.707
			c0.947-3.221,2.277-5.946,5.188-7.669c-1.359-2.405,1.781-5.377,2.707-7.668c0.426-0.051,0.498,0.254,0.902,0.225
			c3.489-2.824,6.377-6.252,11.728-7.217c-0.067-0.443,0.305-0.447,0.451-0.677c7.769-0.734,14.981,1.762,20.073,4.512
			c1.771,0.955,3.681,1.968,4.285,3.383c-0.174-0.199,1.198,1.752,1.579,2.481c2.637-1.539,7.502-1.021,9.247,0.901
			c0.632,2.024,2.226,2.923,2.48,4.962c0.406,3.238-2.204,5.629-3.833,7.895c-0.771,0.093-0.288,0.609-1.128,0.226
			c0.505,0.617-0.558,1.113-0.678,1.805c1.098,0.35,1.342,1.088,2.707,0.677c0.235-1.043,0.757-1.8,1.128-2.706
			c-0.231,1.359,0.663,1.592,0.677,2.706c-0.549,0.579-1.305,0.951-1.805,1.578c0.337,0.005,0.923-0.837,1.128-0.225
			c-0.669,0.684-1.055,1.651-2.481,1.578c-0.86-0.116-0.984-0.97-1.804-1.127c0.06,3.085-2.17,6.979-1.805,8.796
			c-0.037,1.016-1.728,0.378-1.578,1.578c1.152,1.083,3.251-0.365,3.833-0.451c-1.437,1.692-1.392,5.548-3.157,7.443
			c0.275,0.025,0.534,0.068,0.45,0.451c-2.52,3.503-2.322,6.984-5.187,9.924c0.22-1.439,1.829-4.311,0.226-5.413
			c-2.254,1.74-3.671,6.438-3.158,9.473c-1.866,4.26-3.728,8.348-3.608,13.081c2.298,5.111,7.598,8.908,10.601,13.308
			c0.598,0.877,0.018,0.782,0.677,0.901c0.187,0.034,2.214,2.614,2.48,2.933c4.381,5.215,7.63,10.843,11.729,16.689
			c2.826,4.032,5.256,8.422,8.119,11.277c2.237,2.231,5.098,3.421,6.992,5.864c-8.586-2.708-13.898-13.589-18.495-19.848
			c-0.694-0.946-2.562-4.782-3.383-4.736c-0.405,0.021-1.827,2.408-2.03,2.706c-0.835,1.225-1.233,2.08-1.804,2.932
			c0.939,2.519,3.04,3.876,3.383,6.991c0.376,0,0.752,0,1.128,0c2.316,2.43,4.867,4.484,7.894,6.992
			c2.883,2.39,5.85,5.921,8.57,6.315c6.123,0.89,10.978-0.618,16.916,1.128c1.217-0.137,1.088-1.618,2.48-1.578
			c-0.491,1.237-1.623,1.834-2.48,2.706c-1.394-0.638-4.238,0.178-4.963-1.128c0.194,1.045-0.354,0.236-0.451,0.676
			c-4.319-0.488-8.117,0.169-11.502-0.45c-2.204-0.404-3.949-1.878-5.639-3.159c-4.577-3.469-8.159-7.584-12.18-10.825
			c-0.732,1.672-1.284,3.525-2.029,5.187c-0.585-0.187-1.17,3.576-2.482,3.384c0.275,0.024,0.534,0.067,0.452,0.45
			c-1.46,1.312-2.137,3.97-4.061,5.188c-1.315,3.951-5.892,7.786-7.217,11.728c8.38-1.265,15.938,2.797,25.034,3.835
			c1.774,2.641,6.102,1.996,9.247,2.256c3.047,2.141,9.812,0.563,12.856,2.706c-6.676-0.001-13.867-2.639-20.976-2.706
			c0.527,0.825,0.393,2.312,1.353,2.706c6.229,0.011,12.16,1.718,18.269,0.676c-2.702,1.811-5.495,1.281-9.697,1.128
			c-0.427-0.024-0.157-0.745-0.677-0.676c-0.628,1.313-5.59-0.875-7.443,0.225c1.47,2.504,3.089,7.011-1.804,6.767
			c0.175,1.303-0.742,1.514-1.128,2.256c-2.08-0.352-3.061,0.396-3.835,1.353c-2.535-0.172-4.585-0.827-6.314-1.805
			c0.212-1.188-1.253-2.621-1.128-3.609c1.238,0.567,1.031,2.578,2.256,3.159c1.971,0.133,3.044,1.165,4.962,1.353
			c1.262-4.233,0.391-6.73,0.45-10.826c-2.759-0.475-4.872-1.593-6.991-2.706c3.033,0.575,5.449,1.767,7.894,2.931
			c0.254,3.43-0.036,4.857,0.226,8.797c0.902,0,1.804,0,2.707,0c-0.188-2.101-0.379-4.802-0.677-6.767
			c-0.184-1.209-0.203-2.845-0.451-3.608c-0.491-1.509-4.63-1.742-6.315-2.255c-2.762-0.841-5.244-1.853-7.442-3.158
			c4.546,1.472,9.68,2.896,14.435,4.736c0.175,2.657,0.594,5.882,1.354,8.57c1.088-0.039,2.154-0.102,2.48-0.901
			c-1.291-3.596-2.698-7.075-4.511-10.149c-9.648-1.673-18.944-5.638-29.546-2.933c-0.666,1.26-0.423,1.104-0.451,2.029
			c-0.033,1.087-1.189,3.864-1.128,4.962c-0.051-0.897,0.812,1.237,0.677,1.128c1.99,0.156,3.773-0.897,7.442-0.677
			c0.04-0.337-0.08-0.831,0.227-0.901c3.507,3.785,8.625,5.96,16.013,5.863c0.748-0.162,1.003-1.993,1.805-1.353
			c-2.102,1.548-0.347,3.714,0.677,5.187c-1.346-0.233-1.369-1.789-2.481-2.255c0.037,0.789-0.06,1.443-0.451,1.804
			c-0.76-0.636,0.516-1.907-0.226-2.481c-4.132,0.104-9.106-0.783-11.953-2.706c0.176-0.051,0.445-0.005,0.45-0.226
			c-1.655,0.416-2.598-1.53-3.833-2.256c-2.2,0.472-4.076,0.244-5.864,1.354c-0.229,2.251-0.776,4.185-1.58,5.863
			c0.496,0.672,0.048,0.825-0.225,0.902c-0.109,1.617-0.114,3.677-0.451,5.188c-0.15,0.679-0.284,2.269-1.353,2.255
			c-0.748-3.896,1.579-8.35,1.578-12.179c-1.186-0.409-0.857,1.662-1.805,0.677c0.704,1.065,0.19,0.277-0.677,0.451
			c-0.419,0.083-0.649,0.632-0.901,0.676c-0.401,0.07-1.051-0.454-1.354,0c-0.475-0.803-0.469-2.086-1.128-2.706
			c-8.546,1.819-17.519,4.785-27.741,5.639c-1.103,1.839,0.52,3.829-0.902,5.639c-0.322-1.717,0.661-3.879-0.451-5.413
			c-6.867,0.896-13.777-1.029-21.2-0.451c-1.185,0.092-2.815,1.106-3.608-0.226c0.724-0.887,2.473-1.03,3.834-1.128
			c2.822-0.203,7.85,0.066,8.345,0.676c15.396,0.077,28.916-2.125,41.951-6.089c-0.172-2.518,0.059-6.295,1.127-9.022
			c-12.971,0.327-24.437-1.94-35.635-2.706c-4.136-0.283-9.035,1.016-12.856,0.902c3.854-1.594,10.353-1.259,15.562-1.354
			c-1.313-4.029-1.849-7.796-3.608-11.051c-1.522,3.515-1.444,8.629-4.286,10.825c0.646-8.067,4.449-14.75,5.864-23.456
			c-2.982-3.268-7.638-6.031-9.923-9.247c-2.356-0.878-4.892-3.529-6.993-5.412c-1.707,9.522-1.955,19.963-3.834,28.417
			c-0.53,2.388-0.976,4.528-1.353,6.767c-1.073,6.353,0.045,14.938,1.578,21.426c-1.435-0.775-1.062-2.62-1.354-3.834
			c-1.239-5.156-2.637-9.6-1.804-15.788c0.842-6.251,2.938-12.933,3.608-18.945c0.643-5.74,1.473-13.244,2.706-19.171
			c-0.321-0.806-1.314-0.939-1.578-1.804c0.941-0.326,1.104,1.279,1.805,0.45c-0.002-0.226,0.182-0.269,0.226-0.45
			c-0.556-1.024-1.927-1.232-2.256-2.482c4.105,2.475,7.355,6.116,11.052,9.022c3.748,2.946,7.672,5.706,10.825,9.247
			c-2.84-1.167-4.629-4.511-7.217-5.188c0.351-0.059,0.156-0.494,0-0.676c-4.284-2.633-8.048-6.988-11.953-9.247
			c0.487,2.145,2.833,2.706,4.285,3.834c1.89,1.468,3.431,3.475,5.639,4.511c2.469,3.17,6.557,4.721,8.797,8.12
			c-1.725,3.614-2.486,8.19-3.61,12.404c2.703,2.711,2.775,8.053,4.286,11.955c10.462,0.955,20.187,2.366,32.027,2.48
			c0.728-0.248,0.776-1.179,1.579-1.354c-1.232,3.146-3.778,8.806-1.128,12.18c0.208-4.133-0.778-10.044,2.481-11.954
			c-1.724,3.164-2.82,8.595-1.354,11.503c0.411-3.905-0.102-11.078,2.933-11.729c0.044-1.759,0.534-3.073,1.805-3.608
			c0.042,0.335,0.545,0.207,0.902,0.227c0.603,1.825-0.843,3.497-1.128,4.284c1.222-0.017,2.592-0.451,3.158-0.45
			c3.188-8.016,9.927-14.228,13.531-22.329c-0.993,0.51-1.301,1.706-2.48,2.029c0.721-1.834,2.449-2.662,2.932-4.736
			c-0.931,0.335-1.474,2.05-2.256,1.806c0.376,0.447-0.02,0.285,0,0.901c-4.719,5.647-7.762,11.737-11.953,18.043
			c0.133-2.256,1.94-4.116,3.157-6.089c1.251-2.025,2.445-4.271,4.06-5.864c-0.274-0.025-0.533-0.067-0.451-0.451
			c1.443-0.868,3.207-5.263,4.285-6.09c0.375-0.287,0.421,0.366,0.678,0c-0.061,0.087-0.503-0.354-0.451-0.45
			c0.577-1.076,2.979-3.734,3.834-2.03c0.503-1.001,1.253-1.756,1.578-2.932c-3.708-5.401-7.188-10.675-10.374-16.466
			c-0.229-0.414-0.928-0.737-1.128-1.127c-2.677-5.211-4.469-11.373-6.991-16.239c5.252,7.679,7.401,18.46,13.532,25.261
			c-1.77-3.661-4.813-7.98-6.767-11.953c-1.099-2.234-3.319-7.353-1.805-8.797c2.861,4.432,4.968,9.617,7.443,14.435
			c0.158,0.984-0.651,1.002-0.677,1.805c0.992,1.264,1.314,3.196,2.706,4.059c-0.034-0.561,0.355-0.696,0.451-1.126
			c-0.21,0.137-0.83,0.523-0.676-0.226c-0.528-4.509-0.984-9.091-2.932-12.18c-0.34,0.787,0.178,2.435-0.677,2.706
			c-1.344-1.752-2.588-4.762-2.481-7.217c-3.082-3.76-7.062-6.621-7.894-12.63c-1.918,0.789-4.499,0.913-6.09,2.029
			c0.825,0.754,1.985,1.172,2.932,1.805c0.023,0.775,0.116,1.619-0.451,1.804c0.465,2.117-0.009,6.589-0.451,10.375
			c-0.382,3.272-1.086,6.555-2.255,7.668c1.31-5.834,2.083-11.561,2.48-19.621c-1.981-1.368-3.852-1.454-5.412-3.158
			c3.028-1.33,6.52-2.201,9.923-3.157c0.209-1.964,1.584-3.28,0.677-4.737c-0.451,0.452-1.146,0.659-1.354,1.354
			c0.267-0.065,0.852-0.908,1.128-0.225c-1.221,0.607-1.603,1.264-2.256,2.029c-1.96,0.507-7.621,1.666-8.57-1.127
			c-1.461,1.777-1.765,5.05-2.706,7.442c0.313,0.618,1.274,1.437,0.676,2.255c0.778,0.024,1.315,1.505,1.58,2.481
			c0.5,1.854,0.915,4.545,1.127,6.54c0.24,2.248,0.585,4.605-0.676,5.188c-0.738-1.451-0.98-3.7-1.353-6.09
			c-0.392-2.515-0.514-5.986-2.256-6.991c-0.026,0.715,0.007,3.266-1.354,3.383c-0.576-1.72,0.333-3.541,0.677-4.963
			c0.816-3.377,2.441-11.24,5.412-12.179c2.374-0.749,5.239,1.146,7.669,0.226c2.286-0.867,2.485-4.221,4.511-5.412
			c0.892-3.832,1.413-7.198,4.962-9.474c0.566,0.797-0.09,2.088,0.677,2.256c2.173-3.032,3.355-9.755,0.902-13.081
			c0.485-1.232,0.776-3.237-1.128-3.158c1.362,0.938-0.192,3.519,1.354,4.06c-1.135,0.15-1.942-1.204-2.933-0.451
			c0.916,0.663,2.736,0.422,2.707,2.03c-1.41,0.206-1.292-1.115-2.256-1.354c0.034,0.717,0.512,0.992,0.451,1.805
			c-2.319-1.691-3.682-7.753-0.451-9.474c0.454,1.059-1.34,1.61-0.902,3.384c0.486-0.566,1.765-0.341,2.03-1.128
			c-0.552,0.2-0.978,0.525-1.805,0.451c0.898-1.9,4.149-0.489,5.188,0.226c-0.2,0.067-0.987,0.61-0.451,0.678
			c0.842-1.194,1.842-2.547,1.578-4.061c-0.223-1.287-2.348-1.883-1.578-3.157c0.66-0.495,1.362,0.475,2.256,0.451
			c0.312-5.725-0.629-10.197-3.384-12.856c-0.562,0.19-1.208,0.296-2.029,0.227c-0.522-1.148-1.353-0.891-1.128-2.481
			c0.19-0.486,1.163-0.19,1.354-0.677c-1.283,0.511-1.789-0.674-2.707,0.452c-0.266-0.336-0.195-1.009-0.901-0.902
			c-0.396,0.054-0.515,0.388-0.451,0.902c-2.893-2.28-6.734-0.71-9.698,0.45c-0.443,0.068-0.446-0.304-0.677-0.45
			c-4.184,2.499-6.128-3.317-8.346-4.286c-0.309-0.135-2.241-1.275-2.029,0.676c1.261-0.693,3.317,1.41,3.157,3.609
			c1.659,0.471,2.785,0.48,4.511,0.677c0.755,1.93-1.606,1.965-1.578,4.285c-0.389,0.089-0.578-0.335-0.677,0
			c-0.175,0.576,0.972,0.707,1.128,1.579c-1.71,1.454-5.582,1.815-8.345,1.804c2.457,0.894,5.356-0.558,7.217-0.226
			c-1.738,0.667-3.574,1.237-6.09,1.128c0.396,2.544-1.227,2.799-1.127,4.511c-1.683,0.53-1.764,0.571-2.707,1.354
			c1.146-0.333,3.256,0.159,4.286,0.677c0.551,1.462-0.871,2.475-1.128,3.835c-1.478,0.36-1.983,0.295-2.934,1.127
			c0.397,0.13,1.326-0.272,1.354,0.227c-1.124,1.59-4.831,0.527-6.315,0.676c0.344,0.56,0.463,1.342,1.127,1.579
			c0.146-0.756,0.822-0.982,1.58-1.127c0.188,0.86-1.477,1.63-2.482,2.029c-0.806-0.616-1.893-1.664-1.352-2.932
			c-0.491-0.126-1.588-0.799-1.805-0.452c0.08,1.016,1.16,2.26,1.354,3.834c-2.764,0.207-0.534-4.579-3.158-4.51
			c-0.231,2.187,0.654,3.255,0.902,4.962c1.58,1.517,3.68,0.555,4.961,1.805c-1.354,0.331-1.74-0.325-3.382-0.226
			c0.775,9.192-2.793,17.359-6.541,23.906c4.621,4.928,10.453,8.644,12.63,16.014c1.601,0.108,2.608-0.44,3.835-0.226
			c1.972,2.549,3.522,5.667,5.188,8.346c2.334,3.754,4.564,7.548,6.767,11.277c0.687,1.162,2.325,2.321,1.578,3.834
			c-4.825-8.104-9.183-16.612-14.21-22.78c-1.021,0.483-2.9,0.106-4.284,0.226c-0.346-1.761-0.998-3.214-1.806-4.512
			c-1.919,1.624-3.226,2.478-4.511,4.736c2.337,2.326,4.803,4.52,6.541,7.444c-2.953-1.784-4.558-4.916-6.992-7.218
			c-1.179,1.075-2.493,2.017-3.158,3.607c-1.23-0.215-1.984-0.443-2.48-0.902c0.747-0.902,1.71-2.546,2.933-3.382
			c0.185-0.128,0.991-0.101,1.128-0.227c0.046-0.043,0.239-1.145,0.45-1.353c0.652-0.646,0.977-0.464,1.578-0.677
			c-0.55-0.586,1.174-1.165,1.354-1.128c-0.844-0.426,2.004-1.52,2.933-2.256c-4.436-7.151-15.035-11.242-16.014-20.975
			c1.272,0.795,0.68,2.604,1.128,3.608c0.653,1.46,1.895,2.66,3.157,3.608c1.315-1.246,1.973-3.546,3.609-4.285
			c0.398-0.18,1.292,0.053,1.579-0.226c0.25-0.241,0.452-1.733,0.451-2.029c-3.333,0.4-4.39-1.474-5.64-3.157
			c-2.6,0.782-5.159,1.606-6.991,3.157c1.593,3.903,2.553,10.951,3.834,13.759c1.067,2.337,2.147,6.455,2.933,9.247
			c0.504,1.794,1.088,4.13,0.225,4.511c-2.288-5.637-3.435-12.187-5.413-17.593c-4.118,3.701-7.538,8.1-10.601,12.856
			c0.098,0.354,0.71,0.193,0.451,0.902c-3.386,3.831-5.239,9.195-6.54,15.111c-0.326,0.537-0.343,0.554-0.677,0.677
			c0.347,0.633,0.53,1.539,0.902,1.805c3.876,2.76,8.425,6.514,11.953,9.697c2.158,1.978,5.614,3.859,6.767,6.091
			c-7.252-5.98-14.886-11.579-21.652-18.044c1.072-0.245,0.832,0.821,1.805,0.677C7.644,89.601,10.761,83.696,11.082,80.647z
			 M49.871,0.807c0.938,0.615,1.562,0.254,2.707,0.45C52.743,0.931,50.849,0.74,49.871,0.807z M65.208,3.286
			c0.989,0.891,2.872,0.889,3.158,2.481c-0.765,1.024-2.092-0.778-3.383-0.676c0.784,1.243,1.271,2.788,2.706,3.383
			c-0.19-1.168,0.099-1.856,1.128-1.805c-0.443-1.143,0.316-0.619,0.451-1.578C67.868,4.537,66.858,3.593,65.208,3.286z
			 M56.863,3.287c0.209,0.845,1.811,0.294,2.707,0.451C59.049,2.717,57.768,3.856,56.863,3.287z M56.187,3.738
			c-0.301,0-0.601,0-0.901,0c-0.077,1.054,1.146,0.808,0.901,2.03c0.376,0,0.752,0,1.128,0C56.975,5.056,56.175,4.804,56.187,3.738z
			 M54.157,5.994c-0.112,0.315,0.504,0.428,0.677,0.451c1.764,0.24,3.769-0.174,0.676-0.451C55.06,5.994,54.607,5.994,54.157,5.994z
			 M51.901,7.572c2.774,1.406,5.518,3.484,9.022,1.805c-1.905-1.234-3.52,0.16-5.864-0.677C54.251,7.981,53.359,7,51.901,7.572z
			 M60.021,10.279c2.107,0.45,3.97-1.291,6.541-1.128C65.025,8.325,61.22,9.989,60.021,10.279z M84.83,12.76
			c-0.286,0.894,1.354,1.799,1.354,3.158C86.935,14.56,85.361,13.588,84.83,12.76z M82.801,13.888
			c0.289,0.387,0.466,0.887,1.128,0.902C84.06,13.954,83.321,13.395,82.801,13.888z M45.586,13.662
			c-0.562,0.362,0.155,1.331,0.677,1.354C46.047,14.555,45.802,14.123,45.586,13.662z M83.702,15.467
			c-0.181-0.194-0.617-0.134-0.676-0.451c-0.031,0.777,0.036,1.467,0,2.256C83.445,16.863,83.853,16.443,83.702,15.467z
			 M38.144,16.369c0.29,0.612,1.155,0.649,1.354,1.353C39.937,17.267,38.973,16.303,38.144,16.369z M37.691,17.046
			c0.724,0.479,0.985,1.421,2.03,1.578C39.185,17.959,38.734,17.206,37.691,17.046z M44.685,19.526
			c0.267,0.635,1.11,0.693,1.578,1.128C46.509,20.393,45.46,19.514,44.685,19.526z M30.476,21.556
			c-0.621-0.532-0.953,1.143-1.128,1.805C29.916,22.951,29.907,21.965,30.476,21.556z M38.144,23.812
			c1.02,2.438,3.481,0.805,5.413,2.03c-0.434-0.92-1.712-0.995-3.158-0.902C39.49,24.787,38.877,23.419,38.144,23.812z
			 M33.182,24.489c-0.141,1.192,1.282,0.822,1.128,2.029C35.182,25.928,34.467,24.275,33.182,24.489z M38.144,25.165
			c0.222-0.95-1.271,0.95-1.354,1.804c2.067,2.219,5.245,3.326,9.021,3.835c-2.668-1.316-6.298-1.671-8.12-3.835
			c2.679,1.008,4.797,2.571,8.12,2.933c-2.746-1.163-5.937-1.882-8.12-3.608C38.302,25.879,37.731,25.529,38.144,25.165z
			 M44.008,32.833c-0.13,0.292,1.765,0.482,2.707,0.451C46.009,32.938,45.047,32.847,44.008,32.833z M34.31,36.217
			c0.602,0,1.203,0,1.804,0C36.397,35.248,34.403,35.593,34.31,36.217z M75.133,85.384c-0.683,0.875,0.598,3.581,1.579,4.286
			C77.105,87.32,75.86,86.611,75.133,85.384z M79.192,90.572c0.129,3.453,1.904,5.912,1.578,10.375
			c1.517-0.739,1.892-2.619,3.158-3.608C83.049,94.384,80.744,92.854,79.192,90.572z M84.38,98.241
			c-1.164,0.749-4.542,3.96-3.157,5.864c1.573-1.51,2.622-3.544,3.834-5.414c-2.04,1.576-1.857,2.884-3.834,4.736
			C81.229,101.702,83.132,99.968,84.38,98.241z M63.63,139.515c-2.148,1.121-3.356,9.119-1.579,11.052
			C62.609,147.773,62.156,142.922,63.63,139.515z"/>
		<path fill="#010101" d="M83.928,58.997c-2.168,4.359-2.783,12.434-5.639,16.239c4.169,2.092,7.088,6.723,11.729,9.021
			c7.276,7.438,21.967,15.255,29.095,24.132c2.517,3.136,2.057,9.037,2.706,13.533c0.158,1.095,1.17,2.376,0,3.157
			c-2.962-4.45-0.373-11.878-3.157-16.014c-2.898-4.308-8.406-8.032-13.081-11.728c-4.756-3.761-10.014-7.139-14.435-10.602
			c-4.78-3.743-8.633-8.061-12.856-11.051c-0.889,0.803-1.456,3.003-2.932,2.48c2.216-3.438,4.714-7.927,5.639-13.758
			c1.488-5.166,5.43-9.512,6.314-15.337c0.784-0.495,0.777-1.78,1.354-2.48c0.05-0.176,0.189-0.263,0.451-0.226
			C87.961,49.812,86.643,56.778,83.928,58.997z"/>
		<path fill="#010101" d="M53.255,99.369c-1.221-1.953-3.095-5.479-3.834-6.316c-1.57-1.778-2.812-4.062-4.286-5.639
			c-2.155-2.305-5.401-4.71-6.089-7.217C44.037,86.182,50.909,91.488,53.255,99.369z"/>
		<path fill="#010101" d="M78.064,115.607c-2.427,2.01-4.232,6.593-6.767,9.247c1.583-3.911,4.694-8.233,7.668-11.503
			C79.112,114.553,77.891,114.346,78.064,115.607z"/>
		<path fill="#010101" d="M66.336,120.118c-4.157,2.384-7.638,5.443-11.052,8.57c-0.615,0.164-0.454-0.448-0.901-0.45
			c0.054,0.322,0.371,0.38,0.451,0.676c-3.225,1.787-6.219,6.474-10.826,4.736c-1.884,1.008-3.17,4.076-6.09,2.256
			c2.074-2.735,5.044-6.733,9.698-5.413c4.551-3.849,10.101-6.505,14.21-9.924C62.909,121.03,65.367,118.412,66.336,120.118z"/>
		<path fill="#010101" d="M36.113,144.478c0.025,0.812,0.821,2.022,0.227,2.706c0.028-0.405-0.224-0.528-0.677-0.451
			c-0.068-0.929-0.852-1.521,0-1.579c-0.321-0.088-0.381-0.271-0.678,0c0.131-0.396-0.272-1.324,0.227-1.354
			c0.054,0.423,0.371-0.127,0.451,0.226C35.145,144.318,35.887,145.365,36.113,144.478z"/>
		<path fill="#010101" d="M69.268,24.263c-2.213,1.279-4.782-1.847-6.991-2.707c-2.258-0.13-4.474,2.112-5.639,1.579
			C58.19,19.284,67.407,19.966,69.268,24.263z"/>
		<path fill="#010101" d="M57.767,27.87c0.564-0.298,0.706,0.893,0.902,0.227c-0.071-0.306-0.322-0.431-0.227-0.902
			c0.354-0.021,0.782,0.03,0.677-0.451c0.677,0.154,1.145,0.732,0.677-0.226c0.658,0.2,0.778,0.288,1.128-0.226
			c1.318,0.938,3.729,0.781,4.511,2.255c-0.515,0.735-1.14-0.941-1.579-0.225c1.014,0.526,2.68,2.683,1.353,4.06
			c0-0.677,0-1.353,0-2.029c-0.65-0.335-1.559-1.589-2.256-1.128c0.831,0.623,0.348,2.179,0,2.932
			c0.572,0.256,1.279,0.375,1.58,0.902c-2.785-0.298-4.168-1.997-6.09-3.158c0.497-0.469,0.969,0.357,1.804,0.227
			c-0.309-0.515,0.582-0.848,0-0.902c-0.277,0.323-0.775,0.428-1.353,0.451C58.604,28.987,57.97,28.646,57.767,27.87z"/>
		<path fill="#010101" d="M78.967,60.124c2.224-3.177,3.411-7.044,5.414-9.925c-1.414-3.208,1.246-8.028,0.45-10.374
			c-3.466,6.41-3.599,14.684-8.119,20.523c2.822-6.974,5.758-14.252,6.767-21.877c-3.679,6.72-3.906,14.218-8.12,20.073
			c0.916-4.42,3.999-8.737,5.188-13.533c0.843-3.402,0.589-7.083,4.06-7.894c0.107,1.073-0.444,1.235,0,1.805
			c1.062,0.233,0.537-1.115,1.579-0.902c-0.176,3.701-1.603,7.021-1.128,10.826c0.738-3.245,3.005-4.965,5.639-6.315
			c0.24,1.195-0.706,3.016-1.579,3.835c-0.71-0.64,0.896-1.693,0.226-2.256C83.736,48.167,84.278,55.681,78.967,60.124z"/>
		<path fill="#010101" d="M71.073,46.591c0.86-0.109,1.439,0.063,1.805,0.451c0.446,1.688-0.532,3.597-2.482,3.608
			c-0.112-0.939,0.66-0.994,0.452-2.029c-2.582-1.861-7.067-2.998-11.052-2.706c-0.181,0.782,0.336,0.867,0.226,1.579
			c3.857,0.652,7.99,1.031,9.924,3.608c-1.749,0.883-1.111,4.151-2.256,5.639c-7.606,0.926-8.806-6.761-8.571-11.729
			C62.857,43.36,68.856,43.346,71.073,46.591z M60.697,49.073c-0.002,2.965,3.952,4.511,6.992,4.511
			c0.047-1.284,0.146-1.305,0.451-2.481C65.514,50.572,61.915,51.013,60.697,49.073z M64.532,53.809
			c0.042,0.859,1.666,0.139,2.03,0.677C66.914,54.118,65.28,53.823,64.532,53.809z"/>
		<path fill="#010101" d="M75.81,61.928c-0.203-0.2-0.351-1.569-0.677-0.902c0.217,0.61,0.364,1.289,0.677,1.805
			c1.12-0.76,1.324-2.435,2.706-2.933c-0.855,1.349-1.592,2.813-2.255,4.285c-1.638,3.636-5.052,7.205-5.413,10.826
			c-0.072,0.717,0.856,1.847-0.226,2.481c-2.62-5.847,3.363-8.561,4.511-12.856c-0.938-1.166-1.469-2.74-1.805-4.511
			c0.848-0.445,0.764,1.157,1.128,0.452c-0.441-1.015-0.542-1.895,0.226-2.256C74.926,59.508,76.341,60.714,75.81,61.928z
			 M74.682,62.154c-0.585,0.382,0.437,1.048,0.226,1.804C76.38,63.748,74.705,62.872,74.682,62.154z"/>
		<path fill="#010101" d="M50.322,78.167c0.525-0.152,0.17-1.184,1.128-0.902c-0.319,0.959-0.592,1.965-1.579,2.256
			c-0.317-1.884-2.331-4.406-2.03-5.413C48.906,75.222,49.379,76.93,50.322,78.167z"/>
		<path fill="#010101" d="M33.182,102.074c-3.019-6.455-5.671-14.477-9.924-18.945c1.878,6.393,4.276,12.265,6.991,17.818
			c-4.44-5.857-6.394-14.206-8.795-22.104c4.444,6.079,8.179,12.872,11.277,20.299c-0.451-8.212-2.077-20.156-9.249-23.907
			c-1.116-0.584-2.76-0.042-3.608-1.579C32.221,76.083,33.342,92.199,33.182,102.074z"/>
		<path fill="#010101" d="M18.747,85.159c-1.772-2.244-3.569-2.137-3.609-5.188c1.788,0.244,3.555,1.569,4.736,2.932
			c1.48,1.706,3.629,4.475,2.933,6.767C20.639,89.015,20.125,86.905,18.747,85.159z"/>
		<path fill="#010101" d="M22.355,99.819c-2.24-2.135-4.193-4.894-6.767-6.991c-1.701-1.389-4.368-1.745-4.962-4.061
			c4.615,0.652,7.033,4.044,9.474,6.767c1.854,2.068,4.923,4.292,6.314,6.314C24.646,102.165,23.347,100.764,22.355,99.819z"/>
		<path fill="#010101" d="M33.182,110.646c2.531-6.275,2.432-13.297,1.804-20.525c-0.058-0.672-1.066-3.525,0.678-4.06
			c1.287,9.25,4.546,20.898-1.354,29.095c0.138,0.765,1.442,0.362,1.354,1.353c-0.72,1.522-2.163,4.618-4.06,6.541
			c-1.466,1.484-4.496,3.934-5.413,1.128c1.488-1.442,3.212-2.651,4.285-4.511c-0.713-0.49-1.659-0.747-1.805-1.804
			C30.41,115.703,32.046,113.459,33.182,110.646z M31.377,117.637c0.263-0.036,0.401,0.05,0.451,0.227
			c0.185-0.567,1.029-0.476,1.805-0.452C33.075,116.854,31.809,116.731,31.377,117.637z"/>
		<path fill="#010101" d="M16.265,95.309c0.165,0.614-0.447,0.454-0.45,0.901c5.176,4.222,11.132,7.663,16.014,12.18
			c-0.334,0.042-0.207,0.545-0.226,0.902c-0.995,0.479-1.848-0.355-2.256-1.128c-2.257-0.987-5.065-3.345-7.217-5.188
			c-2.624-2.412-6.2-3.874-7.669-7.442c0.048-0.253,0.251-0.352,0.452-0.451C15.244,95.934,15.656,95.685,16.265,95.309z"/>
		<path fill="#010101" d="M50.774,102.751c0.995,2.4,2.235,5.141,2.029,7.442c-3.007-10.901-8.981-18.835-14.66-27.064
			c-0.238-0.013-0.178-0.288,0.226-0.226C42.744,88.816,47.729,95.407,50.774,102.751z"/>
		<path fill="#010101" d="M70.396,114.705c-1.771,0.051-2.38-4.031-0.451-4.961c0.038,0.336-0.081,0.831,0.226,0.901
			c0.787-0.274,0.222-0.849,0.902-0.901C72.229,111.131,72.145,114.655,70.396,114.705z"/>
		<path fill="#010101" d="M32.955,127.11c3.161-1.868,4.732-4.269,7.895-5.187c-0.446,2.185-2.57,2.921-4.061,4.736
			c0.049-0.059,0.353,0.267,0.227,0.45c-0.982,1.434-4.256,4.472-4.963,5.413c-0.549,0.732-0.808,2.381-2.028,2.706
			c0.18,0.861-0.857,1.44-1.354,2.029c0-0.375,0-0.752,0-1.127c3.863-4.406,6.796-8.501,9.924-12.404
			c-2.799,1.623-3.062,2.407-5.639,4.51C32.822,127.519,33.38,127.54,32.955,127.11z"/>
		<path fill="#010101" d="M4.988,147.634c-0.842-0.241-0.642,0.56-1.353,0.451c-0.459-0.581-0.561-1.276,0.451-1.354
			C4.303,147.118,4.836,147.187,4.988,147.634z"/>
	</g>
</g>
</svg>
